%TF.GenerationSoftware,KiCad,Pcbnew,9.0.7*%
%TF.CreationDate,2026-02-07T20:34:06-05:00*%
%TF.ProjectId,USB-Cellular-Modem,5553422d-4365-46c6-9c75-6c61722d4d6f,V1.2*%
%TF.SameCoordinates,Original*%
%TF.FileFunction,Soldermask,Top*%
%TF.FilePolarity,Negative*%
%FSLAX46Y46*%
G04 Gerber Fmt 4.6, Leading zero omitted, Abs format (unit mm)*
G04 Created by KiCad (PCBNEW 9.0.7) date 2026-02-07 20:34:06*
%MOMM*%
%LPD*%
G01*
G04 APERTURE LIST*
G04 Aperture macros list*
%AMRoundRect*
0 Rectangle with rounded corners*
0 $1 Rounding radius*
0 $2 $3 $4 $5 $6 $7 $8 $9 X,Y pos of 4 corners*
0 Add a 4 corners polygon primitive as box body*
4,1,4,$2,$3,$4,$5,$6,$7,$8,$9,$2,$3,0*
0 Add four circle primitives for the rounded corners*
1,1,$1+$1,$2,$3*
1,1,$1+$1,$4,$5*
1,1,$1+$1,$6,$7*
1,1,$1+$1,$8,$9*
0 Add four rect primitives between the rounded corners*
20,1,$1+$1,$2,$3,$4,$5,0*
20,1,$1+$1,$4,$5,$6,$7,0*
20,1,$1+$1,$6,$7,$8,$9,0*
20,1,$1+$1,$8,$9,$2,$3,0*%
%AMFreePoly0*
4,1,9,1.050000,0.350000,0.550000,0.000000,0.550000,-0.400000,0.800000,-0.650000,0.800000,-0.800000,-1.050000,-0.800000,-1.050000,0.800000,1.050000,0.800000,1.050000,0.350000,1.050000,0.350000,$1*%
%AMFreePoly1*
4,1,9,1.050000,-0.800000,-0.800000,-0.800000,-0.800000,-0.650000,-0.550000,-0.400000,-0.550000,0.000000,-1.050000,0.350000,-1.050000,0.800000,1.050000,0.800000,1.050000,-0.800000,1.050000,-0.800000,$1*%
G04 Aperture macros list end*
%ADD10C,0.010000*%
%ADD11RoundRect,0.237500X-0.287500X-0.237500X0.287500X-0.237500X0.287500X0.237500X-0.287500X0.237500X0*%
%ADD12RoundRect,0.250000X0.412500X0.650000X-0.412500X0.650000X-0.412500X-0.650000X0.412500X-0.650000X0*%
%ADD13RoundRect,0.237500X0.237500X-0.287500X0.237500X0.287500X-0.237500X0.287500X-0.237500X-0.287500X0*%
%ADD14RoundRect,0.237500X0.287500X0.237500X-0.287500X0.237500X-0.287500X-0.237500X0.287500X-0.237500X0*%
%ADD15R,0.400000X1.500000*%
%ADD16C,2.700000*%
%ADD17R,1.000000X1.050000*%
%ADD18R,1.050000X2.200000*%
%ADD19R,1.000000X1.500000*%
%ADD20R,1.560000X0.650000*%
%ADD21R,0.600000X1.600000*%
%ADD22R,1.600000X0.600000*%
%ADD23R,0.900000X1.100000*%
%ADD24R,1.100000X0.900000*%
%ADD25R,3.100000X2.600000*%
%ADD26R,0.407200X0.909599*%
%ADD27R,4.292600X3.505200*%
%ADD28C,0.600000*%
%ADD29R,1.350000X0.400000*%
%ADD30FreePoly0,90.000000*%
%ADD31O,1.700000X1.000000*%
%ADD32R,1.900000X1.900000*%
%ADD33O,1.700000X0.850000*%
%ADD34FreePoly1,90.000000*%
%ADD35RoundRect,0.250001X0.872499X1.044999X-0.872499X1.044999X-0.872499X-1.044999X0.872499X-1.044999X0*%
%ADD36RoundRect,0.237500X0.237500X-0.300000X0.237500X0.300000X-0.237500X0.300000X-0.237500X-0.300000X0*%
%ADD37RoundRect,0.125000X0.125000X-0.487500X0.125000X0.487500X-0.125000X0.487500X-0.125000X-0.487500X0*%
%ADD38RoundRect,0.237500X0.300000X0.237500X-0.300000X0.237500X-0.300000X-0.237500X0.300000X-0.237500X0*%
%ADD39RoundRect,0.237500X-0.237500X0.287500X-0.237500X-0.287500X0.237500X-0.287500X0.237500X0.287500X0*%
%ADD40R,1.700000X1.700000*%
%ADD41C,1.700000*%
%ADD42RoundRect,0.125000X-0.125000X0.487500X-0.125000X-0.487500X0.125000X-0.487500X0.125000X0.487500X0*%
%ADD43RoundRect,0.250000X-0.250000X-0.475000X0.250000X-0.475000X0.250000X0.475000X-0.250000X0.475000X0*%
%ADD44RoundRect,0.237500X-0.237500X0.250000X-0.237500X-0.250000X0.237500X-0.250000X0.237500X0.250000X0*%
%ADD45RoundRect,0.237500X0.250000X0.237500X-0.250000X0.237500X-0.250000X-0.237500X0.250000X-0.237500X0*%
%ADD46RoundRect,0.237500X-0.250000X-0.237500X0.250000X-0.237500X0.250000X0.237500X-0.250000X0.237500X0*%
%ADD47O,3.500000X2.200000*%
%ADD48R,2.500000X1.500000*%
%ADD49O,2.500000X1.500000*%
%ADD50RoundRect,0.237500X-0.300000X-0.237500X0.300000X-0.237500X0.300000X0.237500X-0.300000X0.237500X0*%
%ADD51RoundRect,0.250001X1.074999X-0.462499X1.074999X0.462499X-1.074999X0.462499X-1.074999X-0.462499X0*%
%ADD52RoundRect,0.250001X0.624999X-0.462499X0.624999X0.462499X-0.624999X0.462499X-0.624999X-0.462499X0*%
%ADD53RoundRect,0.250000X-1.075000X0.400000X-1.075000X-0.400000X1.075000X-0.400000X1.075000X0.400000X0*%
%ADD54RoundRect,0.075000X-0.075000X0.312500X-0.075000X-0.312500X0.075000X-0.312500X0.075000X0.312500X0*%
%ADD55RoundRect,0.075000X-0.312500X0.075000X-0.312500X-0.075000X0.312500X-0.075000X0.312500X0.075000X0*%
%ADD56R,1.800000X1.800000*%
%ADD57RoundRect,0.237500X0.237500X-0.250000X0.237500X0.250000X-0.237500X0.250000X-0.237500X-0.250000X0*%
%ADD58RoundRect,0.087500X-0.250000X-0.087500X0.250000X-0.087500X0.250000X0.087500X-0.250000X0.087500X0*%
%ADD59RoundRect,0.162500X0.162500X-0.617500X0.162500X0.617500X-0.162500X0.617500X-0.162500X-0.617500X0*%
G04 APERTURE END LIST*
D10*
X32950000Y-37300000D02*
X30680000Y-37300000D01*
X29650000Y-36270000D01*
X29650000Y-34500000D01*
X32950000Y-34500000D01*
X32950000Y-37300000D01*
G36*
X32950000Y-37300000D02*
G01*
X30680000Y-37300000D01*
X29650000Y-36270000D01*
X29650000Y-34500000D01*
X32950000Y-34500000D01*
X32950000Y-37300000D01*
G37*
D11*
X29825000Y-18200000D03*
X31575000Y-18200000D03*
X29825000Y-23000000D03*
X31575000Y-23000000D03*
D12*
X20574000Y-26670000D03*
X17449000Y-26670000D03*
D13*
X22352000Y-26670000D03*
X22352000Y-24920000D03*
X24130000Y-26670000D03*
X24130000Y-24920000D03*
D14*
X43175000Y-19100000D03*
X41425000Y-19100000D03*
D11*
X49125000Y-32000000D03*
X50875000Y-32000000D03*
D15*
X43800000Y-50860000D03*
X44450000Y-50860000D03*
X45100000Y-50860000D03*
X45100000Y-48200000D03*
X43800000Y-48200000D03*
D16*
X48768000Y-55626000D03*
X16300000Y-55600000D03*
D17*
X29800000Y-16450000D03*
D18*
X28325000Y-14925000D03*
X31275000Y-14925000D03*
D19*
X45832000Y-30734000D03*
X47132000Y-30734000D03*
D13*
X29800000Y-21475000D03*
X29800000Y-19725000D03*
D14*
X50875000Y-29900000D03*
X49125000Y-29900000D03*
D20*
X41650000Y-20850000D03*
X41650000Y-21800000D03*
X41650000Y-22750000D03*
X44350000Y-22750000D03*
X44350000Y-21800000D03*
X44350000Y-20850000D03*
D21*
X28650000Y-40850000D03*
X29750000Y-40850000D03*
X30850000Y-40850000D03*
X31950000Y-40850000D03*
X33050000Y-40850000D03*
X34150000Y-40850000D03*
X35250000Y-40850000D03*
X36350000Y-40850000D03*
X37450000Y-40850000D03*
X38550000Y-40850000D03*
X39650000Y-40850000D03*
X40750000Y-40850000D03*
D22*
X43500000Y-37400000D03*
X43500000Y-36300000D03*
X43500000Y-35200000D03*
X43500000Y-34100000D03*
X43500000Y-33000000D03*
X43500000Y-31900000D03*
X43500000Y-30800000D03*
X43500000Y-29700000D03*
X43500000Y-28600000D03*
D21*
X40750000Y-25150000D03*
X39650000Y-25150000D03*
X38550000Y-25150000D03*
X37450000Y-25150000D03*
X36350000Y-25150000D03*
X35250000Y-25150000D03*
X34150000Y-25150000D03*
X33050000Y-25150000D03*
X31950000Y-25150000D03*
X30850000Y-25150000D03*
X29750000Y-25150000D03*
X28650000Y-25150000D03*
D22*
X25900000Y-28600000D03*
X25900000Y-29700000D03*
X25900000Y-30800000D03*
X25900000Y-31900000D03*
X25900000Y-33000000D03*
X25900000Y-34100000D03*
X25900000Y-35200000D03*
X25900000Y-36300000D03*
X25900000Y-37400000D03*
D23*
X29800000Y-38350000D03*
X31200000Y-38350000D03*
X32600000Y-38350000D03*
X34000000Y-38350000D03*
X35400000Y-38350000D03*
X36800000Y-38350000D03*
X38200000Y-38350000D03*
X39600000Y-38350000D03*
D24*
X41000000Y-37200000D03*
X41000000Y-35800000D03*
X41000000Y-34400000D03*
X41000000Y-33000000D03*
X41000000Y-31600000D03*
X41000000Y-30200000D03*
X41000000Y-28800000D03*
D23*
X39600000Y-27650000D03*
X38200000Y-27650000D03*
X36800000Y-27650000D03*
X35400000Y-27650000D03*
X34000000Y-27650000D03*
D24*
X28400000Y-30200000D03*
X28400000Y-31600000D03*
X28400000Y-33000000D03*
X28400000Y-34400000D03*
X28400000Y-35800000D03*
X28400000Y-37200000D03*
D25*
X34700000Y-35900000D03*
X38100000Y-35900000D03*
X38100000Y-33000000D03*
X38100000Y-30100000D03*
X34700000Y-30100000D03*
X31300000Y-30100000D03*
X31300000Y-33000000D03*
X34700000Y-33000000D03*
D26*
X46195000Y-39958200D03*
X47465000Y-39958200D03*
X48735000Y-39958200D03*
X50005000Y-39958200D03*
X50005000Y-34273400D03*
X48735000Y-34273400D03*
X47465000Y-34273400D03*
X46195000Y-34273400D03*
D27*
X48100000Y-37115800D03*
D16*
X16300000Y-17018000D03*
D28*
X47570000Y-26638000D03*
X47570000Y-22638000D03*
D29*
X47245000Y-25938000D03*
X47245000Y-25288000D03*
X47245000Y-24638000D03*
X47245000Y-23988000D03*
X47245000Y-23338000D03*
D30*
X47370000Y-27738000D03*
D31*
X49920000Y-27463000D03*
D32*
X49920000Y-25838000D03*
X49920000Y-23438000D03*
D33*
X49920000Y-21813000D03*
D34*
X47370000Y-21538000D03*
D35*
X21221500Y-33020000D03*
X14806500Y-33020000D03*
D36*
X35560000Y-46328500D03*
X35560000Y-44603500D03*
D37*
X46550000Y-45337500D03*
X47850000Y-45337500D03*
X47200000Y-43462500D03*
D35*
X21241500Y-38354000D03*
X14826500Y-38354000D03*
D38*
X28649000Y-47828000D03*
X26924000Y-47828000D03*
D39*
X50900000Y-43725000D03*
X50900000Y-45475000D03*
D38*
X33374500Y-48768000D03*
X31649500Y-48768000D03*
D40*
X36360000Y-56600000D03*
D41*
X33820000Y-56600000D03*
X31280000Y-56600000D03*
X28740000Y-56600000D03*
D42*
X24780000Y-39527000D03*
X23480000Y-39527000D03*
X24130000Y-41402000D03*
D37*
X46450000Y-51137500D03*
X47750000Y-51137500D03*
X47100000Y-49262500D03*
D43*
X24196000Y-50038000D03*
X26096000Y-50038000D03*
D44*
X49276000Y-49379500D03*
X49276000Y-51204500D03*
D45*
X33424500Y-47244000D03*
X31599500Y-47244000D03*
D46*
X39624000Y-50292000D03*
X41449000Y-50292000D03*
D45*
X33424500Y-45720000D03*
X31599500Y-45720000D03*
D47*
X17018000Y-42636000D03*
X17018000Y-50836000D03*
D48*
X17018000Y-44736000D03*
D49*
X17018000Y-46736000D03*
X17018000Y-48736000D03*
D50*
X26924000Y-44628000D03*
X28649000Y-44628000D03*
D12*
X20612500Y-29210000D03*
X17487500Y-29210000D03*
D51*
X21590000Y-47715500D03*
X21590000Y-44740500D03*
D43*
X20640000Y-42418000D03*
X22540000Y-42418000D03*
D16*
X48768000Y-17018000D03*
D39*
X51054000Y-49417000D03*
X51054000Y-51167000D03*
D52*
X25654000Y-55843500D03*
X25654000Y-52868500D03*
D38*
X28649000Y-46228000D03*
X26924000Y-46228000D03*
D53*
X21590000Y-49758000D03*
X21590000Y-52858000D03*
D54*
X37326000Y-48042500D03*
X36826000Y-48042500D03*
X36326000Y-48042500D03*
X35826000Y-48042500D03*
D55*
X35088500Y-48780000D03*
X35088500Y-49280000D03*
X35088500Y-49780000D03*
X35088500Y-50280000D03*
D54*
X35826000Y-51017500D03*
X36326000Y-51017500D03*
X36826000Y-51017500D03*
X37326000Y-51017500D03*
D55*
X38063500Y-50280000D03*
X38063500Y-49780000D03*
X38063500Y-49280000D03*
X38063500Y-48780000D03*
D56*
X36576000Y-49530000D03*
D57*
X49300000Y-45512500D03*
X49300000Y-43687500D03*
D58*
X23925500Y-47252000D03*
X23925500Y-47752000D03*
X23925500Y-48252000D03*
X25350500Y-48252000D03*
X25350500Y-47752000D03*
X25350500Y-47252000D03*
D59*
X31550000Y-53600000D03*
X32500000Y-53600000D03*
X33450000Y-53600000D03*
X33450000Y-50900000D03*
X32500000Y-50900000D03*
X31550000Y-50900000D03*
D36*
X37338000Y-46328500D03*
X37338000Y-44603500D03*
G36*
X34995039Y-13215146D02*
G01*
X35040794Y-13267950D01*
X35052000Y-13319461D01*
X35052000Y-23739461D01*
X35032315Y-23806500D01*
X34979511Y-23852255D01*
X34928000Y-23863461D01*
X32890000Y-23863461D01*
X32822961Y-23843776D01*
X32777206Y-23790972D01*
X32766000Y-23739461D01*
X32766000Y-13319461D01*
X32785685Y-13252422D01*
X32838489Y-13206667D01*
X32890000Y-13195461D01*
X34928000Y-13195461D01*
X34995039Y-13215146D01*
G37*
G36*
X27121039Y-13227685D02*
G01*
X27166794Y-13280489D01*
X27178000Y-13332000D01*
X27178000Y-16510000D01*
X28578000Y-16510000D01*
X28645039Y-16529685D01*
X28690794Y-16582489D01*
X28702000Y-16634000D01*
X28702000Y-23752000D01*
X28682315Y-23819039D01*
X28629511Y-23864794D01*
X28578000Y-23876000D01*
X25778000Y-23876000D01*
X25710961Y-23856315D01*
X25665206Y-23803511D01*
X25654000Y-23752000D01*
X25654000Y-19303999D01*
X25148953Y-17031288D01*
X25146000Y-17004389D01*
X25146000Y-13332000D01*
X25165685Y-13264961D01*
X25218489Y-13219206D01*
X25270000Y-13208000D01*
X27054000Y-13208000D01*
X27121039Y-13227685D01*
G37*
M02*
