M48
; DRILL file {KiCad 9.0.7} date 2026-02-07T20:34:03-0500
; FORMAT={-:-/ absolute / metric / decimal}
; #@! TF.CreationDate,2026-02-07T20:34:03-05:00
; #@! TF.GenerationSoftware,Kicad,Pcbnew,9.0.7
; #@! TF.FileFunction,Plated,1,4,PTH
FMAT,2
METRIC
; #@! TA.AperFunction,Plated,PTH,ViaDrill
T1C0.400
; #@! TA.AperFunction,Plated,PTH,ComponentDrill
T2C0.500
; #@! TA.AperFunction,Plated,PTH,ComponentDrill
T3C0.900
; #@! TA.AperFunction,Plated,PTH,ComponentDrill
T4C1.000
; #@! TA.AperFunction,Plated,PTH,ComponentDrill
T5C1.500
%
G90
G05
T1
X14.732Y-25.4
X14.732Y-26.67
X14.732Y-27.94
X14.732Y-29.21
X14.732Y-30.48
X14.732Y-35.56
X14.8Y-22.1
X16.256Y-35.56
X16.8Y-22.1
X17.272Y-31.242
X17.272Y-33.02
X17.272Y-34.798
X17.272Y-36.576
X17.272Y-38.354
X17.272Y-40.132
X17.512Y-58.674
X17.96Y-24.729
X18.288Y-14.1
X18.8Y-20.6
X19.812Y-36.068
X19.812Y-38.1
X19.812Y-40.132
X19.812Y-56.896
X19.812Y-58.674
X20.8Y-14.1
X20.8Y-16.5
X20.8Y-19.1
X20.8Y-22.1
X20.828Y-51.308
X20.86Y-24.866
X21.59Y-36.068
X21.59Y-40.132
X22.352Y-51.308
X22.352Y-56.896
X22.352Y-58.674
X22.86Y-23.154
X23.114Y-46.228
X23.3Y-16.6
X23.3Y-20.6
X23.368Y-13.97
X23.368Y-19.05
X23.368Y-35.306
X23.368Y-36.576
X23.65Y-30.95
X23.65Y-32.05
X23.65Y-33.15
X24.46Y-23.154
X24.638Y-42.672
X24.638Y-44.45
X24.638Y-46.228
X25.654Y-16.256
X25.8Y-14.1
X25.908Y-42.672
X26.162Y-18.034
X26.9Y-15.05
X26.924Y-19.558
X26.924Y-21.59
X26.924Y-23.368
X26.924Y-24.384
X27.149Y-40.351
X27.251Y-42.689
X27.5Y-16.95
X27.512Y-58.674
X27.94Y-53.594
X28.284Y-43.118
X28.4Y-29.05
X28.45Y-17.9
X28.5Y-19.65
X28.5Y-21.5
X28.5Y-23.4
X29.35Y-30.1
X29.552Y-45.402
X29.972Y-53.594
X30.226Y-49.276
X30.226Y-50.8
X31.05Y-19.65
X31.05Y-21.4
X31.3Y-30.1
X31.3Y-31.5
X31.3Y-33.0
X31.3Y-35.9
X31.593Y-43.118
X32.1Y-16.95
X32.512Y-20.574
X32.512Y-58.674
X32.65Y-14.95
X33.0Y-30.1
X33.0Y-33.0
X33.15Y-23.01
X33.5Y-35.9
X33.782Y-16.51
X33.782Y-18.034
X33.782Y-19.558
X33.782Y-21.59
X33.8Y-14.1
X34.345Y-44.395
X34.7Y-31.5
X34.7Y-33.0
X34.7Y-34.4
X34.7Y-35.9
X34.75Y-30.2
X35.194Y-52.481
X35.229Y-51.03
X35.26Y-23.11
X35.306Y-42.101
X36.3Y-16.6
X36.3Y-21.1
X36.322Y-13.97
X36.322Y-19.05
X36.322Y-42.101
X36.326Y-46.99
X36.399Y-49.53
X36.4Y-30.1
X36.4Y-33.0
X36.4Y-35.9
X37.3Y-22.85
X37.512Y-58.674
X38.0Y-30.15
X38.1Y-31.5
X38.1Y-33.0
X38.1Y-34.4
X38.1Y-35.9
X38.8Y-19.1
X39.116Y-13.97
X39.116Y-16.5
X39.2Y-44.948
X39.37Y-42.672
X40.0Y-44.196
X40.1Y-21.8
X40.1Y-22.85
X41.402Y-27.178
X41.656Y-13.97
X41.656Y-16.51
X42.128Y-30.811
X42.4Y-34.1
X42.418Y-55.626
X42.512Y-58.674
X42.672Y-48.05
X42.926Y-27.178
X42.926Y-39.37
X42.955Y-45.945
X44.196Y-39.37
X44.196Y-40.64
X44.196Y-41.91
X44.196Y-43.18
X44.3Y-48.391
X44.45Y-13.97
X44.45Y-27.178
X44.45Y-53.848
X45.187Y-46.038
X45.2Y-32.1
X45.466Y-40.64
X45.466Y-41.91
X45.466Y-43.18
X45.65Y-19.8
X45.9Y-28.6
X45.974Y-27.178
X45.974Y-55.626
X45.974Y-58.674
X46.228Y-52.578
X46.998Y-34.763
X47.244Y-13.97
X47.697Y-42.203
X48.1Y-37.116
X48.178Y-33.501
X48.26Y-48.05
X48.7Y-23.4
X48.701Y-42.2
X49.4Y-41.439
X49.846Y-45.95
X50.038Y-48.05
X50.8Y-42.4
X50.9Y-31.0
X51.353Y-24.638
T3
X17.018Y-44.736
X17.018Y-46.736
X17.018Y-48.736
T4
X28.74Y-56.6
X31.28Y-56.6
X33.82Y-56.6
X36.36Y-56.6
T5
X17.018Y-42.636
X17.018Y-50.836
T2
G00X49.57Y-21.813
M15
G01X50.27Y-21.813
M16
G05
G00X49.57Y-27.463
M15
G01X50.27Y-27.463
M16
G05
M30
