%TF.GenerationSoftware,KiCad,Pcbnew,9.0.7*%
%TF.CreationDate,2026-02-07T20:34:06-05:00*%
%TF.ProjectId,USB-Cellular-Modem,5553422d-4365-46c6-9c75-6c61722d4d6f,V1.2*%
%TF.SameCoordinates,Original*%
%TF.FileFunction,Copper,L4,Bot*%
%TF.FilePolarity,Positive*%
%FSLAX46Y46*%
G04 Gerber Fmt 4.6, Leading zero omitted, Abs format (unit mm)*
G04 Created by KiCad (PCBNEW 9.0.7) date 2026-02-07 20:34:06*
%MOMM*%
%LPD*%
G01*
G04 APERTURE LIST*
G04 Aperture macros list*
%AMRoundRect*
0 Rectangle with rounded corners*
0 $1 Rounding radius*
0 $2 $3 $4 $5 $6 $7 $8 $9 X,Y pos of 4 corners*
0 Add a 4 corners polygon primitive as box body*
4,1,4,$2,$3,$4,$5,$6,$7,$8,$9,$2,$3,0*
0 Add four circle primitives for the rounded corners*
1,1,$1+$1,$2,$3*
1,1,$1+$1,$4,$5*
1,1,$1+$1,$6,$7*
1,1,$1+$1,$8,$9*
0 Add four rect primitives between the rounded corners*
20,1,$1+$1,$2,$3,$4,$5,0*
20,1,$1+$1,$4,$5,$6,$7,0*
20,1,$1+$1,$6,$7,$8,$9,0*
20,1,$1+$1,$8,$9,$2,$3,0*%
G04 Aperture macros list end*
%TA.AperFunction,HeatsinkPad*%
%ADD10O,1.700000X1.000000*%
%TD*%
%TA.AperFunction,HeatsinkPad*%
%ADD11O,1.700000X0.850000*%
%TD*%
%TA.AperFunction,ComponentPad*%
%ADD12R,1.700000X1.700000*%
%TD*%
%TA.AperFunction,ComponentPad*%
%ADD13C,1.700000*%
%TD*%
%TA.AperFunction,ComponentPad*%
%ADD14O,3.500000X2.200000*%
%TD*%
%TA.AperFunction,ComponentPad*%
%ADD15R,2.500000X1.500000*%
%TD*%
%TA.AperFunction,ComponentPad*%
%ADD16O,2.500000X1.500000*%
%TD*%
%TA.AperFunction,SMDPad,CuDef*%
%ADD17RoundRect,0.225000X-0.375000X0.225000X-0.375000X-0.225000X0.375000X-0.225000X0.375000X0.225000X0*%
%TD*%
%TA.AperFunction,SMDPad,CuDef*%
%ADD18RoundRect,0.250000X-0.650000X0.400000X-0.650000X-0.400000X0.650000X-0.400000X0.650000X0.400000X0*%
%TD*%
%TA.AperFunction,ViaPad*%
%ADD19C,0.800000*%
%TD*%
%TA.AperFunction,Conductor*%
%ADD20C,0.200000*%
%TD*%
%TA.AperFunction,Conductor*%
%ADD21C,0.250000*%
%TD*%
G04 APERTURE END LIST*
D10*
X49920000Y-27463000D03*
D11*
X49920000Y-21813000D03*
D12*
X36360000Y-56600000D03*
D13*
X33820000Y-56600000D03*
X31280000Y-56600000D03*
X28740000Y-56600000D03*
D14*
X17018000Y-42636000D03*
X17018000Y-50836000D03*
D15*
X17018000Y-44736000D03*
D16*
X17018000Y-46736000D03*
X17018000Y-48736000D03*
D17*
X38000000Y-43825000D03*
X38000000Y-46365000D03*
X38000000Y-48905000D03*
X38000000Y-45095000D03*
X38000000Y-47635000D03*
X38000000Y-50175000D03*
D18*
X50900000Y-41150000D03*
X42100000Y-41150000D03*
X50900000Y-52850000D03*
X42100000Y-52850000D03*
D19*
X48260000Y-48050000D03*
X42418000Y-55626000D03*
X20828000Y-51308000D03*
X20800000Y-22100000D03*
X14732000Y-30480000D03*
X19812000Y-56896000D03*
X19812000Y-58674000D03*
X28400000Y-29050000D03*
X35260000Y-23110000D03*
X42926000Y-39370000D03*
X34345042Y-44394958D03*
X17272000Y-40132000D03*
X23650000Y-33150000D03*
X29972000Y-53594000D03*
X38100000Y-34400000D03*
X36322000Y-19050000D03*
X45466000Y-40640000D03*
X46228000Y-52578000D03*
X28450000Y-17900000D03*
X17960000Y-24729000D03*
X23114000Y-46228000D03*
X20800000Y-16500000D03*
X29551678Y-45402317D03*
X24638000Y-42672000D03*
X17272000Y-34798000D03*
X44196000Y-41910000D03*
X47244000Y-13970000D03*
X17272000Y-31242000D03*
X22860000Y-23154000D03*
X23368000Y-13970000D03*
X23650000Y-30950000D03*
X17272000Y-38354000D03*
X14732000Y-35560000D03*
X51353151Y-24638087D03*
X23368000Y-35306000D03*
X22352000Y-51308000D03*
X45466000Y-41910000D03*
X36400000Y-35900000D03*
X41656000Y-13970000D03*
X45974000Y-27178000D03*
X24460000Y-23154000D03*
X16256000Y-35560000D03*
X44196000Y-40640000D03*
X34750000Y-30200000D03*
X32100000Y-16950000D03*
X17512000Y-58674000D03*
X33800000Y-14100000D03*
X44450000Y-27178000D03*
X14800000Y-22100000D03*
X42926000Y-27178000D03*
X25654000Y-16256000D03*
X18288000Y-14100000D03*
X33150000Y-23010000D03*
X23368000Y-19050000D03*
X14732000Y-26670000D03*
X26924000Y-19558000D03*
X44196000Y-43180000D03*
X37512000Y-58674000D03*
X31300000Y-33000000D03*
X48100000Y-37115800D03*
X23650000Y-32050000D03*
X50900000Y-31000000D03*
X45466000Y-43180000D03*
X45974000Y-55626000D03*
X23300000Y-20600000D03*
X38100000Y-31500000D03*
X24638000Y-44450000D03*
X26924000Y-24384000D03*
X16800000Y-22100000D03*
X26162000Y-18034000D03*
X17272000Y-36576000D03*
X30226000Y-50800000D03*
X45974000Y-58674000D03*
X32650000Y-14950000D03*
X36322000Y-13970000D03*
X32512000Y-58674000D03*
X17272000Y-33020000D03*
X23300000Y-16600000D03*
X44450000Y-53848000D03*
X31050000Y-19650000D03*
X29350000Y-30100000D03*
X27512000Y-58674000D03*
X26900000Y-15050000D03*
X34700000Y-34400000D03*
X23368000Y-36576000D03*
X28500000Y-21500000D03*
X36322000Y-42100997D03*
X41402000Y-27178000D03*
X31050000Y-21400000D03*
X33782000Y-16510000D03*
X26924000Y-23368000D03*
X36300000Y-16600000D03*
X42512000Y-58674000D03*
X38000000Y-30150000D03*
X36300000Y-21100000D03*
X39116000Y-13970000D03*
X45650000Y-19800000D03*
X20800000Y-19100000D03*
X26924000Y-21590000D03*
X34700000Y-33000000D03*
X33000000Y-33000000D03*
X25908000Y-42672000D03*
X24638000Y-46228000D03*
X38100000Y-33000000D03*
X36400000Y-30100000D03*
X44196000Y-39370000D03*
X36400000Y-33000000D03*
X33782000Y-18034000D03*
X22352000Y-56896000D03*
X25800000Y-14100000D03*
X36399000Y-49530000D03*
X39116000Y-16500000D03*
X22352000Y-58674000D03*
X38800000Y-19100000D03*
X33500000Y-35900000D03*
X40100000Y-21800000D03*
X31300000Y-35900000D03*
X45900000Y-28600000D03*
X28500000Y-19650000D03*
X30226000Y-49276000D03*
X38100000Y-35900000D03*
X41656000Y-16510000D03*
X50038000Y-48050000D03*
X34700000Y-31500000D03*
X28500000Y-23400000D03*
X14732000Y-25400000D03*
X42128089Y-30810673D03*
X31300000Y-30100000D03*
X32512000Y-20574000D03*
X34700000Y-35900000D03*
X33782000Y-21590000D03*
X20860000Y-24866500D03*
X33782000Y-19558000D03*
X44450000Y-13970000D03*
X20800000Y-14100000D03*
X27940000Y-53594000D03*
X18800000Y-20600000D03*
X14732000Y-27940000D03*
X48700000Y-23400000D03*
X31300000Y-31500000D03*
X14732000Y-29210000D03*
X27500000Y-16950000D03*
X33000000Y-30100000D03*
X31593025Y-43118000D03*
X27149000Y-40351000D03*
X45200000Y-32100000D03*
X28283969Y-43118000D03*
X44299998Y-48391180D03*
X50800000Y-42400000D03*
X46997578Y-34763198D03*
X47697087Y-42203063D03*
X42955025Y-45944975D03*
X42672000Y-48050000D03*
X49400000Y-41439000D03*
X48177647Y-33501000D03*
X45187196Y-46037500D03*
X48701000Y-42200000D03*
X42400000Y-34100000D03*
X40100000Y-22850000D03*
X37300000Y-22850000D03*
X40000000Y-44196000D03*
X39370000Y-42672000D03*
X35306000Y-42100997D03*
X39200000Y-44947723D03*
X49845889Y-45950000D03*
X19812000Y-36068000D03*
X21590000Y-36068000D03*
X19812000Y-38100000D03*
X21590000Y-40132000D03*
X19812000Y-40132000D03*
X35228969Y-51030000D03*
X36326000Y-46990000D03*
X35194080Y-52481000D03*
X27250771Y-42688801D03*
D20*
X38000000Y-45095000D02*
X38080110Y-45095000D01*
X38650110Y-45665000D02*
X40725000Y-45665000D01*
X38080110Y-45095000D02*
X38650110Y-45665000D01*
X43408636Y-32100000D02*
X45200000Y-32100000D01*
X27149000Y-40351000D02*
X40649000Y-40351000D01*
X31593025Y-43118000D02*
X28283969Y-43118000D01*
X40649000Y-40351000D02*
X41150000Y-39850000D01*
X41150000Y-39850000D02*
X41150000Y-34358636D01*
X41150000Y-34358636D02*
X43408636Y-32100000D01*
X37400000Y-43825000D02*
X37099000Y-44126000D01*
X37099000Y-44126000D02*
X37099000Y-50624110D01*
X37400890Y-50926000D02*
X38736000Y-50926000D01*
X37099000Y-50624110D02*
X37400890Y-50926000D01*
X38000000Y-43825000D02*
X37400000Y-43825000D01*
X38736000Y-50926000D02*
X40862000Y-48800000D01*
X44400000Y-48800000D02*
X50800000Y-42400000D01*
X40862000Y-48800000D02*
X44400000Y-48800000D01*
X42926000Y-46365000D02*
X43635000Y-46365000D01*
X50313198Y-34763198D02*
X46997578Y-34763198D01*
X47697087Y-42150549D02*
X49697636Y-40150000D01*
X42824459Y-46075541D02*
X42824459Y-46263459D01*
X42955025Y-45944975D02*
X42824459Y-46075541D01*
X51100000Y-39500000D02*
X51100000Y-35550000D01*
X50450000Y-40150000D02*
X51100000Y-39500000D01*
X47697087Y-42203063D02*
X47697087Y-42150549D01*
X51100000Y-35550000D02*
X50313198Y-34763198D01*
X49697636Y-40150000D02*
X50450000Y-40150000D01*
X47697087Y-42302913D02*
X47697087Y-42203063D01*
X42824459Y-46263459D02*
X42926000Y-46365000D01*
X38000000Y-46365000D02*
X42926000Y-46365000D01*
X43635000Y-46365000D02*
X47697087Y-42302913D01*
D21*
X49400000Y-41439000D02*
X49426000Y-41465000D01*
D20*
X42672000Y-47244000D02*
X45006000Y-47244000D01*
X38600000Y-50175000D02*
X41531000Y-47244000D01*
D21*
X49426000Y-42824000D02*
X45006000Y-47244000D01*
D20*
X38000000Y-50175000D02*
X38600000Y-50175000D01*
X41531000Y-47244000D02*
X42672000Y-47244000D01*
D21*
X49426000Y-41465000D02*
X49426000Y-42824000D01*
D20*
X42672000Y-48050000D02*
X42672000Y-47244000D01*
X38600000Y-48905000D02*
X40739000Y-46766000D01*
D21*
X48701000Y-42200000D02*
X48701000Y-42499000D01*
X48177648Y-33501000D02*
X42999000Y-33501000D01*
X48701000Y-42499000D02*
X44434000Y-46766000D01*
X42999000Y-33501000D02*
X42400000Y-34100000D01*
D20*
X40739000Y-46766000D02*
X44434000Y-46766000D01*
X38000000Y-48905000D02*
X38600000Y-48905000D01*
X37300000Y-22850000D02*
X40100000Y-22850000D01*
D21*
X40000000Y-44196000D02*
X40000000Y-43302000D01*
X40000000Y-43302000D02*
X39370000Y-42672000D01*
D20*
X39236682Y-44947723D02*
X39287405Y-44897000D01*
X39200000Y-44947723D02*
X39272231Y-44875492D01*
X38327107Y-42801997D02*
X36007000Y-42801997D01*
X39272231Y-44875492D02*
X39272231Y-43747121D01*
X36007000Y-42801997D02*
X35306000Y-42100997D01*
X39272231Y-43747121D02*
X38327107Y-42801997D01*
X39200000Y-44947723D02*
X39236682Y-44947723D01*
D21*
X36061280Y-46228000D02*
X36068000Y-46228000D01*
X34502969Y-51330720D02*
X34502969Y-47786311D01*
X49845889Y-45950000D02*
X47852454Y-45950000D01*
X36068000Y-46228000D02*
X36576000Y-45720000D01*
X35560000Y-43434000D02*
X34000000Y-41874000D01*
X44502454Y-49300000D02*
X41250000Y-49300000D01*
X38794000Y-51756000D02*
X34928249Y-51756000D01*
X47852454Y-45950000D02*
X44502454Y-49300000D01*
X36576000Y-43688000D02*
X36322000Y-43434000D01*
X21300000Y-41874000D02*
X20828000Y-41402000D01*
X36576000Y-45720000D02*
X36576000Y-43688000D01*
X34928249Y-51756000D02*
X34502969Y-51330720D01*
X20828000Y-41402000D02*
X20828000Y-40386000D01*
X34000000Y-41874000D02*
X21300000Y-41874000D01*
X41250000Y-49300000D02*
X38794000Y-51756000D01*
X36322000Y-43434000D02*
X35560000Y-43434000D01*
X34502969Y-47786311D02*
X36061280Y-46228000D01*
D20*
X35228969Y-47662765D02*
X35901734Y-46990000D01*
X35901734Y-46990000D02*
X36326000Y-46990000D01*
X35228969Y-51030000D02*
X35228969Y-47662765D01*
X27267748Y-42671824D02*
X27612114Y-42671824D01*
X35050795Y-52481000D02*
X34076969Y-51507174D01*
X33782000Y-42418000D02*
X34798000Y-43434000D01*
X27865938Y-42418000D02*
X33782000Y-42418000D01*
X27250771Y-42688801D02*
X27267748Y-42671824D01*
X34076969Y-47457031D02*
X35814000Y-45720000D01*
X27612114Y-42671824D02*
X27865938Y-42418000D01*
X35814000Y-45720000D02*
X35814000Y-44450000D01*
X34076969Y-51507174D02*
X34076969Y-47457031D01*
X35194080Y-52481000D02*
X35050795Y-52481000D01*
X35814000Y-44450000D02*
X34798000Y-43434000D01*
X34798000Y-43434000D02*
X34544000Y-43180000D01*
%TA.AperFunction,Conductor*%
G36*
X29943039Y-54819685D02*
G01*
X29988794Y-54872489D01*
X30000000Y-54924000D01*
X30000000Y-56123596D01*
X29993931Y-56161914D01*
X29954951Y-56281882D01*
X29921500Y-56493084D01*
X29921500Y-56706915D01*
X29954951Y-56918117D01*
X29993931Y-57038085D01*
X30000000Y-57076403D01*
X30000000Y-57676000D01*
X29980315Y-57743039D01*
X29927511Y-57788794D01*
X29876000Y-57800000D01*
X27787135Y-57800000D01*
X27762944Y-57797617D01*
X27601482Y-57765500D01*
X27601479Y-57765500D01*
X27422521Y-57765500D01*
X27422517Y-57765500D01*
X27261056Y-57797617D01*
X27236865Y-57800000D01*
X23748000Y-57800000D01*
X23680961Y-57780315D01*
X23635206Y-57727511D01*
X23624000Y-57676000D01*
X23624000Y-54924000D01*
X23643685Y-54856961D01*
X23696489Y-54811206D01*
X23748000Y-54800000D01*
X29876000Y-54800000D01*
X29943039Y-54819685D01*
G37*
%TD.AperFunction*%
%TA.AperFunction,Conductor*%
G36*
X47802898Y-13150634D02*
G01*
X48158595Y-13167079D01*
X48170183Y-13168153D01*
X48266614Y-13181604D01*
X48519967Y-13216945D01*
X48531378Y-13219079D01*
X48875164Y-13299937D01*
X48886354Y-13303121D01*
X49055922Y-13359954D01*
X49221203Y-13415350D01*
X49232041Y-13419549D01*
X49555124Y-13562204D01*
X49565515Y-13567377D01*
X49874066Y-13739238D01*
X49883943Y-13745354D01*
X50175310Y-13944946D01*
X50184576Y-13951944D01*
X50456286Y-14177568D01*
X50464886Y-14185409D01*
X50714590Y-14435113D01*
X50722431Y-14443713D01*
X50948053Y-14715420D01*
X50955061Y-14724700D01*
X51154639Y-15016047D01*
X51160766Y-15025942D01*
X51332615Y-15334471D01*
X51337799Y-15344884D01*
X51421637Y-15534757D01*
X51480446Y-15667947D01*
X51484650Y-15678800D01*
X51596878Y-16013645D01*
X51600063Y-16024838D01*
X51680917Y-16368605D01*
X51683056Y-16380046D01*
X51731846Y-16729816D01*
X51732920Y-16741403D01*
X51749366Y-17097100D01*
X51749500Y-17102869D01*
X51749500Y-17116408D01*
X51749505Y-17116415D01*
X51749512Y-17135056D01*
X51749513Y-17135057D01*
X51757000Y-35042207D01*
X51737026Y-35110336D01*
X51683390Y-35156852D01*
X51613120Y-35166985D01*
X51548527Y-35137519D01*
X51541905Y-35131355D01*
X51469244Y-35058694D01*
X51469221Y-35058673D01*
X50686827Y-34276278D01*
X50686821Y-34276273D01*
X50548075Y-34196168D01*
X50548072Y-34196167D01*
X50548071Y-34196166D01*
X50548069Y-34196165D01*
X50548068Y-34196165D01*
X50470689Y-34175432D01*
X50461646Y-34173009D01*
X50393309Y-34154698D01*
X50393307Y-34154698D01*
X49069233Y-34154698D01*
X49001112Y-34134696D01*
X48954619Y-34081040D01*
X48944515Y-34010766D01*
X48964467Y-33958697D01*
X48982749Y-33931336D01*
X49051234Y-33766000D01*
X49086147Y-33590479D01*
X49086147Y-33411521D01*
X49051234Y-33236000D01*
X48982749Y-33070664D01*
X48883325Y-32921865D01*
X48756782Y-32795322D01*
X48607983Y-32695898D01*
X48491076Y-32647473D01*
X48442650Y-32627414D01*
X48442648Y-32627413D01*
X48442647Y-32627413D01*
X48354292Y-32609838D01*
X48267128Y-32592500D01*
X48267126Y-32592500D01*
X48088168Y-32592500D01*
X48088165Y-32592500D01*
X47957418Y-32618507D01*
X47912647Y-32627413D01*
X47912646Y-32627413D01*
X47912643Y-32627414D01*
X47747309Y-32695899D01*
X47598516Y-32795319D01*
X47598509Y-32795324D01*
X47563239Y-32830595D01*
X47500927Y-32864621D01*
X47474144Y-32867500D01*
X46015546Y-32867500D01*
X45947425Y-32847498D01*
X45900932Y-32793842D01*
X45890828Y-32723568D01*
X45910781Y-32671498D01*
X45919509Y-32658435D01*
X46005102Y-32530336D01*
X46073587Y-32365000D01*
X46108500Y-32189479D01*
X46108500Y-32010521D01*
X46073587Y-31835000D01*
X46005102Y-31669664D01*
X45905678Y-31520865D01*
X45779135Y-31394322D01*
X45630336Y-31294898D01*
X45513429Y-31246473D01*
X45465003Y-31226414D01*
X45465001Y-31226413D01*
X45465000Y-31226413D01*
X45376645Y-31208838D01*
X45289481Y-31191500D01*
X45289479Y-31191500D01*
X45110521Y-31191500D01*
X45110518Y-31191500D01*
X44979771Y-31217507D01*
X44935000Y-31226413D01*
X44934999Y-31226413D01*
X44934996Y-31226414D01*
X44769662Y-31294899D01*
X44620869Y-31394319D01*
X44620862Y-31394324D01*
X44560592Y-31454595D01*
X44498280Y-31488621D01*
X44471497Y-31491500D01*
X43328525Y-31491500D01*
X43218933Y-31520865D01*
X43218932Y-31520864D01*
X43173771Y-31532965D01*
X43173759Y-31532970D01*
X43035012Y-31613075D01*
X43035002Y-31613083D01*
X40663083Y-33985002D01*
X40663075Y-33985012D01*
X40582967Y-34123763D01*
X40582968Y-34123764D01*
X40542104Y-34276273D01*
X40541500Y-34278526D01*
X40541500Y-39545761D01*
X40532716Y-39575676D01*
X40526088Y-39606146D01*
X40522273Y-39611241D01*
X40521498Y-39613882D01*
X40504595Y-39634856D01*
X40433856Y-39705595D01*
X40371544Y-39739621D01*
X40344761Y-39742500D01*
X27877503Y-39742500D01*
X27809382Y-39722498D01*
X27788408Y-39705595D01*
X27728137Y-39645324D01*
X27728135Y-39645322D01*
X27579336Y-39545898D01*
X27462429Y-39497473D01*
X27414003Y-39477414D01*
X27414001Y-39477413D01*
X27414000Y-39477413D01*
X27325645Y-39459838D01*
X27238481Y-39442500D01*
X27238479Y-39442500D01*
X27059521Y-39442500D01*
X27059518Y-39442500D01*
X26928771Y-39468507D01*
X26884000Y-39477413D01*
X26883999Y-39477413D01*
X26883996Y-39477414D01*
X26718662Y-39545899D01*
X26569869Y-39645319D01*
X26569862Y-39645324D01*
X26443324Y-39771862D01*
X26443319Y-39771869D01*
X26343899Y-39920662D01*
X26275414Y-40085996D01*
X26240500Y-40261518D01*
X26240500Y-40440481D01*
X26275414Y-40616003D01*
X26292326Y-40656832D01*
X26343898Y-40781336D01*
X26443322Y-40930135D01*
X26443324Y-40930137D01*
X26538592Y-41025405D01*
X26572618Y-41087717D01*
X26567553Y-41158532D01*
X26525006Y-41215368D01*
X26458486Y-41240179D01*
X26449497Y-41240500D01*
X22483500Y-41240500D01*
X22415379Y-41220498D01*
X22368886Y-41166842D01*
X22357500Y-41114500D01*
X22357500Y-40656832D01*
X22377502Y-40588711D01*
X22378736Y-40586829D01*
X22395102Y-40562336D01*
X22463587Y-40397000D01*
X22498500Y-40221479D01*
X22498500Y-40042521D01*
X22463587Y-39867000D01*
X22395102Y-39701664D01*
X22378732Y-39677165D01*
X22357520Y-39609413D01*
X22357500Y-39607166D01*
X22357500Y-36592832D01*
X22377502Y-36524711D01*
X22378736Y-36522829D01*
X22395102Y-36498336D01*
X22463587Y-36333000D01*
X22498500Y-36157479D01*
X22498500Y-35978521D01*
X22463587Y-35803000D01*
X22395102Y-35637664D01*
X22295678Y-35488865D01*
X22169135Y-35362322D01*
X22020336Y-35262898D01*
X21903429Y-35214473D01*
X21855003Y-35194414D01*
X21855001Y-35194413D01*
X21855000Y-35194413D01*
X21764301Y-35176372D01*
X21679481Y-35159500D01*
X21679479Y-35159500D01*
X21500521Y-35159500D01*
X21500518Y-35159500D01*
X21369771Y-35185507D01*
X21325000Y-35194413D01*
X21324999Y-35194413D01*
X21324996Y-35194414D01*
X21159660Y-35262899D01*
X21159659Y-35262900D01*
X21135168Y-35279265D01*
X21067416Y-35300480D01*
X21065167Y-35300500D01*
X20336833Y-35300500D01*
X20268712Y-35280498D01*
X20266832Y-35279265D01*
X20242340Y-35262900D01*
X20242339Y-35262899D01*
X20077003Y-35194414D01*
X20077001Y-35194413D01*
X20077000Y-35194413D01*
X19986301Y-35176372D01*
X19901481Y-35159500D01*
X19901479Y-35159500D01*
X19722521Y-35159500D01*
X19722518Y-35159500D01*
X19591771Y-35185507D01*
X19547000Y-35194413D01*
X19546999Y-35194413D01*
X19546996Y-35194414D01*
X19381659Y-35262900D01*
X19322370Y-35302515D01*
X19279158Y-35320868D01*
X19267343Y-35323438D01*
X19163175Y-35358108D01*
X19040215Y-35437130D01*
X19040213Y-35437131D01*
X18987417Y-35482880D01*
X18891704Y-35593337D01*
X18891703Y-35593338D01*
X18830986Y-35726284D01*
X18811302Y-35793320D01*
X18811301Y-35793324D01*
X18790500Y-35938003D01*
X18790500Y-41216039D01*
X18770498Y-41284160D01*
X18716842Y-41330653D01*
X18646568Y-41340757D01*
X18590439Y-41317975D01*
X18511041Y-41260289D01*
X18511040Y-41260288D01*
X18511038Y-41260287D01*
X18285450Y-41145344D01*
X18285447Y-41145343D01*
X18285445Y-41145342D01*
X18044663Y-41067107D01*
X18044659Y-41067106D01*
X18044658Y-41067106D01*
X17794592Y-41027500D01*
X16241408Y-41027500D01*
X15991342Y-41067106D01*
X15991336Y-41067107D01*
X15750554Y-41145342D01*
X15750548Y-41145345D01*
X15524958Y-41260289D01*
X15320129Y-41409107D01*
X15320126Y-41409109D01*
X15141109Y-41588126D01*
X15141107Y-41588129D01*
X14992289Y-41792958D01*
X14877345Y-42018548D01*
X14877342Y-42018554D01*
X14799107Y-42259336D01*
X14799106Y-42259341D01*
X14799106Y-42259342D01*
X14759500Y-42509408D01*
X14759500Y-42762592D01*
X14788134Y-42943383D01*
X14799107Y-43012663D01*
X14872846Y-43239607D01*
X14877344Y-43253450D01*
X14949202Y-43394479D01*
X14992289Y-43479041D01*
X15078210Y-43597301D01*
X15141105Y-43683868D01*
X15229988Y-43772751D01*
X15264012Y-43835061D01*
X15266170Y-43875313D01*
X15259500Y-43937350D01*
X15259500Y-45534649D01*
X15266009Y-45595196D01*
X15266011Y-45595204D01*
X15317110Y-45732202D01*
X15317112Y-45732207D01*
X15404737Y-45849259D01*
X15404738Y-45849259D01*
X15404739Y-45849261D01*
X15419777Y-45860518D01*
X15436090Y-45872730D01*
X15478636Y-45929566D01*
X15483700Y-46000382D01*
X15462517Y-46047657D01*
X15441637Y-46076396D01*
X15441634Y-46076402D01*
X15351702Y-46252903D01*
X15290488Y-46441300D01*
X15259500Y-46636954D01*
X15259500Y-46835046D01*
X15290488Y-47030700D01*
X15351702Y-47219097D01*
X15432118Y-47376921D01*
X15441636Y-47395601D01*
X15558071Y-47555860D01*
X15649116Y-47646905D01*
X15683142Y-47709217D01*
X15678077Y-47780032D01*
X15649116Y-47825095D01*
X15558074Y-47916136D01*
X15558071Y-47916139D01*
X15441636Y-48076398D01*
X15414901Y-48128868D01*
X15351702Y-48252903D01*
X15290488Y-48441300D01*
X15259500Y-48636954D01*
X15259500Y-48835046D01*
X15290488Y-49030700D01*
X15351702Y-49219097D01*
X15439347Y-49391109D01*
X15452451Y-49460885D01*
X15425751Y-49526669D01*
X15401142Y-49550246D01*
X15320132Y-49609104D01*
X15320126Y-49609109D01*
X15141109Y-49788126D01*
X15141107Y-49788129D01*
X14992289Y-49992958D01*
X14877345Y-50218548D01*
X14877342Y-50218554D01*
X14799107Y-50459336D01*
X14799106Y-50459341D01*
X14799106Y-50459342D01*
X14759500Y-50709408D01*
X14759500Y-50962592D01*
X14781659Y-51102498D01*
X14799107Y-51212663D01*
X14877342Y-51453445D01*
X14877344Y-51453450D01*
X14992287Y-51679038D01*
X15141105Y-51883868D01*
X15141107Y-51883870D01*
X15141109Y-51883873D01*
X15320126Y-52062890D01*
X15320129Y-52062892D01*
X15320132Y-52062895D01*
X15524962Y-52211713D01*
X15750550Y-52326656D01*
X15991342Y-52404894D01*
X16241408Y-52444500D01*
X16241411Y-52444500D01*
X17794589Y-52444500D01*
X17794592Y-52444500D01*
X18044658Y-52404894D01*
X18285450Y-52326656D01*
X18511038Y-52211713D01*
X18715868Y-52062895D01*
X18894895Y-51883868D01*
X19043713Y-51679038D01*
X19158656Y-51453450D01*
X19236894Y-51212658D01*
X19276500Y-50962592D01*
X19276500Y-50709408D01*
X19236894Y-50459342D01*
X19158656Y-50218550D01*
X19043713Y-49992962D01*
X18894895Y-49788132D01*
X18894892Y-49788129D01*
X18894890Y-49788126D01*
X18715873Y-49609109D01*
X18715870Y-49609107D01*
X18715868Y-49609105D01*
X18634856Y-49550246D01*
X18591504Y-49494026D01*
X18585429Y-49423290D01*
X18596649Y-49391116D01*
X18684298Y-49219097D01*
X18745512Y-49030700D01*
X18776500Y-48835046D01*
X18776500Y-48636954D01*
X18745512Y-48441300D01*
X18741982Y-48430438D01*
X18739954Y-48359471D01*
X18776615Y-48298672D01*
X18840327Y-48267346D01*
X18861815Y-48265500D01*
X21719995Y-48265500D01*
X21720000Y-48265500D01*
X21829157Y-48253764D01*
X21880668Y-48242558D01*
X21984827Y-48207890D01*
X22107782Y-48128871D01*
X22107784Y-48128868D01*
X22107786Y-48128868D01*
X22134184Y-48105993D01*
X22160586Y-48083116D01*
X22256297Y-47972661D01*
X22317014Y-47839713D01*
X22336699Y-47772674D01*
X22336700Y-47772670D01*
X22357500Y-47628000D01*
X22357500Y-42633500D01*
X22377502Y-42565379D01*
X22431158Y-42518886D01*
X22483500Y-42507500D01*
X26216271Y-42507500D01*
X26284392Y-42527502D01*
X26330885Y-42581158D01*
X26342271Y-42633500D01*
X26342271Y-42778280D01*
X26377184Y-42953801D01*
X26445669Y-43119137D01*
X26545093Y-43267936D01*
X26671636Y-43394479D01*
X26820435Y-43493903D01*
X26985771Y-43562388D01*
X27161292Y-43597301D01*
X27161293Y-43597301D01*
X27340245Y-43597301D01*
X27340250Y-43597301D01*
X27408914Y-43583642D01*
X27479623Y-43589969D01*
X27535691Y-43633523D01*
X27538250Y-43637209D01*
X27578291Y-43697135D01*
X27704834Y-43823678D01*
X27853633Y-43923102D01*
X28018969Y-43991587D01*
X28194490Y-44026500D01*
X28194491Y-44026500D01*
X28373447Y-44026500D01*
X28373448Y-44026500D01*
X28548969Y-43991587D01*
X28714305Y-43923102D01*
X28863104Y-43823678D01*
X28923377Y-43763405D01*
X28985689Y-43729379D01*
X29012472Y-43726500D01*
X30864522Y-43726500D01*
X30932643Y-43746502D01*
X30953617Y-43763405D01*
X31013890Y-43823678D01*
X31162689Y-43923102D01*
X31328025Y-43991587D01*
X31503546Y-44026500D01*
X31503547Y-44026500D01*
X31682503Y-44026500D01*
X31682504Y-44026500D01*
X31858025Y-43991587D01*
X32023361Y-43923102D01*
X32172160Y-43823678D01*
X32298703Y-43697135D01*
X32398127Y-43548336D01*
X32466612Y-43383000D01*
X32501525Y-43207479D01*
X32501525Y-43152500D01*
X32521527Y-43084379D01*
X32575183Y-43037886D01*
X32627525Y-43026500D01*
X33477761Y-43026500D01*
X33545882Y-43046502D01*
X33566856Y-43063405D01*
X35168595Y-44665144D01*
X35202621Y-44727456D01*
X35205500Y-44754239D01*
X35205500Y-45415760D01*
X35185498Y-45483881D01*
X35168595Y-45504855D01*
X33590052Y-47083397D01*
X33590044Y-47083407D01*
X33509938Y-47222154D01*
X33509935Y-47222160D01*
X33499620Y-47260662D01*
X33499620Y-47260664D01*
X33472701Y-47361128D01*
X33468469Y-47376921D01*
X33468469Y-51587285D01*
X33482192Y-51638500D01*
X33509936Y-51742044D01*
X33509939Y-51742051D01*
X33590044Y-51880797D01*
X33590046Y-51880799D01*
X33590047Y-51880801D01*
X34260006Y-52550760D01*
X34294030Y-52613071D01*
X34294489Y-52615272D01*
X34320493Y-52746000D01*
X34388978Y-52911336D01*
X34488402Y-53060135D01*
X34614945Y-53186678D01*
X34763744Y-53286102D01*
X34929080Y-53354587D01*
X35104601Y-53389500D01*
X35104602Y-53389500D01*
X35283558Y-53389500D01*
X35283559Y-53389500D01*
X35459080Y-53354587D01*
X35624416Y-53286102D01*
X35773215Y-53186678D01*
X35899758Y-53060135D01*
X35999182Y-52911336D01*
X36067667Y-52746000D01*
X36102580Y-52570479D01*
X36102580Y-52515500D01*
X36122582Y-52447379D01*
X36176238Y-52400886D01*
X36182858Y-52399446D01*
X40691500Y-52399446D01*
X40691500Y-53300544D01*
X40702112Y-53404425D01*
X40757885Y-53572738D01*
X40850970Y-53723652D01*
X40850975Y-53723658D01*
X40976341Y-53849024D01*
X40976347Y-53849029D01*
X40976348Y-53849030D01*
X41127262Y-53942115D01*
X41295574Y-53997887D01*
X41399455Y-54008500D01*
X42800544Y-54008499D01*
X42904426Y-53997887D01*
X43072738Y-53942115D01*
X43223652Y-53849030D01*
X43349030Y-53723652D01*
X43442115Y-53572738D01*
X43497887Y-53404426D01*
X43508500Y-53300545D01*
X43508499Y-52399456D01*
X43497887Y-52295574D01*
X43442115Y-52127262D01*
X43349030Y-51976348D01*
X43349029Y-51976347D01*
X43349024Y-51976341D01*
X43223658Y-51850975D01*
X43223652Y-51850970D01*
X43072738Y-51757885D01*
X42988582Y-51729999D01*
X42904427Y-51702113D01*
X42904420Y-51702112D01*
X42800553Y-51691500D01*
X41399455Y-51691500D01*
X41295574Y-51702112D01*
X41127261Y-51757885D01*
X40976347Y-51850970D01*
X40976341Y-51850975D01*
X40850975Y-51976341D01*
X40850970Y-51976347D01*
X40757885Y-52127262D01*
X40702113Y-52295572D01*
X40702112Y-52295579D01*
X40691500Y-52399446D01*
X36182858Y-52399446D01*
X36228580Y-52389500D01*
X38856393Y-52389500D01*
X38856394Y-52389500D01*
X38978785Y-52365155D01*
X39094075Y-52317400D01*
X39197833Y-52248071D01*
X41475500Y-49970405D01*
X41537812Y-49936379D01*
X41564595Y-49933500D01*
X44564847Y-49933500D01*
X44564848Y-49933500D01*
X44687239Y-49909155D01*
X44802529Y-49861400D01*
X44906287Y-49792071D01*
X48077953Y-46620405D01*
X48140265Y-46586379D01*
X48167048Y-46583500D01*
X49142386Y-46583500D01*
X49210507Y-46603502D01*
X49231481Y-46620405D01*
X49266754Y-46655678D01*
X49415553Y-46755102D01*
X49580889Y-46823587D01*
X49756410Y-46858500D01*
X49756411Y-46858500D01*
X49935367Y-46858500D01*
X49935368Y-46858500D01*
X50110889Y-46823587D01*
X50276225Y-46755102D01*
X50425024Y-46655678D01*
X50551567Y-46529135D01*
X50650991Y-46380336D01*
X50719476Y-46215000D01*
X50754389Y-46039479D01*
X50754389Y-45860521D01*
X50719476Y-45685000D01*
X50650991Y-45519664D01*
X50551567Y-45370865D01*
X50425024Y-45244322D01*
X50276225Y-45144898D01*
X50136224Y-45086907D01*
X50110892Y-45076414D01*
X50110890Y-45076413D01*
X50110889Y-45076413D01*
X50022534Y-45058838D01*
X49935370Y-45041500D01*
X49935368Y-45041500D01*
X49756410Y-45041500D01*
X49756407Y-45041500D01*
X49625660Y-45067507D01*
X49580889Y-45076413D01*
X49580888Y-45076413D01*
X49580885Y-45076414D01*
X49468424Y-45122998D01*
X49427685Y-45139873D01*
X49415551Y-45144899D01*
X49266758Y-45244319D01*
X49266751Y-45244324D01*
X49231481Y-45279595D01*
X49204112Y-45294539D01*
X49177884Y-45311396D01*
X49171585Y-45312301D01*
X49169169Y-45313621D01*
X49142386Y-45316500D01*
X49048239Y-45316500D01*
X48980118Y-45296498D01*
X48933625Y-45242842D01*
X48923521Y-45172568D01*
X48953015Y-45107988D01*
X48959144Y-45101405D01*
X50715144Y-43345405D01*
X50777456Y-43311379D01*
X50804239Y-43308500D01*
X50889478Y-43308500D01*
X50889479Y-43308500D01*
X51065000Y-43273587D01*
X51230336Y-43205102D01*
X51379135Y-43105678D01*
X51505678Y-42979135D01*
X51529568Y-42943379D01*
X51584041Y-42897854D01*
X51654484Y-42889005D01*
X51718529Y-42919645D01*
X51755842Y-42980046D01*
X51760332Y-43013330D01*
X51763909Y-51568608D01*
X51743935Y-51636737D01*
X51690299Y-51683253D01*
X51625103Y-51694009D01*
X51600545Y-51691500D01*
X51600544Y-51691500D01*
X50199455Y-51691500D01*
X50095574Y-51702112D01*
X49927261Y-51757885D01*
X49776347Y-51850970D01*
X49776341Y-51850975D01*
X49650975Y-51976341D01*
X49650970Y-51976347D01*
X49557885Y-52127262D01*
X49502113Y-52295572D01*
X49502112Y-52295579D01*
X49491500Y-52399446D01*
X49491500Y-53300544D01*
X49502112Y-53404425D01*
X49557885Y-53572738D01*
X49650970Y-53723652D01*
X49650975Y-53723658D01*
X49776341Y-53849024D01*
X49776347Y-53849029D01*
X49776348Y-53849030D01*
X49927262Y-53942115D01*
X50095574Y-53997887D01*
X50199455Y-54008500D01*
X51600544Y-54008499D01*
X51600551Y-54008499D01*
X51626174Y-54005881D01*
X51695975Y-54018855D01*
X51747681Y-54067507D01*
X51764981Y-54131175D01*
X51765492Y-55353940D01*
X51765492Y-55353946D01*
X51765497Y-55367441D01*
X51765365Y-55373256D01*
X51749060Y-55729051D01*
X51747990Y-55740643D01*
X51699321Y-56090516D01*
X51697186Y-56101960D01*
X51616435Y-56445841D01*
X51613254Y-56457039D01*
X51501104Y-56792020D01*
X51496902Y-56802877D01*
X51354316Y-57126071D01*
X51349130Y-57136493D01*
X51177325Y-57445147D01*
X51171199Y-57455046D01*
X50971646Y-57746519D01*
X50964633Y-57755811D01*
X50739025Y-58027630D01*
X50731184Y-58036235D01*
X50481453Y-58286070D01*
X50472852Y-58293914D01*
X50201127Y-58519636D01*
X50191838Y-58526653D01*
X49900445Y-58726331D01*
X49890548Y-58732461D01*
X49581966Y-58904394D01*
X49571546Y-58909584D01*
X49248421Y-59052301D01*
X49237566Y-59056508D01*
X48902629Y-59168800D01*
X48891432Y-59171986D01*
X48547584Y-59252880D01*
X48536141Y-59255020D01*
X48186276Y-59303837D01*
X48174685Y-59304911D01*
X47818963Y-59321361D01*
X47813000Y-59321496D01*
X17336836Y-59287114D01*
X17336826Y-59287114D01*
X17316429Y-59287089D01*
X17316408Y-59287073D01*
X17302779Y-59287073D01*
X17302766Y-59287069D01*
X17297112Y-59286939D01*
X16941405Y-59270493D01*
X16929817Y-59269419D01*
X16580048Y-59220629D01*
X16568607Y-59218490D01*
X16224841Y-59137636D01*
X16213647Y-59134451D01*
X15878804Y-59022223D01*
X15867952Y-59018019D01*
X15544886Y-58875371D01*
X15534468Y-58870183D01*
X15225954Y-58698341D01*
X15216058Y-58692214D01*
X14924709Y-58492634D01*
X14915422Y-58485621D01*
X14881061Y-58457088D01*
X14643729Y-58260008D01*
X14635128Y-58252167D01*
X14385414Y-58002451D01*
X14377574Y-57993850D01*
X14151965Y-57722158D01*
X14144951Y-57712871D01*
X13998171Y-57498597D01*
X13945369Y-57421514D01*
X13939252Y-57411637D01*
X13767397Y-57103094D01*
X13762211Y-57092677D01*
X13725127Y-57008689D01*
X13619567Y-56769613D01*
X13615371Y-56758782D01*
X13503138Y-56423918D01*
X13499956Y-56412733D01*
X13498609Y-56407007D01*
X13419105Y-56068967D01*
X13416966Y-56057527D01*
X13368177Y-55707757D01*
X13367103Y-55696168D01*
X13365762Y-55667159D01*
X13356835Y-55474038D01*
X14699500Y-55474038D01*
X14699500Y-55725962D01*
X14730269Y-55920226D01*
X14738911Y-55974790D01*
X14816757Y-56214374D01*
X14816759Y-56214379D01*
X14931130Y-56438845D01*
X15079207Y-56642656D01*
X15079209Y-56642658D01*
X15079211Y-56642661D01*
X15257338Y-56820788D01*
X15257341Y-56820790D01*
X15257344Y-56820793D01*
X15461155Y-56968870D01*
X15685621Y-57083241D01*
X15925215Y-57161090D01*
X16174038Y-57200500D01*
X16174041Y-57200500D01*
X16425959Y-57200500D01*
X16425962Y-57200500D01*
X16674785Y-57161090D01*
X16914379Y-57083241D01*
X17138845Y-56968870D01*
X17342656Y-56820793D01*
X17520793Y-56642656D01*
X17668870Y-56438845D01*
X17783241Y-56214379D01*
X17861090Y-55974785D01*
X17900500Y-55725962D01*
X17900500Y-55474038D01*
X17861090Y-55225215D01*
X17783241Y-54985621D01*
X17751845Y-54924003D01*
X23110500Y-54924003D01*
X23110500Y-57676007D01*
X23122237Y-57785164D01*
X23133441Y-57836667D01*
X23162858Y-57925049D01*
X23168110Y-57940827D01*
X23179146Y-57957999D01*
X23247130Y-58063784D01*
X23247131Y-58063786D01*
X23292880Y-58116582D01*
X23292882Y-58116583D01*
X23292884Y-58116586D01*
X23403339Y-58212297D01*
X23482416Y-58248411D01*
X23536284Y-58273013D01*
X23536286Y-58273013D01*
X23536287Y-58273014D01*
X23603326Y-58292699D01*
X23603330Y-58292700D01*
X23748000Y-58313500D01*
X23748004Y-58313500D01*
X27236861Y-58313500D01*
X27236865Y-58313500D01*
X27287205Y-58311027D01*
X27311396Y-58308644D01*
X27361236Y-58301250D01*
X27446168Y-58284355D01*
X27460923Y-58281421D01*
X27485504Y-58279000D01*
X27538496Y-58279000D01*
X27563077Y-58281421D01*
X27662754Y-58301248D01*
X27662761Y-58301249D01*
X27662766Y-58301250D01*
X27712604Y-58308644D01*
X27736795Y-58311027D01*
X27787135Y-58313500D01*
X27787139Y-58313500D01*
X29875995Y-58313500D01*
X29876000Y-58313500D01*
X29985157Y-58301764D01*
X30036668Y-58290558D01*
X30140827Y-58255890D01*
X30263782Y-58176871D01*
X30263784Y-58176868D01*
X30263786Y-58176868D01*
X30290184Y-58153993D01*
X30316586Y-58131116D01*
X30412297Y-58020661D01*
X30473014Y-57887713D01*
X30474722Y-57881892D01*
X30513100Y-57822167D01*
X30577679Y-57792669D01*
X30647954Y-57802767D01*
X30652818Y-57805115D01*
X30758517Y-57858972D01*
X30961878Y-57925047D01*
X30961879Y-57925047D01*
X30961884Y-57925049D01*
X31173084Y-57958500D01*
X31173087Y-57958500D01*
X31386913Y-57958500D01*
X31386916Y-57958500D01*
X31598116Y-57925049D01*
X31801483Y-57858972D01*
X31992009Y-57761894D01*
X32165004Y-57636206D01*
X32316206Y-57485004D01*
X32441894Y-57312009D01*
X32441899Y-57311997D01*
X32442561Y-57310920D01*
X32442924Y-57310591D01*
X32444804Y-57308004D01*
X32445347Y-57308398D01*
X32495204Y-57263283D01*
X32565244Y-57251670D01*
X32630445Y-57279766D01*
X32655021Y-57308130D01*
X32655196Y-57308004D01*
X32656668Y-57310030D01*
X32657439Y-57310920D01*
X32658105Y-57312007D01*
X32658106Y-57312009D01*
X32783794Y-57485004D01*
X32783796Y-57485006D01*
X32783798Y-57485009D01*
X32934990Y-57636201D01*
X32934993Y-57636203D01*
X32934996Y-57636206D01*
X33107991Y-57761894D01*
X33298517Y-57858972D01*
X33501878Y-57925047D01*
X33501879Y-57925047D01*
X33501884Y-57925049D01*
X33713084Y-57958500D01*
X33713087Y-57958500D01*
X33926913Y-57958500D01*
X33926916Y-57958500D01*
X34138116Y-57925049D01*
X34341483Y-57858972D01*
X34532009Y-57761894D01*
X34705004Y-57636206D01*
X34808371Y-57532838D01*
X34870681Y-57498815D01*
X34941497Y-57503879D01*
X34998333Y-57546426D01*
X35015521Y-57577903D01*
X35059555Y-57695965D01*
X35147095Y-57812904D01*
X35264034Y-57900444D01*
X35400906Y-57951494D01*
X35461402Y-57957999D01*
X35461415Y-57958000D01*
X36106000Y-57958000D01*
X36106000Y-57030702D01*
X36167007Y-57065925D01*
X36294174Y-57100000D01*
X36425826Y-57100000D01*
X36552993Y-57065925D01*
X36614000Y-57030702D01*
X36614000Y-57958000D01*
X37258585Y-57958000D01*
X37258597Y-57957999D01*
X37319093Y-57951494D01*
X37455964Y-57900444D01*
X37455965Y-57900444D01*
X37572904Y-57812904D01*
X37660444Y-57695965D01*
X37660444Y-57695964D01*
X37711494Y-57559093D01*
X37717999Y-57498597D01*
X37718000Y-57498585D01*
X37718000Y-56854000D01*
X36790703Y-56854000D01*
X36825925Y-56792993D01*
X36860000Y-56665826D01*
X36860000Y-56534174D01*
X36825925Y-56407007D01*
X36790703Y-56346000D01*
X37718000Y-56346000D01*
X37718000Y-55701414D01*
X37717999Y-55701402D01*
X37711494Y-55640906D01*
X37673530Y-55539119D01*
X37660443Y-55504033D01*
X37657452Y-55500038D01*
X47167500Y-55500038D01*
X47167500Y-55751962D01*
X47194151Y-55920226D01*
X47206911Y-56000790D01*
X47276309Y-56214374D01*
X47284759Y-56240379D01*
X47399130Y-56464845D01*
X47547207Y-56668656D01*
X47547209Y-56668658D01*
X47547211Y-56668661D01*
X47725338Y-56846788D01*
X47725341Y-56846790D01*
X47725344Y-56846793D01*
X47929155Y-56994870D01*
X48153621Y-57109241D01*
X48393215Y-57187090D01*
X48642038Y-57226500D01*
X48642041Y-57226500D01*
X48893959Y-57226500D01*
X48893962Y-57226500D01*
X49142785Y-57187090D01*
X49382379Y-57109241D01*
X49606845Y-56994870D01*
X49810656Y-56846793D01*
X49988793Y-56668656D01*
X50136870Y-56464845D01*
X50251241Y-56240379D01*
X50329090Y-56000785D01*
X50368500Y-55751962D01*
X50368500Y-55500038D01*
X50329090Y-55251215D01*
X50251241Y-55011621D01*
X50136870Y-54787155D01*
X49988793Y-54583344D01*
X49988790Y-54583341D01*
X49988788Y-54583338D01*
X49810661Y-54405211D01*
X49810658Y-54405209D01*
X49810656Y-54405207D01*
X49606845Y-54257130D01*
X49382379Y-54142759D01*
X49382376Y-54142758D01*
X49382374Y-54142757D01*
X49142790Y-54064911D01*
X49142786Y-54064910D01*
X49142785Y-54064910D01*
X48893962Y-54025500D01*
X48642038Y-54025500D01*
X48393215Y-54064910D01*
X48393209Y-54064911D01*
X48153625Y-54142757D01*
X48153619Y-54142760D01*
X47929151Y-54257132D01*
X47725341Y-54405209D01*
X47725338Y-54405211D01*
X47547211Y-54583338D01*
X47547209Y-54583341D01*
X47399132Y-54787151D01*
X47284760Y-55011619D01*
X47284757Y-55011625D01*
X47206911Y-55251209D01*
X47206910Y-55251214D01*
X47206910Y-55251215D01*
X47167500Y-55500038D01*
X37657452Y-55500038D01*
X37572904Y-55387095D01*
X37455965Y-55299555D01*
X37319093Y-55248505D01*
X37258597Y-55242000D01*
X36614000Y-55242000D01*
X36614000Y-56169297D01*
X36552993Y-56134075D01*
X36425826Y-56100000D01*
X36294174Y-56100000D01*
X36167007Y-56134075D01*
X36106000Y-56169297D01*
X36106000Y-55242000D01*
X35461402Y-55242000D01*
X35400906Y-55248505D01*
X35264035Y-55299555D01*
X35264034Y-55299555D01*
X35147095Y-55387095D01*
X35059556Y-55504033D01*
X35015521Y-55622097D01*
X34972974Y-55678932D01*
X34906454Y-55703743D01*
X34837079Y-55688651D01*
X34808370Y-55667159D01*
X34705009Y-55563798D01*
X34705006Y-55563796D01*
X34705004Y-55563794D01*
X34532009Y-55438106D01*
X34341483Y-55341028D01*
X34341480Y-55341027D01*
X34341478Y-55341026D01*
X34138120Y-55274952D01*
X34138123Y-55274952D01*
X34098801Y-55268724D01*
X33926916Y-55241500D01*
X33713084Y-55241500D01*
X33501884Y-55274951D01*
X33501878Y-55274952D01*
X33298521Y-55341026D01*
X33298515Y-55341029D01*
X33107987Y-55438108D01*
X32934993Y-55563796D01*
X32934990Y-55563798D01*
X32783798Y-55714990D01*
X32783796Y-55714993D01*
X32658108Y-55887987D01*
X32657434Y-55889088D01*
X32657068Y-55889418D01*
X32655196Y-55891996D01*
X32654654Y-55891602D01*
X32604787Y-55936721D01*
X32534745Y-55948328D01*
X32469547Y-55920226D01*
X32444976Y-55891870D01*
X32444804Y-55891996D01*
X32443341Y-55889982D01*
X32442566Y-55889088D01*
X32441896Y-55887996D01*
X32441894Y-55887991D01*
X32316206Y-55714996D01*
X32316203Y-55714993D01*
X32316201Y-55714990D01*
X32165009Y-55563798D01*
X32165006Y-55563796D01*
X32165004Y-55563794D01*
X31992009Y-55438106D01*
X31801483Y-55341028D01*
X31801480Y-55341027D01*
X31801478Y-55341026D01*
X31598120Y-55274952D01*
X31598123Y-55274952D01*
X31558801Y-55268724D01*
X31386916Y-55241500D01*
X31173084Y-55241500D01*
X30961884Y-55274951D01*
X30961878Y-55274952D01*
X30758521Y-55341026D01*
X30758509Y-55341031D01*
X30696702Y-55372524D01*
X30626926Y-55385628D01*
X30561141Y-55358928D01*
X30520235Y-55300900D01*
X30513500Y-55260257D01*
X30513500Y-54924004D01*
X30513499Y-54923992D01*
X30501764Y-54814843D01*
X30490558Y-54763332D01*
X30455890Y-54659173D01*
X30376871Y-54536218D01*
X30376870Y-54536217D01*
X30376869Y-54536215D01*
X30376868Y-54536213D01*
X30331119Y-54483417D01*
X30314347Y-54468884D01*
X30220661Y-54387703D01*
X30202067Y-54379211D01*
X30087715Y-54326986D01*
X30020679Y-54307302D01*
X30020675Y-54307301D01*
X30020672Y-54307300D01*
X30020670Y-54307300D01*
X29876000Y-54286500D01*
X23748000Y-54286500D01*
X23747992Y-54286500D01*
X23654104Y-54296595D01*
X23638843Y-54298236D01*
X23638841Y-54298236D01*
X23638835Y-54298237D01*
X23587332Y-54309441D01*
X23483174Y-54344109D01*
X23360215Y-54423130D01*
X23360213Y-54423131D01*
X23307417Y-54468880D01*
X23211704Y-54579337D01*
X23211703Y-54579338D01*
X23150986Y-54712284D01*
X23131302Y-54779320D01*
X23131301Y-54779324D01*
X23131301Y-54779326D01*
X23131300Y-54779330D01*
X23110502Y-54923992D01*
X23110500Y-54924003D01*
X17751845Y-54924003D01*
X17668870Y-54761155D01*
X17520793Y-54557344D01*
X17520790Y-54557341D01*
X17520788Y-54557338D01*
X17342661Y-54379211D01*
X17342658Y-54379209D01*
X17342656Y-54379207D01*
X17138845Y-54231130D01*
X16914379Y-54116759D01*
X16914376Y-54116758D01*
X16914374Y-54116757D01*
X16674790Y-54038911D01*
X16674786Y-54038910D01*
X16674785Y-54038910D01*
X16425962Y-53999500D01*
X16174038Y-53999500D01*
X15925215Y-54038910D01*
X15925209Y-54038911D01*
X15685625Y-54116757D01*
X15685619Y-54116760D01*
X15461151Y-54231132D01*
X15257341Y-54379209D01*
X15257338Y-54379211D01*
X15079211Y-54557338D01*
X15079209Y-54557341D01*
X14931132Y-54761151D01*
X14816760Y-54985619D01*
X14816757Y-54985625D01*
X14738911Y-55225209D01*
X14738910Y-55225214D01*
X14738910Y-55225215D01*
X14699500Y-55474038D01*
X13356835Y-55474038D01*
X13350633Y-55339881D01*
X13350500Y-55334076D01*
X13350500Y-27717000D01*
X48592776Y-27717000D01*
X48600737Y-27757023D01*
X48600739Y-27757028D01*
X48676722Y-27940466D01*
X48787032Y-28105557D01*
X48787037Y-28105564D01*
X48927435Y-28245962D01*
X48927442Y-28245967D01*
X49092533Y-28356277D01*
X49275971Y-28432260D01*
X49275976Y-28432262D01*
X49470718Y-28470999D01*
X49470722Y-28471000D01*
X49666000Y-28471000D01*
X50174000Y-28471000D01*
X50369278Y-28471000D01*
X50369281Y-28470999D01*
X50564023Y-28432262D01*
X50564028Y-28432260D01*
X50747466Y-28356277D01*
X50912557Y-28245967D01*
X50912564Y-28245962D01*
X51052962Y-28105564D01*
X51052967Y-28105557D01*
X51163277Y-27940466D01*
X51239260Y-27757028D01*
X51239262Y-27757023D01*
X51247224Y-27717000D01*
X50174000Y-27717000D01*
X50174000Y-28471000D01*
X49666000Y-28471000D01*
X49666000Y-27717000D01*
X48592776Y-27717000D01*
X13350500Y-27717000D01*
X13350500Y-27413272D01*
X49320000Y-27413272D01*
X49320000Y-27512728D01*
X49358060Y-27604614D01*
X49428386Y-27674940D01*
X49520272Y-27713000D01*
X50319728Y-27713000D01*
X50411614Y-27674940D01*
X50481940Y-27604614D01*
X50520000Y-27512728D01*
X50520000Y-27413272D01*
X50481940Y-27321386D01*
X50411614Y-27251060D01*
X50319728Y-27213000D01*
X49520272Y-27213000D01*
X49428386Y-27251060D01*
X49358060Y-27321386D01*
X49320000Y-27413272D01*
X13350500Y-27413272D01*
X13350500Y-27208999D01*
X48592776Y-27208999D01*
X48592776Y-27209000D01*
X49666000Y-27209000D01*
X50174000Y-27209000D01*
X51247224Y-27209000D01*
X51247223Y-27208999D01*
X51239262Y-27168976D01*
X51239260Y-27168971D01*
X51163277Y-26985533D01*
X51052967Y-26820442D01*
X51052962Y-26820435D01*
X50912564Y-26680037D01*
X50912557Y-26680032D01*
X50747466Y-26569722D01*
X50564028Y-26493739D01*
X50564023Y-26493737D01*
X50369281Y-26455000D01*
X50174000Y-26455000D01*
X50174000Y-27209000D01*
X49666000Y-27209000D01*
X49666000Y-26455000D01*
X49470718Y-26455000D01*
X49275976Y-26493737D01*
X49275971Y-26493739D01*
X49092533Y-26569722D01*
X48927442Y-26680032D01*
X48927435Y-26680037D01*
X48787037Y-26820435D01*
X48787032Y-26820442D01*
X48676722Y-26985533D01*
X48600739Y-27168971D01*
X48600737Y-27168976D01*
X48592776Y-27208999D01*
X13350500Y-27208999D01*
X13350500Y-26710473D01*
X47019499Y-26710473D01*
X47057016Y-26850485D01*
X47129488Y-26976011D01*
X47129496Y-26976021D01*
X47231978Y-27078503D01*
X47231983Y-27078507D01*
X47231985Y-27078509D01*
X47357515Y-27150984D01*
X47497525Y-27188500D01*
X47497527Y-27188500D01*
X47642473Y-27188500D01*
X47642475Y-27188500D01*
X47782485Y-27150984D01*
X47908015Y-27078509D01*
X48010509Y-26976015D01*
X48082984Y-26850485D01*
X48120500Y-26710475D01*
X48120500Y-26565525D01*
X48082984Y-26425515D01*
X48010509Y-26299985D01*
X48010507Y-26299983D01*
X48010503Y-26299978D01*
X47908021Y-26197496D01*
X47908011Y-26197488D01*
X47782485Y-26125016D01*
X47642475Y-26087500D01*
X47497525Y-26087500D01*
X47404185Y-26112510D01*
X47357514Y-26125016D01*
X47231988Y-26197488D01*
X47231978Y-26197496D01*
X47129496Y-26299978D01*
X47129488Y-26299988D01*
X47057016Y-26425514D01*
X47019500Y-26565526D01*
X47019500Y-26710473D01*
X47019499Y-26710473D01*
X13350500Y-26710473D01*
X13350500Y-22760518D01*
X36391500Y-22760518D01*
X36391500Y-22939481D01*
X36408838Y-23026645D01*
X36426413Y-23115000D01*
X36494898Y-23280336D01*
X36594322Y-23429135D01*
X36720865Y-23555678D01*
X36869664Y-23655102D01*
X37035000Y-23723587D01*
X37210521Y-23758500D01*
X37210522Y-23758500D01*
X37389478Y-23758500D01*
X37389479Y-23758500D01*
X37565000Y-23723587D01*
X37730336Y-23655102D01*
X37879135Y-23555678D01*
X37939408Y-23495405D01*
X38001720Y-23461379D01*
X38028503Y-23458500D01*
X39371497Y-23458500D01*
X39439618Y-23478502D01*
X39460592Y-23495405D01*
X39520865Y-23555678D01*
X39669664Y-23655102D01*
X39835000Y-23723587D01*
X40010521Y-23758500D01*
X40010522Y-23758500D01*
X40189478Y-23758500D01*
X40189479Y-23758500D01*
X40365000Y-23723587D01*
X40530336Y-23655102D01*
X40679135Y-23555678D01*
X40805678Y-23429135D01*
X40905102Y-23280336D01*
X40973587Y-23115000D01*
X41008500Y-22939479D01*
X41008500Y-22760521D01*
X40998545Y-22710473D01*
X47019499Y-22710473D01*
X47057016Y-22850485D01*
X47129488Y-22976011D01*
X47129496Y-22976021D01*
X47231978Y-23078503D01*
X47231983Y-23078507D01*
X47231985Y-23078509D01*
X47357515Y-23150984D01*
X47497525Y-23188500D01*
X47497527Y-23188500D01*
X47642473Y-23188500D01*
X47642475Y-23188500D01*
X47782485Y-23150984D01*
X47908015Y-23078509D01*
X48010509Y-22976015D01*
X48082984Y-22850485D01*
X48120500Y-22710475D01*
X48120500Y-22565525D01*
X48082984Y-22425515D01*
X48010509Y-22299985D01*
X48010507Y-22299983D01*
X48010503Y-22299978D01*
X47908021Y-22197496D01*
X47908011Y-22197488D01*
X47815924Y-22144322D01*
X47782485Y-22125016D01*
X47642475Y-22087500D01*
X47497525Y-22087500D01*
X47404185Y-22112510D01*
X47357514Y-22125016D01*
X47231988Y-22197488D01*
X47231978Y-22197496D01*
X47129496Y-22299978D01*
X47129488Y-22299988D01*
X47057016Y-22425514D01*
X47019500Y-22565526D01*
X47019500Y-22710473D01*
X47019499Y-22710473D01*
X40998545Y-22710473D01*
X40973587Y-22585000D01*
X40905102Y-22419664D01*
X40805678Y-22270865D01*
X40679135Y-22144322D01*
X40563414Y-22067000D01*
X48594246Y-22067000D01*
X48597855Y-22085146D01*
X48668186Y-22254941D01*
X48770291Y-22407752D01*
X48770296Y-22407758D01*
X48900241Y-22537703D01*
X48900247Y-22537708D01*
X49053058Y-22639813D01*
X49222848Y-22710142D01*
X49222853Y-22710144D01*
X49403105Y-22745999D01*
X49403109Y-22746000D01*
X49666000Y-22746000D01*
X50174000Y-22746000D01*
X50436891Y-22746000D01*
X50436894Y-22745999D01*
X50617146Y-22710144D01*
X50617151Y-22710142D01*
X50786941Y-22639813D01*
X50939752Y-22537708D01*
X50939758Y-22537703D01*
X51069703Y-22407758D01*
X51069708Y-22407752D01*
X51171813Y-22254941D01*
X51242144Y-22085146D01*
X51245754Y-22067000D01*
X50174000Y-22067000D01*
X50174000Y-22746000D01*
X49666000Y-22746000D01*
X49666000Y-22067000D01*
X48594246Y-22067000D01*
X40563414Y-22067000D01*
X40530336Y-22044898D01*
X40413429Y-21996473D01*
X40365003Y-21976414D01*
X40365001Y-21976413D01*
X40365000Y-21976413D01*
X40276645Y-21958838D01*
X40189481Y-21941500D01*
X40189479Y-21941500D01*
X40010521Y-21941500D01*
X40010518Y-21941500D01*
X39879771Y-21967507D01*
X39835000Y-21976413D01*
X39834999Y-21976413D01*
X39834996Y-21976414D01*
X39669662Y-22044899D01*
X39520869Y-22144319D01*
X39520862Y-22144324D01*
X39460592Y-22204595D01*
X39398280Y-22238621D01*
X39371497Y-22241500D01*
X38028503Y-22241500D01*
X37960382Y-22221498D01*
X37939408Y-22204595D01*
X37879137Y-22144324D01*
X37879135Y-22144322D01*
X37730336Y-22044898D01*
X37613429Y-21996473D01*
X37565003Y-21976414D01*
X37565001Y-21976413D01*
X37565000Y-21976413D01*
X37476645Y-21958838D01*
X37389481Y-21941500D01*
X37389479Y-21941500D01*
X37210521Y-21941500D01*
X37210518Y-21941500D01*
X37079771Y-21967507D01*
X37035000Y-21976413D01*
X37034999Y-21976413D01*
X37034996Y-21976414D01*
X36869662Y-22044899D01*
X36720869Y-22144319D01*
X36720862Y-22144324D01*
X36594324Y-22270862D01*
X36594319Y-22270869D01*
X36574863Y-22299988D01*
X36494898Y-22419664D01*
X36480716Y-22453902D01*
X36426414Y-22584996D01*
X36391500Y-22760518D01*
X13350500Y-22760518D01*
X13350500Y-21763272D01*
X49320000Y-21763272D01*
X49320000Y-21862728D01*
X49358060Y-21954614D01*
X49428386Y-22024940D01*
X49520272Y-22063000D01*
X50319728Y-22063000D01*
X50411614Y-22024940D01*
X50481940Y-21954614D01*
X50520000Y-21862728D01*
X50520000Y-21763272D01*
X50481940Y-21671386D01*
X50411614Y-21601060D01*
X50319728Y-21563000D01*
X49520272Y-21563000D01*
X49428386Y-21601060D01*
X49358060Y-21671386D01*
X49320000Y-21763272D01*
X13350500Y-21763272D01*
X13350500Y-21559000D01*
X48594246Y-21559000D01*
X49666000Y-21559000D01*
X50174000Y-21559000D01*
X51245754Y-21559000D01*
X51242144Y-21540853D01*
X51171813Y-21371058D01*
X51069708Y-21218247D01*
X51069703Y-21218241D01*
X50939758Y-21088296D01*
X50939752Y-21088291D01*
X50786941Y-20986186D01*
X50617151Y-20915857D01*
X50617146Y-20915855D01*
X50436894Y-20880000D01*
X50174000Y-20880000D01*
X50174000Y-21559000D01*
X49666000Y-21559000D01*
X49666000Y-20880000D01*
X49403105Y-20880000D01*
X49222853Y-20915855D01*
X49222848Y-20915857D01*
X49053058Y-20986186D01*
X48900247Y-21088291D01*
X48900241Y-21088296D01*
X48770296Y-21218241D01*
X48770291Y-21218247D01*
X48668186Y-21371058D01*
X48597855Y-21540853D01*
X48594246Y-21559000D01*
X13350500Y-21559000D01*
X13350500Y-17102920D01*
X13350634Y-17097101D01*
X13360115Y-16892038D01*
X14699500Y-16892038D01*
X14699500Y-17143962D01*
X14738910Y-17392785D01*
X14738911Y-17392790D01*
X14816757Y-17632374D01*
X14816759Y-17632379D01*
X14931130Y-17856845D01*
X15079207Y-18060656D01*
X15079209Y-18060658D01*
X15079211Y-18060661D01*
X15257338Y-18238788D01*
X15257341Y-18238790D01*
X15257344Y-18238793D01*
X15461155Y-18386870D01*
X15685621Y-18501241D01*
X15925215Y-18579090D01*
X16174038Y-18618500D01*
X16174041Y-18618500D01*
X16425959Y-18618500D01*
X16425962Y-18618500D01*
X16674785Y-18579090D01*
X16914379Y-18501241D01*
X17138845Y-18386870D01*
X17342656Y-18238793D01*
X17520793Y-18060656D01*
X17668870Y-17856845D01*
X17783241Y-17632379D01*
X17861090Y-17392785D01*
X17900500Y-17143962D01*
X17900500Y-16892038D01*
X47167500Y-16892038D01*
X47167500Y-17143962D01*
X47206910Y-17392785D01*
X47206911Y-17392790D01*
X47284757Y-17632374D01*
X47284759Y-17632379D01*
X47399130Y-17856845D01*
X47547207Y-18060656D01*
X47547209Y-18060658D01*
X47547211Y-18060661D01*
X47725338Y-18238788D01*
X47725341Y-18238790D01*
X47725344Y-18238793D01*
X47929155Y-18386870D01*
X48153621Y-18501241D01*
X48393215Y-18579090D01*
X48642038Y-18618500D01*
X48642041Y-18618500D01*
X48893959Y-18618500D01*
X48893962Y-18618500D01*
X49142785Y-18579090D01*
X49382379Y-18501241D01*
X49606845Y-18386870D01*
X49810656Y-18238793D01*
X49988793Y-18060656D01*
X50136870Y-17856845D01*
X50251241Y-17632379D01*
X50329090Y-17392785D01*
X50368500Y-17143962D01*
X50368500Y-16892038D01*
X50329090Y-16643215D01*
X50251241Y-16403621D01*
X50136870Y-16179155D01*
X49988793Y-15975344D01*
X49988790Y-15975341D01*
X49988788Y-15975338D01*
X49810661Y-15797211D01*
X49810658Y-15797209D01*
X49810656Y-15797207D01*
X49640079Y-15673276D01*
X49606848Y-15649132D01*
X49606847Y-15649131D01*
X49606845Y-15649130D01*
X49382379Y-15534759D01*
X49382376Y-15534758D01*
X49382374Y-15534757D01*
X49142790Y-15456911D01*
X49142786Y-15456910D01*
X49142785Y-15456910D01*
X48893962Y-15417500D01*
X48642038Y-15417500D01*
X48393215Y-15456910D01*
X48393209Y-15456911D01*
X48153625Y-15534757D01*
X48153619Y-15534760D01*
X47929151Y-15649132D01*
X47725341Y-15797209D01*
X47725338Y-15797211D01*
X47547211Y-15975338D01*
X47547209Y-15975341D01*
X47399132Y-16179151D01*
X47284760Y-16403619D01*
X47284757Y-16403625D01*
X47206911Y-16643209D01*
X47206910Y-16643214D01*
X47206910Y-16643215D01*
X47167500Y-16892038D01*
X17900500Y-16892038D01*
X17861090Y-16643215D01*
X17783241Y-16403621D01*
X17668870Y-16179155D01*
X17520793Y-15975344D01*
X17520790Y-15975341D01*
X17520788Y-15975338D01*
X17342661Y-15797211D01*
X17342658Y-15797209D01*
X17342656Y-15797207D01*
X17172079Y-15673276D01*
X17138848Y-15649132D01*
X17138847Y-15649131D01*
X17138845Y-15649130D01*
X16914379Y-15534759D01*
X16914376Y-15534758D01*
X16914374Y-15534757D01*
X16674790Y-15456911D01*
X16674786Y-15456910D01*
X16674785Y-15456910D01*
X16425962Y-15417500D01*
X16174038Y-15417500D01*
X15925215Y-15456910D01*
X15925209Y-15456911D01*
X15685625Y-15534757D01*
X15685619Y-15534760D01*
X15461151Y-15649132D01*
X15257341Y-15797209D01*
X15257338Y-15797211D01*
X15079211Y-15975338D01*
X15079209Y-15975341D01*
X14931132Y-16179151D01*
X14816760Y-16403619D01*
X14816757Y-16403625D01*
X14738911Y-16643209D01*
X14738910Y-16643214D01*
X14738910Y-16643215D01*
X14699500Y-16892038D01*
X13360115Y-16892038D01*
X13360613Y-16881268D01*
X13367079Y-16741404D01*
X13368153Y-16729816D01*
X13394659Y-16539800D01*
X13416946Y-16380028D01*
X13419078Y-16368625D01*
X13499938Y-16024829D01*
X13503121Y-16013645D01*
X13575663Y-15797209D01*
X13615353Y-15678789D01*
X13619545Y-15667965D01*
X13762208Y-15344866D01*
X13767372Y-15334493D01*
X13939244Y-15025923D01*
X13945348Y-15016066D01*
X14144953Y-14724678D01*
X14151935Y-14715433D01*
X14377577Y-14443702D01*
X14385398Y-14435124D01*
X14635124Y-14185398D01*
X14643702Y-14177577D01*
X14915433Y-13951935D01*
X14924678Y-13944953D01*
X15216066Y-13745348D01*
X15225923Y-13739244D01*
X15534493Y-13567372D01*
X15544866Y-13562208D01*
X15867965Y-13419545D01*
X15878789Y-13415353D01*
X16213647Y-13303120D01*
X16224829Y-13299938D01*
X16568625Y-13219078D01*
X16580028Y-13216946D01*
X16885686Y-13174308D01*
X16929816Y-13168153D01*
X16941404Y-13167079D01*
X17297102Y-13150634D01*
X17302921Y-13150500D01*
X17316408Y-13150500D01*
X47783592Y-13150500D01*
X47797079Y-13150500D01*
X47802898Y-13150634D01*
G37*
%TD.AperFunction*%
%TA.AperFunction,Conductor*%
G36*
X36012758Y-47843691D02*
G01*
X36016945Y-47845339D01*
X36060989Y-47863583D01*
X36060993Y-47863584D01*
X36061000Y-47863587D01*
X36236521Y-47898500D01*
X36236522Y-47898500D01*
X36364500Y-47898500D01*
X36432621Y-47918502D01*
X36479114Y-47972158D01*
X36490500Y-48024500D01*
X36490500Y-50704224D01*
X36504759Y-50757436D01*
X36506786Y-50765000D01*
X36531968Y-50858983D01*
X36579337Y-50941029D01*
X36582608Y-50949080D01*
X36585326Y-50976102D01*
X36591729Y-51002495D01*
X36588825Y-51010885D01*
X36589714Y-51019720D01*
X36577391Y-51043922D01*
X36568509Y-51069587D01*
X36561529Y-51075075D01*
X36557501Y-51082988D01*
X36534048Y-51096686D01*
X36512702Y-51113474D01*
X36501668Y-51115600D01*
X36496196Y-51118797D01*
X36487094Y-51118409D01*
X36465872Y-51122500D01*
X36263469Y-51122500D01*
X36195348Y-51102498D01*
X36148855Y-51048842D01*
X36137469Y-50996500D01*
X36137469Y-50940522D01*
X36137468Y-50940518D01*
X36102556Y-50765000D01*
X36034071Y-50599664D01*
X35934647Y-50450865D01*
X35874374Y-50390592D01*
X35840348Y-50328280D01*
X35837469Y-50301497D01*
X35837469Y-47967004D01*
X35846252Y-47937088D01*
X35852881Y-47906619D01*
X35856695Y-47901523D01*
X35857471Y-47898883D01*
X35874374Y-47877909D01*
X35879631Y-47872652D01*
X35941943Y-47838626D01*
X36012758Y-47843691D01*
G37*
%TD.AperFunction*%
%TA.AperFunction,Conductor*%
G36*
X46157409Y-34154502D02*
G01*
X46203902Y-34208158D01*
X46214006Y-34278432D01*
X46195265Y-34327337D01*
X46195393Y-34327405D01*
X46194851Y-34328417D01*
X46194053Y-34330502D01*
X46192477Y-34332860D01*
X46123992Y-34498194D01*
X46089078Y-34673716D01*
X46089078Y-34852679D01*
X46097491Y-34894971D01*
X46123991Y-35028198D01*
X46192476Y-35193534D01*
X46291900Y-35342333D01*
X46418443Y-35468876D01*
X46567242Y-35568300D01*
X46732578Y-35636785D01*
X46908099Y-35671698D01*
X46908100Y-35671698D01*
X47087056Y-35671698D01*
X47087057Y-35671698D01*
X47262578Y-35636785D01*
X47427914Y-35568300D01*
X47576713Y-35468876D01*
X47636986Y-35408603D01*
X47699298Y-35374577D01*
X47726081Y-35371698D01*
X50008958Y-35371698D01*
X50077079Y-35391700D01*
X50098053Y-35408602D01*
X50454595Y-35765143D01*
X50488620Y-35827456D01*
X50491500Y-35854239D01*
X50491500Y-39195761D01*
X50471498Y-39263882D01*
X50454595Y-39284856D01*
X50234856Y-39504595D01*
X50172544Y-39538621D01*
X50145761Y-39541500D01*
X49617525Y-39541500D01*
X49467601Y-39581672D01*
X49467599Y-39581672D01*
X49462770Y-39582965D01*
X49462760Y-39582969D01*
X49324012Y-39663075D01*
X49324002Y-39663083D01*
X47729429Y-41257658D01*
X47667117Y-41291683D01*
X47640334Y-41294563D01*
X47607605Y-41294563D01*
X47489907Y-41317975D01*
X47432087Y-41329476D01*
X47432086Y-41329476D01*
X47432083Y-41329477D01*
X47300989Y-41383779D01*
X47273125Y-41395321D01*
X47266749Y-41397962D01*
X47117956Y-41497382D01*
X47117949Y-41497387D01*
X46991411Y-41623925D01*
X46991406Y-41623932D01*
X46891986Y-41772725D01*
X46823501Y-41938059D01*
X46788587Y-42113581D01*
X46788587Y-42298673D01*
X46768585Y-42366794D01*
X46751682Y-42387768D01*
X43806251Y-45333198D01*
X43743939Y-45367224D01*
X43673123Y-45362159D01*
X43628061Y-45333198D01*
X43534162Y-45239299D01*
X43534160Y-45239297D01*
X43385361Y-45139873D01*
X43232159Y-45076414D01*
X43220028Y-45071389D01*
X43220026Y-45071388D01*
X43220025Y-45071388D01*
X43131670Y-45053813D01*
X43044506Y-45036475D01*
X43044504Y-45036475D01*
X42865546Y-45036475D01*
X42865543Y-45036475D01*
X42734796Y-45062482D01*
X42690025Y-45071388D01*
X42690024Y-45071388D01*
X42690021Y-45071389D01*
X42524687Y-45139874D01*
X42375894Y-45239294D01*
X42375887Y-45239299D01*
X42249349Y-45365837D01*
X42249344Y-45365844D01*
X42149923Y-45514638D01*
X42138836Y-45541405D01*
X42092446Y-45653401D01*
X42081959Y-45678718D01*
X42037410Y-45733999D01*
X41970047Y-45756420D01*
X41965550Y-45756500D01*
X39980226Y-45756500D01*
X39912105Y-45736498D01*
X39865612Y-45682842D01*
X39855508Y-45612568D01*
X39885002Y-45547988D01*
X39891131Y-45541405D01*
X39897898Y-45534638D01*
X39905678Y-45526858D01*
X40005102Y-45378059D01*
X40073587Y-45212723D01*
X40078920Y-45185906D01*
X40111826Y-45122998D01*
X40173520Y-45087864D01*
X40177863Y-45086919D01*
X40265000Y-45069587D01*
X40430336Y-45001102D01*
X40579135Y-44901678D01*
X40705678Y-44775135D01*
X40805102Y-44626336D01*
X40873587Y-44461000D01*
X40908500Y-44285479D01*
X40908500Y-44106521D01*
X40873587Y-43931000D01*
X40805102Y-43765664D01*
X40705678Y-43616865D01*
X40670405Y-43581592D01*
X40636379Y-43519280D01*
X40633500Y-43492497D01*
X40633500Y-43239607D01*
X40633499Y-43239603D01*
X40609155Y-43117215D01*
X40591084Y-43073587D01*
X40561401Y-43001925D01*
X40492072Y-42898167D01*
X40315405Y-42721500D01*
X40281379Y-42659188D01*
X40278500Y-42632405D01*
X40278500Y-42582522D01*
X40278499Y-42582518D01*
X40243587Y-42407000D01*
X40175102Y-42241664D01*
X40075678Y-42092865D01*
X39949135Y-41966322D01*
X39800336Y-41866898D01*
X39683429Y-41818473D01*
X39635003Y-41798414D01*
X39635001Y-41798413D01*
X39635000Y-41798413D01*
X39546645Y-41780838D01*
X39459481Y-41763500D01*
X39459479Y-41763500D01*
X39280521Y-41763500D01*
X39280518Y-41763500D01*
X39149771Y-41789507D01*
X39105000Y-41798413D01*
X39104999Y-41798413D01*
X39104996Y-41798414D01*
X38939662Y-41866899D01*
X38790869Y-41966319D01*
X38790867Y-41966320D01*
X38664323Y-42092863D01*
X38618413Y-42161572D01*
X38599754Y-42177165D01*
X38584277Y-42195912D01*
X38573011Y-42199513D01*
X38563935Y-42207099D01*
X38539811Y-42210128D01*
X38516653Y-42217533D01*
X38498310Y-42215340D01*
X38493492Y-42215946D01*
X38481043Y-42213277D01*
X38466948Y-42209501D01*
X38466943Y-42209500D01*
X38407218Y-42193497D01*
X36340500Y-42193497D01*
X36272379Y-42173495D01*
X36225886Y-42119839D01*
X36214500Y-42067497D01*
X36214500Y-42011519D01*
X36214499Y-42011515D01*
X36205510Y-41966324D01*
X36179587Y-41835997D01*
X36111102Y-41670661D01*
X36011678Y-41521862D01*
X35885135Y-41395319D01*
X35736336Y-41295895D01*
X35601827Y-41240179D01*
X35571003Y-41227411D01*
X35571001Y-41227410D01*
X35571000Y-41227410D01*
X35478841Y-41209078D01*
X35415933Y-41176171D01*
X35380801Y-41114476D01*
X35384601Y-41043581D01*
X35426127Y-40985995D01*
X35492194Y-40960001D01*
X35503424Y-40959500D01*
X40565500Y-40959500D01*
X40633621Y-40979502D01*
X40680114Y-41033158D01*
X40691500Y-41085500D01*
X40691500Y-41600544D01*
X40702112Y-41704425D01*
X40757885Y-41872738D01*
X40850970Y-42023652D01*
X40850975Y-42023658D01*
X40976341Y-42149024D01*
X40976347Y-42149029D01*
X40976348Y-42149030D01*
X41127262Y-42242115D01*
X41295574Y-42297887D01*
X41399455Y-42308500D01*
X42800544Y-42308499D01*
X42904426Y-42297887D01*
X43072738Y-42242115D01*
X43223652Y-42149030D01*
X43349030Y-42023652D01*
X43442115Y-41872738D01*
X43497887Y-41704426D01*
X43508500Y-41600545D01*
X43508499Y-40699456D01*
X43497887Y-40595574D01*
X43442115Y-40427262D01*
X43349030Y-40276348D01*
X43349029Y-40276347D01*
X43349024Y-40276341D01*
X43223658Y-40150975D01*
X43223652Y-40150970D01*
X43118319Y-40086000D01*
X43072738Y-40057885D01*
X42988582Y-40029999D01*
X42904427Y-40002113D01*
X42904420Y-40002112D01*
X42800553Y-39991500D01*
X42800545Y-39991500D01*
X41884500Y-39991500D01*
X41816379Y-39971498D01*
X41769886Y-39917842D01*
X41758500Y-39865500D01*
X41758500Y-34999736D01*
X41778502Y-34931615D01*
X41832158Y-34885122D01*
X41902432Y-34875018D01*
X41954501Y-34894970D01*
X41969664Y-34905102D01*
X42135000Y-34973587D01*
X42310521Y-35008500D01*
X42310522Y-35008500D01*
X42489478Y-35008500D01*
X42489479Y-35008500D01*
X42665000Y-34973587D01*
X42830336Y-34905102D01*
X42979135Y-34805678D01*
X43105678Y-34679135D01*
X43205102Y-34530336D01*
X43273587Y-34365000D01*
X43299263Y-34235918D01*
X43332171Y-34173009D01*
X43393866Y-34137877D01*
X43422842Y-34134500D01*
X46089288Y-34134500D01*
X46157409Y-34154502D01*
G37*
%TD.AperFunction*%
%TA.AperFunction,Conductor*%
G36*
X21787039Y-35833685D02*
G01*
X21832794Y-35886489D01*
X21844000Y-35938000D01*
X21844000Y-47628000D01*
X21824315Y-47695039D01*
X21771511Y-47740794D01*
X21720000Y-47752000D01*
X18568171Y-47752000D01*
X18501132Y-47732315D01*
X18455377Y-47679511D01*
X18445433Y-47610353D01*
X18470264Y-47555483D01*
X18468582Y-47554261D01*
X18587095Y-47391143D01*
X18676418Y-47215837D01*
X18737218Y-47028716D01*
X18743984Y-46986000D01*
X17393278Y-46986000D01*
X17437333Y-46909694D01*
X17468000Y-46795244D01*
X17468000Y-46676756D01*
X17437333Y-46562306D01*
X17393278Y-46486000D01*
X18743984Y-46486000D01*
X18737218Y-46443283D01*
X18676418Y-46256162D01*
X18587096Y-46080859D01*
X18565519Y-46051161D01*
X18542038Y-45985355D01*
X18557862Y-45917300D01*
X18574827Y-45894051D01*
X18582489Y-45885770D01*
X18631261Y-45849261D01*
X18694696Y-45764520D01*
X18699086Y-45759778D01*
X18723754Y-45745040D01*
X18746762Y-45727818D01*
X18755102Y-45726313D01*
X18759067Y-45723945D01*
X18766823Y-45724198D01*
X18790095Y-45720000D01*
X19304000Y-45720000D01*
X19304000Y-35938000D01*
X19323685Y-35870961D01*
X19376489Y-35825206D01*
X19428000Y-35814000D01*
X21720000Y-35814000D01*
X21787039Y-35833685D01*
G37*
%TD.AperFunction*%
M02*
