%TF.GenerationSoftware,KiCad,Pcbnew,9.0.7*%
%TF.CreationDate,2026-02-07T20:34:06-05:00*%
%TF.ProjectId,USB-Cellular-Modem,5553422d-4365-46c6-9c75-6c61722d4d6f,V1.2*%
%TF.SameCoordinates,Original*%
%TF.FileFunction,Copper,L1,Top*%
%TF.FilePolarity,Positive*%
%FSLAX46Y46*%
G04 Gerber Fmt 4.6, Leading zero omitted, Abs format (unit mm)*
G04 Created by KiCad (PCBNEW 9.0.7) date 2026-02-07 20:34:06*
%MOMM*%
%LPD*%
G01*
G04 APERTURE LIST*
G04 Aperture macros list*
%AMRoundRect*
0 Rectangle with rounded corners*
0 $1 Rounding radius*
0 $2 $3 $4 $5 $6 $7 $8 $9 X,Y pos of 4 corners*
0 Add a 4 corners polygon primitive as box body*
4,1,4,$2,$3,$4,$5,$6,$7,$8,$9,$2,$3,0*
0 Add four circle primitives for the rounded corners*
1,1,$1+$1,$2,$3*
1,1,$1+$1,$4,$5*
1,1,$1+$1,$6,$7*
1,1,$1+$1,$8,$9*
0 Add four rect primitives between the rounded corners*
20,1,$1+$1,$2,$3,$4,$5,0*
20,1,$1+$1,$4,$5,$6,$7,0*
20,1,$1+$1,$6,$7,$8,$9,0*
20,1,$1+$1,$8,$9,$2,$3,0*%
%AMFreePoly0*
4,1,14,0.788536,1.553536,0.790000,1.550000,0.790000,-1.550000,0.788536,-1.553536,0.785000,-1.555000,-1.815000,-1.555000,-1.818536,-1.553536,-1.820000,-1.550000,-1.820000,0.520000,-1.818536,0.523536,-0.788536,1.553536,-0.785000,1.555000,0.785000,1.555000,0.788536,1.553536,0.788536,1.553536,$1*%
%AMFreePoly1*
4,1,9,1.050000,0.350000,0.550000,0.000000,0.550000,-0.400000,0.800000,-0.650000,0.800000,-0.800000,-1.050000,-0.800000,-1.050000,0.800000,1.050000,0.800000,1.050000,0.350000,1.050000,0.350000,$1*%
%AMFreePoly2*
4,1,9,1.050000,-0.800000,-0.800000,-0.800000,-0.800000,-0.650000,-0.550000,-0.400000,-0.550000,0.000000,-1.050000,0.350000,-1.050000,0.800000,1.050000,0.800000,1.050000,-0.800000,1.050000,-0.800000,$1*%
G04 Aperture macros list end*
%TA.AperFunction,SMDPad,CuDef*%
%ADD10RoundRect,0.237500X-0.287500X-0.237500X0.287500X-0.237500X0.287500X0.237500X-0.287500X0.237500X0*%
%TD*%
%TA.AperFunction,SMDPad,CuDef*%
%ADD11RoundRect,0.250000X0.412500X0.650000X-0.412500X0.650000X-0.412500X-0.650000X0.412500X-0.650000X0*%
%TD*%
%TA.AperFunction,SMDPad,CuDef*%
%ADD12RoundRect,0.237500X0.237500X-0.287500X0.237500X0.287500X-0.237500X0.287500X-0.237500X-0.287500X0*%
%TD*%
%TA.AperFunction,SMDPad,CuDef*%
%ADD13RoundRect,0.237500X0.287500X0.237500X-0.287500X0.237500X-0.287500X-0.237500X0.287500X-0.237500X0*%
%TD*%
%TA.AperFunction,SMDPad,CuDef*%
%ADD14R,0.400000X1.500000*%
%TD*%
%TA.AperFunction,SMDPad,CuDef*%
%ADD15R,1.000000X1.050000*%
%TD*%
%TA.AperFunction,SMDPad,CuDef*%
%ADD16R,1.050000X2.200000*%
%TD*%
%TA.AperFunction,SMDPad,CuDef*%
%ADD17R,1.000000X1.500000*%
%TD*%
%TA.AperFunction,SMDPad,CuDef*%
%ADD18R,1.560000X0.650000*%
%TD*%
%TA.AperFunction,SMDPad,CuDef*%
%ADD19R,0.600000X1.600000*%
%TD*%
%TA.AperFunction,SMDPad,CuDef*%
%ADD20R,1.600000X0.600000*%
%TD*%
%TA.AperFunction,SMDPad,CuDef*%
%ADD21R,0.900000X1.100000*%
%TD*%
%TA.AperFunction,SMDPad,CuDef*%
%ADD22R,1.100000X0.900000*%
%TD*%
%TA.AperFunction,SMDPad,CuDef*%
%ADD23FreePoly0,90.000000*%
%TD*%
%TA.AperFunction,SMDPad,CuDef*%
%ADD24R,3.100000X2.600000*%
%TD*%
%TA.AperFunction,SMDPad,CuDef*%
%ADD25R,0.407200X0.909599*%
%TD*%
%TA.AperFunction,SMDPad,CuDef*%
%ADD26R,4.292600X3.505200*%
%TD*%
%TA.AperFunction,SMDPad,CuDef*%
%ADD27R,1.350000X0.400000*%
%TD*%
%TA.AperFunction,SMDPad,CuDef*%
%ADD28FreePoly1,90.000000*%
%TD*%
%TA.AperFunction,HeatsinkPad*%
%ADD29O,1.700000X1.000000*%
%TD*%
%TA.AperFunction,SMDPad,CuDef*%
%ADD30R,1.900000X1.900000*%
%TD*%
%TA.AperFunction,HeatsinkPad*%
%ADD31O,1.700000X0.850000*%
%TD*%
%TA.AperFunction,SMDPad,CuDef*%
%ADD32FreePoly2,90.000000*%
%TD*%
%TA.AperFunction,SMDPad,CuDef*%
%ADD33RoundRect,0.250001X0.872499X1.044999X-0.872499X1.044999X-0.872499X-1.044999X0.872499X-1.044999X0*%
%TD*%
%TA.AperFunction,SMDPad,CuDef*%
%ADD34RoundRect,0.237500X0.237500X-0.300000X0.237500X0.300000X-0.237500X0.300000X-0.237500X-0.300000X0*%
%TD*%
%TA.AperFunction,SMDPad,CuDef*%
%ADD35RoundRect,0.125000X0.125000X-0.487500X0.125000X0.487500X-0.125000X0.487500X-0.125000X-0.487500X0*%
%TD*%
%TA.AperFunction,SMDPad,CuDef*%
%ADD36RoundRect,0.237500X0.300000X0.237500X-0.300000X0.237500X-0.300000X-0.237500X0.300000X-0.237500X0*%
%TD*%
%TA.AperFunction,SMDPad,CuDef*%
%ADD37RoundRect,0.237500X-0.237500X0.287500X-0.237500X-0.287500X0.237500X-0.287500X0.237500X0.287500X0*%
%TD*%
%TA.AperFunction,ComponentPad*%
%ADD38R,1.700000X1.700000*%
%TD*%
%TA.AperFunction,ComponentPad*%
%ADD39C,1.700000*%
%TD*%
%TA.AperFunction,SMDPad,CuDef*%
%ADD40RoundRect,0.125000X-0.125000X0.487500X-0.125000X-0.487500X0.125000X-0.487500X0.125000X0.487500X0*%
%TD*%
%TA.AperFunction,SMDPad,CuDef*%
%ADD41RoundRect,0.250000X-0.250000X-0.475000X0.250000X-0.475000X0.250000X0.475000X-0.250000X0.475000X0*%
%TD*%
%TA.AperFunction,SMDPad,CuDef*%
%ADD42RoundRect,0.237500X-0.237500X0.250000X-0.237500X-0.250000X0.237500X-0.250000X0.237500X0.250000X0*%
%TD*%
%TA.AperFunction,SMDPad,CuDef*%
%ADD43RoundRect,0.237500X0.250000X0.237500X-0.250000X0.237500X-0.250000X-0.237500X0.250000X-0.237500X0*%
%TD*%
%TA.AperFunction,SMDPad,CuDef*%
%ADD44RoundRect,0.237500X-0.250000X-0.237500X0.250000X-0.237500X0.250000X0.237500X-0.250000X0.237500X0*%
%TD*%
%TA.AperFunction,ComponentPad*%
%ADD45O,3.500000X2.200000*%
%TD*%
%TA.AperFunction,ComponentPad*%
%ADD46R,2.500000X1.500000*%
%TD*%
%TA.AperFunction,ComponentPad*%
%ADD47O,2.500000X1.500000*%
%TD*%
%TA.AperFunction,SMDPad,CuDef*%
%ADD48RoundRect,0.237500X-0.300000X-0.237500X0.300000X-0.237500X0.300000X0.237500X-0.300000X0.237500X0*%
%TD*%
%TA.AperFunction,SMDPad,CuDef*%
%ADD49RoundRect,0.250001X1.074999X-0.462499X1.074999X0.462499X-1.074999X0.462499X-1.074999X-0.462499X0*%
%TD*%
%TA.AperFunction,SMDPad,CuDef*%
%ADD50RoundRect,0.250001X0.624999X-0.462499X0.624999X0.462499X-0.624999X0.462499X-0.624999X-0.462499X0*%
%TD*%
%TA.AperFunction,SMDPad,CuDef*%
%ADD51RoundRect,0.250000X-1.075000X0.400000X-1.075000X-0.400000X1.075000X-0.400000X1.075000X0.400000X0*%
%TD*%
%TA.AperFunction,SMDPad,CuDef*%
%ADD52RoundRect,0.075000X-0.075000X0.312500X-0.075000X-0.312500X0.075000X-0.312500X0.075000X0.312500X0*%
%TD*%
%TA.AperFunction,SMDPad,CuDef*%
%ADD53RoundRect,0.075000X-0.312500X0.075000X-0.312500X-0.075000X0.312500X-0.075000X0.312500X0.075000X0*%
%TD*%
%TA.AperFunction,HeatsinkPad*%
%ADD54R,1.800000X1.800000*%
%TD*%
%TA.AperFunction,SMDPad,CuDef*%
%ADD55RoundRect,0.237500X0.237500X-0.250000X0.237500X0.250000X-0.237500X0.250000X-0.237500X-0.250000X0*%
%TD*%
%TA.AperFunction,SMDPad,CuDef*%
%ADD56RoundRect,0.087500X-0.250000X-0.087500X0.250000X-0.087500X0.250000X0.087500X-0.250000X0.087500X0*%
%TD*%
%TA.AperFunction,SMDPad,CuDef*%
%ADD57RoundRect,0.162500X0.162500X-0.617500X0.162500X0.617500X-0.162500X0.617500X-0.162500X-0.617500X0*%
%TD*%
%TA.AperFunction,ViaPad*%
%ADD58C,0.800000*%
%TD*%
%TA.AperFunction,Conductor*%
%ADD59C,0.200000*%
%TD*%
%TA.AperFunction,Conductor*%
%ADD60C,0.500000*%
%TD*%
%TA.AperFunction,Conductor*%
%ADD61C,0.300000*%
%TD*%
%TA.AperFunction,Conductor*%
%ADD62C,0.250000*%
%TD*%
G04 APERTURE END LIST*
D10*
X29825000Y-18200000D03*
X31575000Y-18200000D03*
X29825000Y-23000000D03*
X31575000Y-23000000D03*
D11*
X20574000Y-26670000D03*
X17449000Y-26670000D03*
D12*
X22352000Y-26670000D03*
X22352000Y-24920000D03*
X24130000Y-26670000D03*
X24130000Y-24920000D03*
D13*
X43175000Y-19100000D03*
X41425000Y-19100000D03*
D10*
X49125000Y-32000000D03*
X50875000Y-32000000D03*
D14*
X43800000Y-50860000D03*
X44450000Y-50860000D03*
X45100000Y-50860000D03*
X45100000Y-48200000D03*
X43800000Y-48200000D03*
D15*
X29800000Y-16450000D03*
D16*
X28325000Y-14925000D03*
X31275000Y-14925000D03*
D17*
X45832000Y-30734000D03*
X47132000Y-30734000D03*
D12*
X29800000Y-21475000D03*
X29800000Y-19725000D03*
D13*
X50875000Y-29900000D03*
X49125000Y-29900000D03*
D18*
X41650000Y-20850000D03*
X41650000Y-21800000D03*
X41650000Y-22750000D03*
X44350000Y-22750000D03*
X44350000Y-21800000D03*
X44350000Y-20850000D03*
D19*
X28650000Y-40850000D03*
X29750000Y-40850000D03*
X30850000Y-40850000D03*
X31950000Y-40850000D03*
X33050000Y-40850000D03*
X34150000Y-40850000D03*
X35250000Y-40850000D03*
X36350000Y-40850000D03*
X37450000Y-40850000D03*
X38550000Y-40850000D03*
X39650000Y-40850000D03*
X40750000Y-40850000D03*
D20*
X43500000Y-37400000D03*
X43500000Y-36300000D03*
X43500000Y-35200000D03*
X43500000Y-34100000D03*
X43500000Y-33000000D03*
X43500000Y-31900000D03*
X43500000Y-30800000D03*
X43500000Y-29700000D03*
X43500000Y-28600000D03*
D19*
X40750000Y-25150000D03*
X39650000Y-25150000D03*
X38550000Y-25150000D03*
X37450000Y-25150000D03*
X36350000Y-25150000D03*
X35250000Y-25150000D03*
X34150000Y-25150000D03*
X33050000Y-25150000D03*
X31950000Y-25150000D03*
X30850000Y-25150000D03*
X29750000Y-25150000D03*
X28650000Y-25150000D03*
D20*
X25900000Y-28600000D03*
X25900000Y-29700000D03*
X25900000Y-30800000D03*
X25900000Y-31900000D03*
X25900000Y-33000000D03*
X25900000Y-34100000D03*
X25900000Y-35200000D03*
X25900000Y-36300000D03*
X25900000Y-37400000D03*
D21*
X29800000Y-38350000D03*
X31200000Y-38350000D03*
X32600000Y-38350000D03*
X34000000Y-38350000D03*
X35400000Y-38350000D03*
X36800000Y-38350000D03*
X38200000Y-38350000D03*
X39600000Y-38350000D03*
D22*
X41000000Y-37200000D03*
X41000000Y-35800000D03*
X41000000Y-34400000D03*
X41000000Y-33000000D03*
X41000000Y-31600000D03*
X41000000Y-30200000D03*
X41000000Y-28800000D03*
D21*
X39600000Y-27650000D03*
X38200000Y-27650000D03*
X36800000Y-27650000D03*
X35400000Y-27650000D03*
X34000000Y-27650000D03*
D22*
X28400000Y-30200000D03*
X28400000Y-31600000D03*
X28400000Y-33000000D03*
X28400000Y-34400000D03*
X28400000Y-35800000D03*
X28400000Y-37200000D03*
D23*
X31300000Y-35385000D03*
D24*
X34700000Y-35900000D03*
X38100000Y-35900000D03*
X38100000Y-33000000D03*
X38100000Y-30100000D03*
X34700000Y-30100000D03*
X31300000Y-30100000D03*
X31300000Y-33000000D03*
X34700000Y-33000000D03*
D25*
X46195000Y-39958200D03*
X47465000Y-39958200D03*
X48735000Y-39958200D03*
X50005000Y-39958200D03*
X50005000Y-34273400D03*
X48735000Y-34273400D03*
X47465000Y-34273400D03*
X46195000Y-34273400D03*
D26*
X48100000Y-37115800D03*
D27*
X47245000Y-25938000D03*
X47245000Y-25288000D03*
X47245000Y-24638000D03*
X47245000Y-23988000D03*
X47245000Y-23338000D03*
D28*
X47370000Y-27738000D03*
D29*
X49920000Y-27463000D03*
D30*
X49920000Y-25838000D03*
X49920000Y-23438000D03*
D31*
X49920000Y-21813000D03*
D32*
X47370000Y-21538000D03*
D33*
X21221500Y-33020000D03*
X14806500Y-33020000D03*
D34*
X35560000Y-46328500D03*
X35560000Y-44603500D03*
D35*
X46550000Y-45337500D03*
X47850000Y-45337500D03*
X47200000Y-43462500D03*
D33*
X21241500Y-38354000D03*
X14826500Y-38354000D03*
D36*
X28649000Y-47828000D03*
X26924000Y-47828000D03*
D37*
X50900000Y-43725000D03*
X50900000Y-45475000D03*
D36*
X33374500Y-48768000D03*
X31649500Y-48768000D03*
D38*
X36360000Y-56600000D03*
D39*
X33820000Y-56600000D03*
X31280000Y-56600000D03*
X28740000Y-56600000D03*
D40*
X24780000Y-39527000D03*
X23480000Y-39527000D03*
X24130000Y-41402000D03*
D35*
X46450000Y-51137500D03*
X47750000Y-51137500D03*
X47100000Y-49262500D03*
D41*
X24196000Y-50038000D03*
X26096000Y-50038000D03*
D42*
X49276000Y-49379500D03*
X49276000Y-51204500D03*
D43*
X33424500Y-47244000D03*
X31599500Y-47244000D03*
D44*
X39624000Y-50292000D03*
X41449000Y-50292000D03*
D43*
X33424500Y-45720000D03*
X31599500Y-45720000D03*
D45*
X17018000Y-42636000D03*
X17018000Y-50836000D03*
D46*
X17018000Y-44736000D03*
D47*
X17018000Y-46736000D03*
X17018000Y-48736000D03*
D48*
X26924000Y-44628000D03*
X28649000Y-44628000D03*
D11*
X20612500Y-29210000D03*
X17487500Y-29210000D03*
D49*
X21590000Y-47715500D03*
X21590000Y-44740500D03*
D41*
X20640000Y-42418000D03*
X22540000Y-42418000D03*
D37*
X51054000Y-49417000D03*
X51054000Y-51167000D03*
D50*
X25654000Y-55843500D03*
X25654000Y-52868500D03*
D36*
X28649000Y-46228000D03*
X26924000Y-46228000D03*
D51*
X21590000Y-49758000D03*
X21590000Y-52858000D03*
D52*
X37326000Y-48042500D03*
X36826000Y-48042500D03*
X36326000Y-48042500D03*
X35826000Y-48042500D03*
D53*
X35088500Y-48780000D03*
X35088500Y-49280000D03*
X35088500Y-49780000D03*
X35088500Y-50280000D03*
D52*
X35826000Y-51017500D03*
X36326000Y-51017500D03*
X36826000Y-51017500D03*
X37326000Y-51017500D03*
D53*
X38063500Y-50280000D03*
X38063500Y-49780000D03*
X38063500Y-49280000D03*
X38063500Y-48780000D03*
D54*
X36576000Y-49530000D03*
D55*
X49300000Y-45512500D03*
X49300000Y-43687500D03*
D56*
X23925500Y-47252000D03*
X23925500Y-47752000D03*
X23925500Y-48252000D03*
X25350500Y-48252000D03*
X25350500Y-47752000D03*
X25350500Y-47252000D03*
D57*
X31550000Y-53600000D03*
X32500000Y-53600000D03*
X33450000Y-53600000D03*
X33450000Y-50900000D03*
X32500000Y-50900000D03*
X31550000Y-50900000D03*
D34*
X37338000Y-46328500D03*
X37338000Y-44603500D03*
D58*
X48260000Y-48050000D03*
X42418000Y-55626000D03*
X20828000Y-51308000D03*
X20800000Y-22100000D03*
X14732000Y-30480000D03*
X19812000Y-56896000D03*
X19812000Y-58674000D03*
X28400000Y-29050000D03*
X35260000Y-23110000D03*
X42926000Y-39370000D03*
X34345042Y-44394958D03*
X17272000Y-40132000D03*
X23650000Y-33150000D03*
X29972000Y-53594000D03*
X38100000Y-34400000D03*
X36322000Y-19050000D03*
X45466000Y-40640000D03*
X46228000Y-52578000D03*
X28450000Y-17900000D03*
X17960000Y-24729000D03*
X23114000Y-46228000D03*
X20800000Y-16500000D03*
X29551678Y-45402317D03*
X24638000Y-42672000D03*
X17272000Y-34798000D03*
X44196000Y-41910000D03*
X47244000Y-13970000D03*
X17272000Y-31242000D03*
X22860000Y-23154000D03*
X23368000Y-13970000D03*
X23650000Y-30950000D03*
X17272000Y-38354000D03*
X14732000Y-35560000D03*
X51353151Y-24638087D03*
X23368000Y-35306000D03*
X22352000Y-51308000D03*
X45466000Y-41910000D03*
X36400000Y-35900000D03*
X41656000Y-13970000D03*
X45974000Y-27178000D03*
X24460000Y-23154000D03*
X16256000Y-35560000D03*
X44196000Y-40640000D03*
X34750000Y-30200000D03*
X32100000Y-16950000D03*
X17512000Y-58674000D03*
X33800000Y-14100000D03*
X44450000Y-27178000D03*
X14800000Y-22100000D03*
X42926000Y-27178000D03*
X25654000Y-16256000D03*
X18288000Y-14100000D03*
X33150000Y-23010000D03*
X23368000Y-19050000D03*
X14732000Y-26670000D03*
X26924000Y-19558000D03*
X44196000Y-43180000D03*
X37512000Y-58674000D03*
X31300000Y-33000000D03*
X48100000Y-37115800D03*
X23650000Y-32050000D03*
X50900000Y-31000000D03*
X45466000Y-43180000D03*
X45974000Y-55626000D03*
X23300000Y-20600000D03*
X38100000Y-31500000D03*
X24638000Y-44450000D03*
X26924000Y-24384000D03*
X16800000Y-22100000D03*
X26162000Y-18034000D03*
X17272000Y-36576000D03*
X30226000Y-50800000D03*
X45974000Y-58674000D03*
X32650000Y-14950000D03*
X36322000Y-13970000D03*
X32512000Y-58674000D03*
X17272000Y-33020000D03*
X23300000Y-16600000D03*
X44450000Y-53848000D03*
X31050000Y-19650000D03*
X29350000Y-30100000D03*
X27512000Y-58674000D03*
X26900000Y-15050000D03*
X34700000Y-34400000D03*
X23368000Y-36576000D03*
X28500000Y-21500000D03*
X36322000Y-42100997D03*
X41402000Y-27178000D03*
X31050000Y-21400000D03*
X33782000Y-16510000D03*
X26924000Y-23368000D03*
X36300000Y-16600000D03*
X42512000Y-58674000D03*
X38000000Y-30150000D03*
X36300000Y-21100000D03*
X39116000Y-13970000D03*
X45650000Y-19800000D03*
X20800000Y-19100000D03*
X26924000Y-21590000D03*
X34700000Y-33000000D03*
X33000000Y-33000000D03*
X25908000Y-42672000D03*
X24638000Y-46228000D03*
X38100000Y-33000000D03*
X36400000Y-30100000D03*
X44196000Y-39370000D03*
X36400000Y-33000000D03*
X33782000Y-18034000D03*
X22352000Y-56896000D03*
X25800000Y-14100000D03*
X36399000Y-49530000D03*
X39116000Y-16500000D03*
X22352000Y-58674000D03*
X38800000Y-19100000D03*
X33500000Y-35900000D03*
X40100000Y-21800000D03*
X31300000Y-35900000D03*
X45900000Y-28600000D03*
X28500000Y-19650000D03*
X30226000Y-49276000D03*
X38100000Y-35900000D03*
X41656000Y-16510000D03*
X50038000Y-48050000D03*
X34700000Y-31500000D03*
X28500000Y-23400000D03*
X14732000Y-25400000D03*
X42128089Y-30810673D03*
X31300000Y-30100000D03*
X32512000Y-20574000D03*
X34700000Y-35900000D03*
X33782000Y-21590000D03*
X20860000Y-24866500D03*
X33782000Y-19558000D03*
X44450000Y-13970000D03*
X20800000Y-14100000D03*
X27940000Y-53594000D03*
X18800000Y-20600000D03*
X14732000Y-27940000D03*
X48700000Y-23400000D03*
X31300000Y-31500000D03*
X14732000Y-29210000D03*
X27500000Y-16950000D03*
X33000000Y-30100000D03*
X31593025Y-43118000D03*
X27149000Y-40351000D03*
X45200000Y-32100000D03*
X28283969Y-43118000D03*
X44299998Y-48391180D03*
X50800000Y-42400000D03*
X46997578Y-34763198D03*
X47697087Y-42203063D03*
X42955025Y-45944975D03*
X42672000Y-48050000D03*
X49400000Y-41439000D03*
X48177647Y-33501000D03*
X45187196Y-46037500D03*
X48701000Y-42200000D03*
X42400000Y-34100000D03*
X40100000Y-22850000D03*
X37300000Y-22850000D03*
X40000000Y-44196000D03*
X39370000Y-42672000D03*
X35306000Y-42100997D03*
X39200000Y-44947723D03*
X49845889Y-45950000D03*
X19812000Y-36068000D03*
X21590000Y-36068000D03*
X19812000Y-38100000D03*
X21590000Y-40132000D03*
X19812000Y-40132000D03*
X35228969Y-51030000D03*
X36326000Y-46990000D03*
X35194080Y-52481000D03*
X27250771Y-42688801D03*
D59*
X33886500Y-49280000D02*
X33374500Y-48768000D01*
X35088500Y-49280000D02*
X33886500Y-49280000D01*
D60*
X31300000Y-30100000D02*
X31300000Y-30100000D01*
X31300000Y-35900000D02*
X32600000Y-37200000D01*
X33500000Y-35900000D02*
X31300000Y-35900000D01*
D59*
X29551678Y-45402317D02*
X29423317Y-45402317D01*
X23925500Y-46940500D02*
X24638000Y-46228000D01*
D60*
X31200000Y-35800000D02*
X31300000Y-35900000D01*
D61*
X30850000Y-25150000D02*
X30850000Y-23725000D01*
D60*
X31300000Y-35900000D02*
X31300000Y-35900000D01*
D61*
X30850000Y-23725000D02*
X31575000Y-23000000D01*
D59*
X44450000Y-50860000D02*
X44450000Y-53848000D01*
D60*
X27500000Y-15800000D02*
X25800000Y-14100000D01*
D59*
X36826000Y-48042500D02*
X36826000Y-49280000D01*
X40100000Y-21800000D02*
X41650000Y-21800000D01*
X36350000Y-40850000D02*
X36350000Y-42072997D01*
X29423317Y-45402317D02*
X28649000Y-44628000D01*
D62*
X50875000Y-31025000D02*
X50900000Y-31000000D01*
D60*
X28650000Y-25150000D02*
X28650000Y-18100000D01*
D59*
X23925500Y-47039500D02*
X23114000Y-46228000D01*
D60*
X28450000Y-16600000D02*
X26900000Y-15050000D01*
X28450000Y-17900000D02*
X28450000Y-16600000D01*
D59*
X36350000Y-42072997D02*
X36322000Y-42100997D01*
D60*
X32600000Y-37200000D02*
X32600000Y-38350000D01*
D59*
X34654084Y-44704000D02*
X36576000Y-44704000D01*
D62*
X48650000Y-23350000D02*
X48700000Y-23400000D01*
D60*
X25900000Y-30800000D02*
X27200000Y-30800000D01*
X33800000Y-14100000D02*
X30850000Y-17050000D01*
D59*
X36576000Y-44704000D02*
X36676500Y-44603500D01*
X23925500Y-47252000D02*
X23925500Y-47039500D01*
D62*
X42138762Y-30800000D02*
X42128089Y-30810673D01*
D60*
X28500000Y-35900000D02*
X28400000Y-35800000D01*
X31300000Y-35900000D02*
X28500000Y-35900000D01*
D62*
X43500000Y-30800000D02*
X42138762Y-30800000D01*
D60*
X30850000Y-17050000D02*
X30850000Y-25150000D01*
D62*
X47200000Y-23350000D02*
X48650000Y-23350000D01*
D59*
X34345042Y-44394958D02*
X34654084Y-44704000D01*
X23925500Y-47252000D02*
X23925500Y-46940500D01*
D60*
X31200000Y-30200000D02*
X31300000Y-30100000D01*
X27800000Y-30200000D02*
X28400000Y-30200000D01*
D59*
X32500000Y-53600000D02*
X32500000Y-57800000D01*
D62*
X50875000Y-32000000D02*
X50875000Y-31025000D01*
D60*
X34700000Y-35900000D02*
X33500000Y-35900000D01*
X27200000Y-30800000D02*
X27800000Y-30200000D01*
D59*
X36676500Y-44603500D02*
X37338000Y-44603500D01*
D60*
X43500000Y-28600000D02*
X45900000Y-28600000D01*
D59*
X34426134Y-45466000D02*
X36475500Y-45466000D01*
X24799000Y-38001000D02*
X27149000Y-40351000D01*
X37326000Y-46340500D02*
X37338000Y-46328500D01*
D62*
X49067000Y-30701000D02*
X50074000Y-30701000D01*
D59*
X31593025Y-43599429D02*
X32189596Y-44196000D01*
X36475500Y-45466000D02*
X37338000Y-46328500D01*
X28283969Y-42989918D02*
X27950000Y-42655949D01*
X25400000Y-35200000D02*
X24799000Y-35801000D01*
X33156134Y-44196000D02*
X34426134Y-45466000D01*
X25900000Y-35200000D02*
X25400000Y-35200000D01*
X27950000Y-41152000D02*
X27149000Y-40351000D01*
X31593025Y-43118000D02*
X31593025Y-43599429D01*
D62*
X50074000Y-30701000D02*
X50875000Y-29900000D01*
D59*
X32189596Y-44196000D02*
X33156134Y-44196000D01*
X28283969Y-43118000D02*
X28283969Y-42989918D01*
D62*
X45200000Y-32100000D02*
X47668000Y-32100000D01*
D59*
X24799000Y-35801000D02*
X24799000Y-38001000D01*
X37326000Y-48042500D02*
X37326000Y-46340500D01*
D62*
X47668000Y-32100000D02*
X49067000Y-30701000D01*
D59*
X27950000Y-42655949D02*
X27950000Y-41152000D01*
D61*
X29800000Y-19725000D02*
X29800000Y-18225000D01*
X29800000Y-18175000D02*
X29825000Y-18200000D01*
X29800000Y-16450000D02*
X29800000Y-18175000D01*
X29800000Y-18225000D02*
X29825000Y-18200000D01*
X29800000Y-22975000D02*
X29825000Y-23000000D01*
X29825000Y-25075000D02*
X29750000Y-25150000D01*
X29825000Y-23000000D02*
X29825000Y-25075000D01*
X29800000Y-21475000D02*
X29800000Y-22975000D01*
D59*
X44008636Y-31900000D02*
X44854318Y-32745682D01*
X51401000Y-33601000D02*
X51401000Y-41599000D01*
X43500000Y-31900000D02*
X44008636Y-31900000D01*
X46195000Y-34273400D02*
X46195000Y-32806000D01*
X51401000Y-33601000D02*
X50601000Y-32801000D01*
X51401000Y-41599000D02*
X51150000Y-41850000D01*
X44909636Y-32801000D02*
X44854318Y-32745682D01*
X46200000Y-32801000D02*
X44909636Y-32801000D01*
X49125000Y-32000000D02*
X49125000Y-32726000D01*
X49200000Y-32801000D02*
X49100000Y-32801000D01*
X49100000Y-32801000D02*
X46200000Y-32801000D01*
X51150000Y-41850000D02*
X50800000Y-42200000D01*
X50800000Y-42200000D02*
X50800000Y-42400000D01*
X43800000Y-48200000D02*
X44108818Y-48200000D01*
X50601000Y-32801000D02*
X49200000Y-32801000D01*
X49125000Y-32726000D02*
X49200000Y-32801000D01*
X46195000Y-32806000D02*
X46200000Y-32801000D01*
X46195000Y-34086364D02*
X46195000Y-34273400D01*
X44108818Y-48200000D02*
X44299998Y-48391180D01*
X45462200Y-35062200D02*
X45100000Y-34700000D01*
X47465000Y-34935000D02*
X47465000Y-34273400D01*
X46700000Y-35062200D02*
X45462200Y-35062200D01*
X42955025Y-45944975D02*
X45100000Y-48089950D01*
D62*
X43600000Y-33100000D02*
X43500000Y-33000000D01*
D59*
X45100000Y-34700000D02*
X45100000Y-33600000D01*
X45100000Y-48089950D02*
X45100000Y-48200000D01*
X47337800Y-35062200D02*
X47465000Y-34935000D01*
X45100000Y-33600000D02*
X44500000Y-33000000D01*
X46700000Y-35062200D02*
X47337800Y-35062200D01*
X44500000Y-33000000D02*
X43500000Y-33000000D01*
X45762200Y-35062200D02*
X46700000Y-35062200D01*
X42672000Y-48514000D02*
X42672000Y-48050000D01*
X45500000Y-36500000D02*
X44200000Y-35200000D01*
D62*
X49400000Y-41439000D02*
X49400000Y-40623200D01*
D59*
X43800000Y-50860000D02*
X43800000Y-49642000D01*
X48735000Y-39958200D02*
X47946200Y-39169400D01*
X45500000Y-39016700D02*
X45500000Y-36500000D01*
X43800000Y-49642000D02*
X42672000Y-48514000D01*
X45652700Y-39169400D02*
X45500000Y-39016700D01*
D62*
X49400000Y-40623200D02*
X48735000Y-39958200D01*
D59*
X47946200Y-39169400D02*
X45652700Y-39169400D01*
X44200000Y-35200000D02*
X43500000Y-35200000D01*
D62*
X50673280Y-41500000D02*
X50700000Y-41500000D01*
X48735000Y-34058353D02*
X48735000Y-34273400D01*
X50700000Y-33658001D02*
X50534600Y-33492601D01*
X50534600Y-33492601D02*
X48186046Y-33492601D01*
X48735000Y-34158085D02*
X48735000Y-34273400D01*
X48700000Y-34123085D02*
X48735000Y-34158085D01*
X48737000Y-42164000D02*
X50009280Y-42164000D01*
D59*
X45601000Y-46451304D02*
X45187196Y-46037500D01*
X45100000Y-50860000D02*
X45601000Y-50359000D01*
D62*
X48186046Y-33492601D02*
X48177647Y-33501000D01*
X42400000Y-34100000D02*
X43500000Y-34100000D01*
X50700000Y-41500000D02*
X50700000Y-33658001D01*
X48701000Y-42200000D02*
X48737000Y-42164000D01*
D59*
X45601000Y-50359000D02*
X45601000Y-46451304D01*
D62*
X48177647Y-33501000D02*
X48735000Y-34058353D01*
X50009280Y-42164000D02*
X50673280Y-41500000D01*
X48030500Y-50193000D02*
X50278000Y-50193000D01*
X50278000Y-50193000D02*
X51054000Y-49417000D01*
X47100000Y-49262500D02*
X48030500Y-50193000D01*
X49276000Y-51204500D02*
X51016500Y-51204500D01*
X51016500Y-51204500D02*
X51054000Y-51167000D01*
D59*
X50075000Y-42900000D02*
X50900000Y-43725000D01*
X47762500Y-42900000D02*
X50075000Y-42900000D01*
X47200000Y-43462500D02*
X47762500Y-42900000D01*
X49300000Y-43687500D02*
X49300000Y-43875000D01*
X49300000Y-43875000D02*
X50900000Y-45475000D01*
X45350000Y-22750000D02*
X44350000Y-22750000D01*
X45676000Y-23076000D02*
X45350000Y-22750000D01*
X46325000Y-25300000D02*
X45676000Y-24651000D01*
X47200000Y-25300000D02*
X46325000Y-25300000D01*
X45676000Y-24651000D02*
X45676000Y-23076000D01*
X46325000Y-24650000D02*
X47200000Y-24650000D01*
X46224000Y-24549000D02*
X46325000Y-24650000D01*
X46224000Y-21744000D02*
X46224000Y-24549000D01*
X45330000Y-20850000D02*
X46224000Y-21744000D01*
X44350000Y-20850000D02*
X45330000Y-20850000D01*
X43500000Y-29700000D02*
X44798000Y-29700000D01*
X44798000Y-29700000D02*
X45832000Y-30734000D01*
X43450000Y-29650000D02*
X43500000Y-29700000D01*
D62*
X47700000Y-29900000D02*
X47200000Y-30400000D01*
X49125000Y-29900000D02*
X47700000Y-29900000D01*
D59*
X38600000Y-22586002D02*
X38600000Y-21750000D01*
X37450000Y-23736002D02*
X38600000Y-22586002D01*
X39500000Y-20850000D02*
X41650000Y-20850000D01*
X38600000Y-21750000D02*
X39500000Y-20850000D01*
X37450000Y-25150000D02*
X37450000Y-23736002D01*
X41550000Y-22850000D02*
X41650000Y-22750000D01*
X36350000Y-25150000D02*
X36350000Y-23800000D01*
X40100000Y-22850000D02*
X41550000Y-22850000D01*
X36350000Y-23800000D02*
X37300000Y-22850000D01*
X25400000Y-37400000D02*
X25900000Y-37400000D01*
X43337500Y-45337500D02*
X46550000Y-45337500D01*
X25900000Y-37400000D02*
X25900000Y-38150000D01*
X42942000Y-44942000D02*
X43337500Y-45337500D01*
X41910000Y-40640000D02*
X41910000Y-40308000D01*
X25900000Y-38150000D02*
X27350000Y-39600000D01*
X27350000Y-39600000D02*
X41202000Y-39600000D01*
X42400000Y-44400000D02*
X42942000Y-44942000D01*
X41202000Y-39600000D02*
X40640000Y-39600000D01*
X42942000Y-44942000D02*
X41910000Y-43910000D01*
X41910000Y-40308000D02*
X41202000Y-39600000D01*
X41910000Y-43910000D02*
X41910000Y-40640000D01*
X26850000Y-36300000D02*
X27300000Y-36750000D01*
X46450000Y-48694082D02*
X46450000Y-51137500D01*
X47101000Y-44670082D02*
X47101000Y-48043082D01*
X46830918Y-44400000D02*
X47101000Y-44670082D01*
X41486000Y-39200000D02*
X42418000Y-40132000D01*
X42418000Y-43518000D02*
X43300000Y-44400000D01*
X25900000Y-36300000D02*
X26850000Y-36300000D01*
X42418000Y-40132000D02*
X42418000Y-43518000D01*
X43300000Y-44400000D02*
X46830918Y-44400000D01*
X28000000Y-39200000D02*
X41486000Y-39200000D01*
X27300000Y-36750000D02*
X27300000Y-38500000D01*
X27300000Y-38500000D02*
X28000000Y-39200000D01*
X25400000Y-36300000D02*
X25900000Y-36300000D01*
X47101000Y-48043082D02*
X46450000Y-48694082D01*
X35088500Y-49780000D02*
X31890001Y-49780000D01*
X31550000Y-50120001D02*
X31550000Y-50900000D01*
X31890001Y-49780000D02*
X31550000Y-50120001D01*
X33450000Y-50900000D02*
X33528000Y-50822000D01*
X34048000Y-50280000D02*
X34036000Y-50292000D01*
X33450000Y-50370000D02*
X33528000Y-50292000D01*
X34070000Y-50280000D02*
X34048000Y-50280000D01*
X35088500Y-50280000D02*
X34070000Y-50280000D01*
X33450000Y-50900000D02*
X34070000Y-50280000D01*
X33450000Y-50370000D02*
X33450000Y-50900000D01*
X33528000Y-50822000D02*
X33528000Y-50292000D01*
X33450000Y-53600000D02*
X33450000Y-56230000D01*
X33450000Y-56230000D02*
X33820000Y-56600000D01*
X40229364Y-43434000D02*
X40701000Y-43905636D01*
X40701000Y-43905636D02*
X40701000Y-49845000D01*
X30850000Y-40850000D02*
X30850000Y-41350000D01*
X30850000Y-41350000D02*
X32934000Y-43434000D01*
X32934000Y-43434000D02*
X40229364Y-43434000D01*
X40701000Y-49845000D02*
X41148000Y-50292000D01*
X40229364Y-43434000D02*
X40307682Y-43512318D01*
X41148000Y-50292000D02*
X41449000Y-50292000D01*
D62*
X31950000Y-41350000D02*
X33425997Y-42825997D01*
X40000000Y-44196000D02*
X40000000Y-47800178D01*
X33425997Y-42825997D02*
X39216003Y-42825997D01*
X38520178Y-49280000D02*
X40000000Y-47800178D01*
X31950000Y-40850000D02*
X31950000Y-41350000D01*
X40000000Y-47800178D02*
X40000000Y-46736000D01*
X33425997Y-42825997D02*
X34036000Y-42825997D01*
X38063500Y-49280000D02*
X38520178Y-49280000D01*
X39216003Y-42825997D02*
X39370000Y-42672000D01*
D59*
X31599500Y-45720000D02*
X31599500Y-44597268D01*
X29750000Y-42747768D02*
X29750000Y-40850000D01*
X31599500Y-44597268D02*
X29750000Y-42747768D01*
X39370000Y-47473500D02*
X38063500Y-48780000D01*
X35250000Y-42044997D02*
X35306000Y-42100997D01*
X35200000Y-41375000D02*
X35250000Y-41325000D01*
X35250000Y-40850000D02*
X35250000Y-42044997D01*
X39200000Y-44947723D02*
X39338128Y-44947723D01*
X35250000Y-41325000D02*
X35250000Y-40850000D01*
X39338128Y-44947723D02*
X39370000Y-44979595D01*
X39370000Y-44979595D02*
X39370000Y-47473500D01*
X30480000Y-46124500D02*
X30480000Y-44196000D01*
X30480000Y-44196000D02*
X28650000Y-42366000D01*
X28650000Y-42366000D02*
X28650000Y-40850000D01*
X31599500Y-47244000D02*
X30480000Y-46124500D01*
D60*
X44099999Y-23700001D02*
X44100000Y-23700000D01*
X43119999Y-19730001D02*
X43175000Y-19675000D01*
X43175000Y-19675000D02*
X43175000Y-19100000D01*
X44350000Y-21800000D02*
X43384998Y-21800000D01*
X44800000Y-23700000D02*
X45000000Y-23900000D01*
X45000000Y-24900000D02*
X46050000Y-25950000D01*
X43384998Y-21800000D02*
X43119999Y-21535001D01*
X38550000Y-24339998D02*
X39189997Y-23700001D01*
X39189997Y-23700001D02*
X41600000Y-23700001D01*
X43119999Y-21535001D02*
X43119999Y-23435001D01*
X43119999Y-21535001D02*
X43119999Y-19730001D01*
X41600000Y-23700001D02*
X42854999Y-23700001D01*
X44100000Y-23700000D02*
X44800000Y-23700000D01*
X38550000Y-25150000D02*
X38550000Y-24339998D01*
X45000000Y-23900000D02*
X45000000Y-24900000D01*
X42854999Y-23700001D02*
X43119999Y-23435001D01*
X46050000Y-25950000D02*
X47200000Y-25950000D01*
X41600000Y-23700001D02*
X44099999Y-23700001D01*
D59*
X33503500Y-45720000D02*
X33424500Y-45720000D01*
X35826000Y-48042500D02*
X33503500Y-45720000D01*
X31550000Y-53600000D02*
X31550000Y-56330000D01*
X31550000Y-56330000D02*
X31280000Y-56600000D01*
D62*
X49300000Y-49355500D02*
X49276000Y-49379500D01*
X49845889Y-45950000D02*
X49408389Y-45512500D01*
X49408389Y-45512500D02*
X49300000Y-45512500D01*
X20828000Y-39050000D02*
X20828000Y-39370000D01*
D60*
X25900000Y-29700000D02*
X25900000Y-28600000D01*
D62*
X49300000Y-45512500D02*
X49300000Y-49355500D01*
X25350500Y-47752000D02*
X26848000Y-47752000D01*
X26924000Y-46228000D02*
X26924000Y-47828000D01*
X26924000Y-47828000D02*
X27049000Y-47828000D01*
X26924000Y-44628000D02*
X26924000Y-46228000D01*
X26848000Y-47752000D02*
X26924000Y-47828000D01*
D59*
X36326000Y-48042500D02*
X36326000Y-46990000D01*
X26003500Y-52519000D02*
X25654000Y-52868500D01*
X32500000Y-52507000D02*
X32512000Y-52519000D01*
X35537500Y-51017500D02*
X35826000Y-51017500D01*
X36326000Y-46840500D02*
X35814000Y-46328500D01*
X32500000Y-50900000D02*
X32500000Y-52507000D01*
X36326000Y-46990000D02*
X36326000Y-46840500D01*
X35228969Y-51030000D02*
X35228969Y-51326031D01*
X30480000Y-52519000D02*
X26003500Y-52519000D01*
X25866500Y-48768000D02*
X25908000Y-48768000D01*
X25908000Y-48768000D02*
X24638000Y-50038000D01*
X34036000Y-52519000D02*
X32512000Y-52519000D01*
X35228969Y-51030000D02*
X35525000Y-51030000D01*
X35228969Y-51326031D02*
X34036000Y-52519000D01*
X35525000Y-51030000D02*
X35537500Y-51017500D01*
X30480000Y-52519000D02*
X32512000Y-52519000D01*
X25350500Y-48252000D02*
X25866500Y-48768000D01*
D62*
X21628500Y-47752000D02*
X21590000Y-47790500D01*
X23925500Y-47752000D02*
X21628500Y-47752000D01*
D59*
X33552500Y-47244000D02*
X33424500Y-47244000D01*
X35088500Y-48780000D02*
X33552500Y-47244000D01*
X38063500Y-50280000D02*
X39612000Y-50280000D01*
X39612000Y-50280000D02*
X39624000Y-50292000D01*
D62*
X28649000Y-46990000D02*
X27940000Y-46990000D01*
X28649000Y-46990000D02*
X28649000Y-47828000D01*
X27105990Y-43469000D02*
X21047000Y-43469000D01*
X20828000Y-43903500D02*
X21590000Y-44665500D01*
X28649000Y-46228000D02*
X28649000Y-46990000D01*
X20828000Y-43688000D02*
X20828000Y-43903500D01*
X27786500Y-44149510D02*
X27105990Y-43469000D01*
X21047000Y-43469000D02*
X20828000Y-43688000D01*
X27786500Y-46836500D02*
X27786500Y-44149510D01*
X27940000Y-46990000D02*
X27786500Y-46836500D01*
X24130000Y-35370000D02*
X25400000Y-34100000D01*
X24130000Y-41402000D02*
X24130000Y-35370000D01*
X25400000Y-34100000D02*
X25900000Y-34100000D01*
D59*
X35194080Y-52481000D02*
X36915000Y-52481000D01*
D62*
X24780000Y-39527000D02*
X24780000Y-40218030D01*
X24780000Y-40218030D02*
X27250771Y-42688801D01*
D59*
X37326000Y-52070000D02*
X37326000Y-51017500D01*
X36915000Y-52481000D02*
X37326000Y-52070000D01*
%TA.AperFunction,Conductor*%
G36*
X27547817Y-13170185D02*
G01*
X27593572Y-13222989D01*
X27603516Y-13292147D01*
X27574491Y-13355703D01*
X27555089Y-13373767D01*
X27437096Y-13462096D01*
X27349554Y-13579038D01*
X27349553Y-13579038D01*
X27298506Y-13715902D01*
X27292000Y-13776418D01*
X27292000Y-14671000D01*
X29358000Y-14671000D01*
X29358000Y-13776420D01*
X29357999Y-13776418D01*
X29351493Y-13715902D01*
X29300446Y-13579038D01*
X29212903Y-13462096D01*
X29094911Y-13373767D01*
X29053040Y-13317833D01*
X29048056Y-13248141D01*
X29081541Y-13186818D01*
X29142865Y-13153334D01*
X29169222Y-13150500D01*
X30430778Y-13150500D01*
X30497817Y-13170185D01*
X30543572Y-13222989D01*
X30553516Y-13292147D01*
X30524491Y-13355703D01*
X30505089Y-13373767D01*
X30387096Y-13462096D01*
X30299554Y-13579038D01*
X30299553Y-13579038D01*
X30248506Y-13715902D01*
X30242000Y-13776418D01*
X30242000Y-14671000D01*
X32308000Y-14671000D01*
X32308000Y-13776420D01*
X32307999Y-13776418D01*
X32301493Y-13715902D01*
X32250446Y-13579038D01*
X32162903Y-13462096D01*
X32044911Y-13373767D01*
X32003040Y-13317833D01*
X31998056Y-13248141D01*
X32031541Y-13186818D01*
X32092865Y-13153334D01*
X32119222Y-13150500D01*
X47783592Y-13150500D01*
X47797128Y-13150500D01*
X47802855Y-13150632D01*
X48158697Y-13167083D01*
X48170086Y-13168139D01*
X48520051Y-13216957D01*
X48531295Y-13219059D01*
X48875261Y-13299959D01*
X48886251Y-13303086D01*
X49221306Y-13415385D01*
X49231960Y-13419513D01*
X49555209Y-13562241D01*
X49565436Y-13567333D01*
X49806689Y-13701710D01*
X49874131Y-13739275D01*
X49883869Y-13745304D01*
X50175374Y-13944990D01*
X50184514Y-13951892D01*
X50456356Y-14177626D01*
X50464820Y-14185343D01*
X50714656Y-14435179D01*
X50722373Y-14443643D01*
X50948107Y-14715485D01*
X50955009Y-14724625D01*
X51154695Y-15016130D01*
X51160724Y-15025868D01*
X51332659Y-15334550D01*
X51337762Y-15344799D01*
X51472138Y-15649132D01*
X51480481Y-15668026D01*
X51484619Y-15678706D01*
X51596909Y-16013735D01*
X51600043Y-16024751D01*
X51680938Y-16368696D01*
X51683043Y-16379955D01*
X51731859Y-16729905D01*
X51732916Y-16741309D01*
X51749368Y-17097144D01*
X51749500Y-17102821D01*
X51749500Y-17116408D01*
X51749505Y-17116415D01*
X51749512Y-17134761D01*
X51749513Y-17134762D01*
X51754585Y-29266508D01*
X51734928Y-29333556D01*
X51682144Y-29379333D01*
X51612989Y-29389305D01*
X51549421Y-29360307D01*
X51531319Y-29340871D01*
X51520387Y-29326269D01*
X51511116Y-29313884D01*
X51415091Y-29242000D01*
X51398780Y-29229789D01*
X51398778Y-29229788D01*
X51370924Y-29219399D01*
X51267299Y-29180748D01*
X51209190Y-29174500D01*
X51209174Y-29174500D01*
X50540826Y-29174500D01*
X50540809Y-29174500D01*
X50482700Y-29180748D01*
X50351219Y-29229789D01*
X50238884Y-29313884D01*
X50154787Y-29426222D01*
X50116181Y-29529729D01*
X50074310Y-29585663D01*
X50008845Y-29610079D01*
X49940572Y-29595227D01*
X49891167Y-29545821D01*
X49883819Y-29529729D01*
X49845212Y-29426222D01*
X49820351Y-29393012D01*
X49761116Y-29313884D01*
X49673782Y-29248506D01*
X49648780Y-29229789D01*
X49648778Y-29229788D01*
X49620924Y-29219399D01*
X49517299Y-29180748D01*
X49459190Y-29174500D01*
X49459174Y-29174500D01*
X48790826Y-29174500D01*
X48790823Y-29174500D01*
X48755877Y-29178257D01*
X48687118Y-29165851D01*
X48635981Y-29118240D01*
X48618702Y-29050540D01*
X48629829Y-29003455D01*
X48662219Y-28932531D01*
X48662220Y-28932528D01*
X48682999Y-28787998D01*
X48683000Y-28787997D01*
X48683000Y-28300890D01*
X48702685Y-28233851D01*
X48755489Y-28188096D01*
X48824647Y-28178152D01*
X48888203Y-28207177D01*
X48894681Y-28213209D01*
X48927434Y-28245962D01*
X48927438Y-28245965D01*
X49092526Y-28356274D01*
X49092535Y-28356279D01*
X49275976Y-28432262D01*
X49275984Y-28432264D01*
X49470716Y-28470999D01*
X49470719Y-28471000D01*
X49666000Y-28471000D01*
X50174000Y-28471000D01*
X50369281Y-28471000D01*
X50369283Y-28470999D01*
X50564015Y-28432264D01*
X50564023Y-28432262D01*
X50747464Y-28356279D01*
X50747473Y-28356274D01*
X50912561Y-28245965D01*
X50912565Y-28245962D01*
X51052962Y-28105565D01*
X51052965Y-28105561D01*
X51163274Y-27940473D01*
X51163279Y-27940464D01*
X51239262Y-27757023D01*
X51239264Y-27757015D01*
X51247224Y-27717000D01*
X50174000Y-27717000D01*
X50174000Y-28471000D01*
X49666000Y-28471000D01*
X49666000Y-27713000D01*
X50319728Y-27713000D01*
X50411614Y-27674940D01*
X50481940Y-27604614D01*
X50520000Y-27512728D01*
X50520000Y-27413272D01*
X50481940Y-27321386D01*
X50411614Y-27251060D01*
X50319728Y-27213000D01*
X49666000Y-27213000D01*
X49666000Y-27209000D01*
X50174000Y-27209000D01*
X51247224Y-27209000D01*
X51245876Y-27202221D01*
X51252103Y-27132630D01*
X51268226Y-27103719D01*
X51320445Y-27033961D01*
X51320446Y-27033961D01*
X51371493Y-26897097D01*
X51377999Y-26836581D01*
X51378000Y-26836580D01*
X51378000Y-26092000D01*
X50174000Y-26092000D01*
X50174000Y-27209000D01*
X49666000Y-27209000D01*
X49666000Y-26092000D01*
X48462000Y-26092000D01*
X48462000Y-26323879D01*
X48442315Y-26390918D01*
X48389511Y-26436673D01*
X48320353Y-26446617D01*
X48236605Y-26434576D01*
X48173049Y-26405551D01*
X48135275Y-26346773D01*
X48135275Y-26276903D01*
X48151151Y-26242946D01*
X48155966Y-26235740D01*
X48170500Y-26162674D01*
X48170500Y-25713326D01*
X48170500Y-25713323D01*
X48155356Y-25637192D01*
X48155356Y-25588808D01*
X48170500Y-25512676D01*
X48170500Y-25063323D01*
X48155356Y-24987192D01*
X48155356Y-24938808D01*
X48170500Y-24862676D01*
X48170500Y-24413323D01*
X48155356Y-24337192D01*
X48155356Y-24288808D01*
X48170500Y-24212676D01*
X48170500Y-24047118D01*
X48171787Y-24042734D01*
X48170816Y-24038271D01*
X48181540Y-24009520D01*
X48190185Y-23980079D01*
X48194083Y-23975891D01*
X48195234Y-23972807D01*
X48220191Y-23947850D01*
X48263691Y-23915287D01*
X48329155Y-23890871D01*
X48397428Y-23905723D01*
X48446833Y-23955129D01*
X48462000Y-24014555D01*
X48462000Y-24436581D01*
X48468506Y-24497099D01*
X48504897Y-24594667D01*
X48509881Y-24664358D01*
X48504897Y-24681333D01*
X48468506Y-24778900D01*
X48462000Y-24839418D01*
X48462000Y-25584000D01*
X49666000Y-25584000D01*
X50174000Y-25584000D01*
X51378000Y-25584000D01*
X51378000Y-24839420D01*
X51377999Y-24839418D01*
X51371493Y-24778902D01*
X51335102Y-24681334D01*
X51330118Y-24611643D01*
X51335102Y-24594666D01*
X51371493Y-24497097D01*
X51377999Y-24436581D01*
X51378000Y-24436580D01*
X51378000Y-23692000D01*
X50174000Y-23692000D01*
X50174000Y-25584000D01*
X49666000Y-25584000D01*
X49666000Y-23692000D01*
X48456000Y-23692000D01*
X48388961Y-23672315D01*
X48343206Y-23619511D01*
X48332000Y-23568000D01*
X48332000Y-23538000D01*
X47955842Y-23538000D01*
X47952437Y-23537000D01*
X47950765Y-23537392D01*
X47950765Y-23537500D01*
X47950306Y-23537500D01*
X47948984Y-23537810D01*
X47944951Y-23537500D01*
X47944674Y-23537500D01*
X47369000Y-23537500D01*
X47301961Y-23517815D01*
X47256206Y-23465011D01*
X47245000Y-23413500D01*
X47245000Y-23312578D01*
X47242093Y-23307255D01*
X47247077Y-23237563D01*
X47288949Y-23181630D01*
X47354413Y-23157213D01*
X47395348Y-23161121D01*
X47497525Y-23188500D01*
X47497528Y-23188500D01*
X47642472Y-23188500D01*
X47642475Y-23188500D01*
X47782485Y-23150984D01*
X47782488Y-23150981D01*
X47789995Y-23147873D01*
X47791132Y-23150618D01*
X47838199Y-23138000D01*
X48460638Y-23138000D01*
X48527677Y-23157685D01*
X48548319Y-23174319D01*
X48558000Y-23184000D01*
X49666000Y-23184000D01*
X50174000Y-23184000D01*
X51378000Y-23184000D01*
X51378000Y-22439420D01*
X51377999Y-22439418D01*
X51371493Y-22378902D01*
X51320446Y-22242038D01*
X51267064Y-22170729D01*
X51242647Y-22105265D01*
X51244713Y-22072228D01*
X51245753Y-22067000D01*
X50174000Y-22067000D01*
X50174000Y-23184000D01*
X49666000Y-23184000D01*
X49666000Y-22063000D01*
X50319728Y-22063000D01*
X50411614Y-22024940D01*
X50481940Y-21954614D01*
X50520000Y-21862728D01*
X50520000Y-21763272D01*
X50481940Y-21671386D01*
X50411614Y-21601060D01*
X50319728Y-21563000D01*
X49666000Y-21563000D01*
X49666000Y-21559000D01*
X50174000Y-21559000D01*
X51245755Y-21559000D01*
X51245754Y-21558999D01*
X51242146Y-21540858D01*
X51242144Y-21540852D01*
X51171815Y-21371061D01*
X51171810Y-21371052D01*
X51069708Y-21218247D01*
X51069705Y-21218243D01*
X50939756Y-21088294D01*
X50939752Y-21088291D01*
X50786947Y-20986189D01*
X50786934Y-20986182D01*
X50617150Y-20915856D01*
X50617138Y-20915853D01*
X50436895Y-20880000D01*
X50174000Y-20880000D01*
X50174000Y-21559000D01*
X49666000Y-21559000D01*
X49666000Y-20880000D01*
X49403105Y-20880000D01*
X49222861Y-20915853D01*
X49222849Y-20915856D01*
X49053065Y-20986182D01*
X49053052Y-20986189D01*
X48900247Y-21088291D01*
X48900243Y-21088294D01*
X48894681Y-21093857D01*
X48833358Y-21127342D01*
X48763666Y-21122358D01*
X48707733Y-21080486D01*
X48683316Y-21015022D01*
X48683000Y-21006176D01*
X48683000Y-20487998D01*
X48677778Y-20414990D01*
X48636642Y-20274895D01*
X48557700Y-20152057D01*
X48447349Y-20056437D01*
X48447347Y-20056436D01*
X48314532Y-19995780D01*
X48314528Y-19995779D01*
X48169998Y-19975000D01*
X47624000Y-19975000D01*
X47624000Y-21963500D01*
X47604315Y-22030539D01*
X47551511Y-22076294D01*
X47505565Y-22086289D01*
X47505585Y-22086439D01*
X47503791Y-22086675D01*
X47500000Y-22087500D01*
X47497525Y-22087500D01*
X47368993Y-22121940D01*
X47357511Y-22125017D01*
X47302000Y-22157067D01*
X47234100Y-22173540D01*
X47168073Y-22150687D01*
X47124882Y-22095766D01*
X47116000Y-22049680D01*
X47116000Y-19975000D01*
X46569999Y-19975000D01*
X46496990Y-19980221D01*
X46356895Y-20021357D01*
X46234057Y-20100299D01*
X46138437Y-20210650D01*
X46138436Y-20210652D01*
X46077780Y-20343467D01*
X46077779Y-20343471D01*
X46057000Y-20488001D01*
X46057000Y-20781956D01*
X46037315Y-20848995D01*
X45984511Y-20894750D01*
X45915353Y-20904694D01*
X45851797Y-20875669D01*
X45845319Y-20869637D01*
X45545213Y-20569531D01*
X45545208Y-20569527D01*
X45465290Y-20523387D01*
X45465289Y-20523386D01*
X45465288Y-20523386D01*
X45465285Y-20523385D01*
X45465282Y-20523384D01*
X45455047Y-20520641D01*
X45395388Y-20484274D01*
X45372036Y-20437965D01*
X45370640Y-20438544D01*
X45365966Y-20427260D01*
X45310601Y-20344399D01*
X45227740Y-20289034D01*
X45227739Y-20289033D01*
X45227735Y-20289032D01*
X45154677Y-20274500D01*
X45154674Y-20274500D01*
X43744499Y-20274500D01*
X43735813Y-20271949D01*
X43726852Y-20273238D01*
X43702811Y-20262259D01*
X43677460Y-20254815D01*
X43671532Y-20247974D01*
X43663296Y-20244213D01*
X43649006Y-20221978D01*
X43631705Y-20202011D01*
X43629417Y-20191496D01*
X43625522Y-20185435D01*
X43620499Y-20150500D01*
X43620499Y-19937599D01*
X43637114Y-19875595D01*
X43641390Y-19868189D01*
X43641389Y-19868189D01*
X43641392Y-19868186D01*
X43648724Y-19840819D01*
X43685086Y-19781163D01*
X43694187Y-19773648D01*
X43698775Y-19770212D01*
X43698778Y-19770212D01*
X43811116Y-19686116D01*
X43895212Y-19573778D01*
X43944251Y-19442299D01*
X43950177Y-19387183D01*
X43950499Y-19384190D01*
X43950500Y-19384173D01*
X43950500Y-18815826D01*
X43950499Y-18815809D01*
X43944251Y-18757700D01*
X43912949Y-18673778D01*
X43895212Y-18626222D01*
X43811116Y-18513884D01*
X43731121Y-18454000D01*
X43698780Y-18429789D01*
X43698778Y-18429788D01*
X43672144Y-18419854D01*
X43567299Y-18380748D01*
X43509190Y-18374500D01*
X43509174Y-18374500D01*
X42840826Y-18374500D01*
X42840809Y-18374500D01*
X42782700Y-18380748D01*
X42651219Y-18429789D01*
X42534278Y-18517332D01*
X42468814Y-18541749D01*
X42400541Y-18526897D01*
X42354428Y-18483162D01*
X42301261Y-18396965D01*
X42178033Y-18273737D01*
X42178029Y-18273734D01*
X42029715Y-18182252D01*
X42029704Y-18182247D01*
X41864280Y-18127431D01*
X41762183Y-18117000D01*
X41679000Y-18117000D01*
X41679000Y-18976000D01*
X41659315Y-19043039D01*
X41606511Y-19088794D01*
X41555000Y-19100000D01*
X41425000Y-19100000D01*
X41425000Y-19230000D01*
X41405315Y-19297039D01*
X41352511Y-19342794D01*
X41301000Y-19354000D01*
X40392000Y-19354000D01*
X40392000Y-19387183D01*
X40402431Y-19489280D01*
X40457247Y-19654704D01*
X40457252Y-19654715D01*
X40548734Y-19803029D01*
X40548737Y-19803033D01*
X40671966Y-19926262D01*
X40671970Y-19926265D01*
X40820284Y-20017747D01*
X40820297Y-20017753D01*
X40868562Y-20033746D01*
X40926007Y-20073518D01*
X40952831Y-20138033D01*
X40940517Y-20206809D01*
X40892974Y-20258010D01*
X40851001Y-20271808D01*
X40851300Y-20273311D01*
X40772264Y-20289032D01*
X40772260Y-20289033D01*
X40689398Y-20344399D01*
X40627248Y-20437415D01*
X40625243Y-20436075D01*
X40591970Y-20477360D01*
X40525675Y-20499421D01*
X40521256Y-20499500D01*
X39453856Y-20499500D01*
X39364712Y-20523386D01*
X39364709Y-20523387D01*
X39284791Y-20569527D01*
X39284786Y-20569531D01*
X38319531Y-21534786D01*
X38319527Y-21534791D01*
X38277946Y-21606813D01*
X38277946Y-21606814D01*
X38273386Y-21614710D01*
X38249500Y-21703856D01*
X38249500Y-22389457D01*
X38240855Y-22418897D01*
X38234332Y-22448884D01*
X38230577Y-22453899D01*
X38229815Y-22456496D01*
X38213181Y-22477139D01*
X38087350Y-22602969D01*
X38026027Y-22636453D01*
X37956335Y-22631469D01*
X37900402Y-22589597D01*
X37885109Y-22562741D01*
X37876465Y-22541873D01*
X37876461Y-22541866D01*
X37805276Y-22435331D01*
X37805273Y-22435327D01*
X37714672Y-22344726D01*
X37714668Y-22344723D01*
X37608133Y-22273538D01*
X37608124Y-22273533D01*
X37489744Y-22224499D01*
X37489738Y-22224497D01*
X37364071Y-22199500D01*
X37364069Y-22199500D01*
X37235931Y-22199500D01*
X37235929Y-22199500D01*
X37110261Y-22224497D01*
X37110255Y-22224499D01*
X36991875Y-22273533D01*
X36991866Y-22273538D01*
X36885331Y-22344723D01*
X36885327Y-22344726D01*
X36794726Y-22435327D01*
X36794723Y-22435331D01*
X36723538Y-22541866D01*
X36723533Y-22541875D01*
X36674499Y-22660255D01*
X36674497Y-22660261D01*
X36649500Y-22785928D01*
X36649500Y-22914073D01*
X36651625Y-22924755D01*
X36645398Y-22994347D01*
X36617689Y-23036627D01*
X36069531Y-23584786D01*
X36069527Y-23584791D01*
X36049730Y-23619081D01*
X36049729Y-23619084D01*
X36041055Y-23634109D01*
X36023386Y-23664712D01*
X35999500Y-23753856D01*
X35999500Y-23819501D01*
X35995780Y-23834344D01*
X35985520Y-23851807D01*
X35979815Y-23871238D01*
X35968184Y-23881315D01*
X35960388Y-23894587D01*
X35942315Y-23903731D01*
X35927011Y-23916993D01*
X35911777Y-23919183D01*
X35898045Y-23926132D01*
X35877899Y-23924054D01*
X35857853Y-23926937D01*
X35841940Y-23920346D01*
X35828544Y-23918965D01*
X35817707Y-23910309D01*
X35801194Y-23903470D01*
X35795963Y-23899554D01*
X35795961Y-23899553D01*
X35659097Y-23848506D01*
X35598581Y-23842000D01*
X35504000Y-23842000D01*
X35504000Y-26458000D01*
X35598580Y-26458000D01*
X35598581Y-26457999D01*
X35659097Y-26451493D01*
X35795961Y-26400446D01*
X35795961Y-26400445D01*
X35912905Y-26312902D01*
X35959851Y-26250190D01*
X36015784Y-26208318D01*
X36059118Y-26200500D01*
X36674676Y-26200500D01*
X36674677Y-26200499D01*
X36747740Y-26185966D01*
X36782600Y-26162674D01*
X36831110Y-26130261D01*
X36897787Y-26109383D01*
X36965167Y-26127868D01*
X36968890Y-26130261D01*
X37052256Y-26185964D01*
X37052258Y-26185964D01*
X37052260Y-26185966D01*
X37052262Y-26185966D01*
X37052264Y-26185967D01*
X37125321Y-26200499D01*
X37125324Y-26200500D01*
X37125326Y-26200500D01*
X37774676Y-26200500D01*
X37774677Y-26200499D01*
X37847740Y-26185966D01*
X37882600Y-26162674D01*
X37931110Y-26130261D01*
X37997787Y-26109383D01*
X38065167Y-26127868D01*
X38068890Y-26130261D01*
X38152256Y-26185964D01*
X38152258Y-26185964D01*
X38152260Y-26185966D01*
X38152262Y-26185966D01*
X38152264Y-26185967D01*
X38225321Y-26200499D01*
X38225324Y-26200500D01*
X38225326Y-26200500D01*
X38874676Y-26200500D01*
X38874677Y-26200499D01*
X38947740Y-26185966D01*
X38982600Y-26162674D01*
X39031110Y-26130261D01*
X39097787Y-26109383D01*
X39165167Y-26127868D01*
X39168890Y-26130261D01*
X39252256Y-26185964D01*
X39252258Y-26185964D01*
X39252260Y-26185966D01*
X39252262Y-26185966D01*
X39252264Y-26185967D01*
X39325321Y-26200499D01*
X39325324Y-26200500D01*
X39325326Y-26200500D01*
X39974676Y-26200500D01*
X39974677Y-26200499D01*
X40047740Y-26185966D01*
X40082600Y-26162674D01*
X40131110Y-26130261D01*
X40197787Y-26109383D01*
X40265167Y-26127868D01*
X40268890Y-26130261D01*
X40352256Y-26185964D01*
X40352258Y-26185964D01*
X40352260Y-26185966D01*
X40352262Y-26185966D01*
X40352264Y-26185967D01*
X40425321Y-26200499D01*
X40425324Y-26200500D01*
X40425326Y-26200500D01*
X41074676Y-26200500D01*
X41074677Y-26200499D01*
X41147740Y-26185966D01*
X41230601Y-26130601D01*
X41285966Y-26047740D01*
X41300500Y-25974674D01*
X41300500Y-24325326D01*
X41300500Y-24324501D01*
X41320185Y-24257462D01*
X41372989Y-24211707D01*
X41424500Y-24200501D01*
X44173487Y-24200501D01*
X44173503Y-24200500D01*
X44375500Y-24200500D01*
X44442539Y-24220185D01*
X44488294Y-24272989D01*
X44499500Y-24324500D01*
X44499500Y-24965891D01*
X44533608Y-25093187D01*
X44559940Y-25138794D01*
X44599500Y-25207314D01*
X45649498Y-26257311D01*
X45649500Y-26257314D01*
X45742686Y-26350500D01*
X45808504Y-26388500D01*
X45817326Y-26393593D01*
X45817327Y-26393594D01*
X45856808Y-26416389D01*
X45856810Y-26416390D01*
X45856811Y-26416390D01*
X45856814Y-26416392D01*
X45980871Y-26449632D01*
X46040528Y-26485996D01*
X46071058Y-26548842D01*
X46071513Y-26587052D01*
X46057000Y-26687998D01*
X46057000Y-27484000D01*
X47246000Y-27484000D01*
X47313039Y-27503685D01*
X47358794Y-27556489D01*
X47370000Y-27608000D01*
X47370000Y-27738000D01*
X47500000Y-27738000D01*
X47567039Y-27757685D01*
X47612794Y-27810489D01*
X47624000Y-27862000D01*
X47624000Y-29301000D01*
X47654014Y-29331014D01*
X47687499Y-29392337D01*
X47682515Y-29462029D01*
X47640643Y-29517962D01*
X47598427Y-29538469D01*
X47588457Y-29541141D01*
X47555061Y-29550089D01*
X47555060Y-29550090D01*
X47469440Y-29599522D01*
X47469435Y-29599526D01*
X47371781Y-29697181D01*
X47310458Y-29730666D01*
X47284100Y-29733500D01*
X46607324Y-29733500D01*
X46534259Y-29748033D01*
X46529452Y-29750025D01*
X46459983Y-29757494D01*
X46434548Y-29750025D01*
X46429740Y-29748033D01*
X46356676Y-29733500D01*
X46356674Y-29733500D01*
X45378544Y-29733500D01*
X45311505Y-29713815D01*
X45290863Y-29697181D01*
X45013213Y-29419531D01*
X45013208Y-29419527D01*
X44933290Y-29373387D01*
X44933283Y-29373384D01*
X44921000Y-29370093D01*
X44920986Y-29370089D01*
X44918897Y-29369530D01*
X44844144Y-29349500D01*
X44831691Y-29349500D01*
X44817939Y-29346329D01*
X44799289Y-29335842D01*
X44778761Y-29329815D01*
X44769442Y-29319060D01*
X44757036Y-29312085D01*
X44747015Y-29293178D01*
X44733006Y-29277011D01*
X44730980Y-29262925D01*
X44724316Y-29250351D01*
X44726107Y-29229030D01*
X44723062Y-29207853D01*
X44729113Y-29193243D01*
X44730165Y-29180727D01*
X44739134Y-29169049D01*
X44746533Y-29151189D01*
X44750446Y-29145961D01*
X44801493Y-29009097D01*
X44807999Y-28948581D01*
X44808000Y-28948580D01*
X44808000Y-28854000D01*
X42192000Y-28854000D01*
X42192000Y-28948581D01*
X42198506Y-29009097D01*
X42249553Y-29145961D01*
X42337097Y-29262905D01*
X42399810Y-29309851D01*
X42441682Y-29365784D01*
X42449500Y-29409118D01*
X42449500Y-29990881D01*
X42429815Y-30057920D01*
X42399811Y-30090148D01*
X42337096Y-30137096D01*
X42249554Y-30254038D01*
X42249553Y-30254038D01*
X42198506Y-30390902D01*
X42192000Y-30451418D01*
X42192000Y-30546000D01*
X44808000Y-30546000D01*
X44808000Y-30505044D01*
X44814238Y-30483798D01*
X44815818Y-30461710D01*
X44823890Y-30450926D01*
X44827685Y-30438005D01*
X44844418Y-30423505D01*
X44857690Y-30405777D01*
X44870310Y-30401069D01*
X44880489Y-30392250D01*
X44902406Y-30389098D01*
X44923154Y-30381360D01*
X44936314Y-30384222D01*
X44949647Y-30382306D01*
X44969790Y-30391505D01*
X44991427Y-30396212D01*
X45009152Y-30409480D01*
X45013203Y-30411331D01*
X45019681Y-30417363D01*
X45045181Y-30442863D01*
X45078666Y-30504186D01*
X45081500Y-30530544D01*
X45081500Y-31362134D01*
X45061815Y-31429173D01*
X45009011Y-31474928D01*
X45004953Y-31476695D01*
X44908544Y-31516629D01*
X44839074Y-31524098D01*
X44776595Y-31492823D01*
X44740943Y-31432734D01*
X44743437Y-31362909D01*
X44748240Y-31351875D01*
X44801493Y-31209097D01*
X44807999Y-31148581D01*
X44808000Y-31148580D01*
X44808000Y-31054000D01*
X42192000Y-31054000D01*
X42192000Y-31148581D01*
X42198506Y-31209097D01*
X42249553Y-31345961D01*
X42337097Y-31462905D01*
X42399810Y-31509851D01*
X42441682Y-31565784D01*
X42449500Y-31609118D01*
X42449500Y-32224678D01*
X42464032Y-32297735D01*
X42464033Y-32297739D01*
X42519739Y-32381110D01*
X42540616Y-32447788D01*
X42522131Y-32515168D01*
X42519739Y-32518890D01*
X42464033Y-32602260D01*
X42464032Y-32602264D01*
X42449500Y-32675321D01*
X42449500Y-33325927D01*
X42429815Y-33392966D01*
X42377011Y-33438721D01*
X42341882Y-33448190D01*
X42341906Y-33448311D01*
X42340113Y-33448667D01*
X42337656Y-33449330D01*
X42335927Y-33449500D01*
X42210261Y-33474497D01*
X42210255Y-33474499D01*
X42091875Y-33523533D01*
X42091861Y-33523541D01*
X41992813Y-33589723D01*
X41926136Y-33610601D01*
X41858756Y-33592116D01*
X41812066Y-33540137D01*
X41801629Y-33480766D01*
X41800500Y-33480766D01*
X41800500Y-32525323D01*
X41800499Y-32525321D01*
X41785967Y-32452264D01*
X41785966Y-32452262D01*
X41785966Y-32452260D01*
X41785964Y-32452258D01*
X41785964Y-32452256D01*
X41730261Y-32368890D01*
X41709383Y-32302213D01*
X41727868Y-32234833D01*
X41730261Y-32231110D01*
X41785964Y-32147743D01*
X41785964Y-32147742D01*
X41785966Y-32147740D01*
X41800500Y-32074674D01*
X41800500Y-31125326D01*
X41800500Y-31125323D01*
X41800499Y-31125321D01*
X41785967Y-31052264D01*
X41785966Y-31052262D01*
X41785966Y-31052260D01*
X41785964Y-31052258D01*
X41785964Y-31052256D01*
X41730261Y-30968890D01*
X41709383Y-30902213D01*
X41727868Y-30834833D01*
X41730261Y-30831110D01*
X41785964Y-30747743D01*
X41785964Y-30747742D01*
X41785966Y-30747740D01*
X41800500Y-30674674D01*
X41800500Y-29725326D01*
X41800500Y-29725323D01*
X41800499Y-29725321D01*
X41785967Y-29652264D01*
X41785966Y-29652262D01*
X41785966Y-29652260D01*
X41785964Y-29652258D01*
X41785964Y-29652256D01*
X41730261Y-29568890D01*
X41709383Y-29502213D01*
X41727868Y-29434833D01*
X41730261Y-29431110D01*
X41785964Y-29347743D01*
X41785964Y-29347742D01*
X41785966Y-29347740D01*
X41800500Y-29274674D01*
X41800500Y-28788001D01*
X46057000Y-28788001D01*
X46062221Y-28861009D01*
X46103357Y-29001104D01*
X46182299Y-29123942D01*
X46292650Y-29219562D01*
X46292652Y-29219563D01*
X46425467Y-29280219D01*
X46425471Y-29280220D01*
X46570001Y-29300999D01*
X46570003Y-29301000D01*
X47116000Y-29301000D01*
X47116000Y-27992000D01*
X46057000Y-27992000D01*
X46057000Y-28788001D01*
X41800500Y-28788001D01*
X41800500Y-28325326D01*
X41800500Y-28325323D01*
X41789949Y-28272281D01*
X41789949Y-28272280D01*
X41785967Y-28252264D01*
X41785966Y-28252260D01*
X41785403Y-28251418D01*
X42192000Y-28251418D01*
X42192000Y-28346000D01*
X43246000Y-28346000D01*
X43754000Y-28346000D01*
X44808000Y-28346000D01*
X44808000Y-28251420D01*
X44807999Y-28251418D01*
X44801493Y-28190902D01*
X44750446Y-28054038D01*
X44721184Y-28014949D01*
X44662903Y-27937096D01*
X44545961Y-27849554D01*
X44545961Y-27849553D01*
X44409097Y-27798506D01*
X44348581Y-27792000D01*
X43754000Y-27792000D01*
X43754000Y-28346000D01*
X43246000Y-28346000D01*
X43246000Y-27792000D01*
X42651418Y-27792000D01*
X42590902Y-27798506D01*
X42454038Y-27849553D01*
X42454038Y-27849554D01*
X42337096Y-27937096D01*
X42249554Y-28054038D01*
X42249553Y-28054038D01*
X42198506Y-28190902D01*
X42192000Y-28251418D01*
X41785403Y-28251418D01*
X41774459Y-28235039D01*
X41730601Y-28169399D01*
X41675235Y-28132405D01*
X41647739Y-28114033D01*
X41647735Y-28114032D01*
X41574677Y-28099500D01*
X41574674Y-28099500D01*
X40425326Y-28099500D01*
X40424500Y-28099500D01*
X40357461Y-28079815D01*
X40311706Y-28027011D01*
X40300500Y-27975500D01*
X40300500Y-27075323D01*
X40300499Y-27075321D01*
X40285967Y-27002264D01*
X40285966Y-27002260D01*
X40268430Y-26976015D01*
X40230601Y-26919399D01*
X40147740Y-26864034D01*
X40147739Y-26864033D01*
X40147735Y-26864032D01*
X40074677Y-26849500D01*
X40074674Y-26849500D01*
X39125326Y-26849500D01*
X39125323Y-26849500D01*
X39052264Y-26864032D01*
X39052260Y-26864033D01*
X38968890Y-26919739D01*
X38902212Y-26940616D01*
X38834832Y-26922131D01*
X38831110Y-26919739D01*
X38747739Y-26864033D01*
X38747735Y-26864032D01*
X38674677Y-26849500D01*
X38674674Y-26849500D01*
X37725326Y-26849500D01*
X37725323Y-26849500D01*
X37652264Y-26864032D01*
X37652260Y-26864033D01*
X37568890Y-26919739D01*
X37502212Y-26940616D01*
X37434832Y-26922131D01*
X37431110Y-26919739D01*
X37347739Y-26864033D01*
X37347735Y-26864032D01*
X37274677Y-26849500D01*
X37274674Y-26849500D01*
X36325326Y-26849500D01*
X36325323Y-26849500D01*
X36252264Y-26864032D01*
X36252260Y-26864033D01*
X36168890Y-26919739D01*
X36102212Y-26940616D01*
X36034832Y-26922131D01*
X36031110Y-26919739D01*
X35947739Y-26864033D01*
X35947735Y-26864032D01*
X35874677Y-26849500D01*
X35874674Y-26849500D01*
X34925326Y-26849500D01*
X34925323Y-26849500D01*
X34852264Y-26864032D01*
X34852260Y-26864033D01*
X34768890Y-26919739D01*
X34702212Y-26940616D01*
X34634832Y-26922131D01*
X34631110Y-26919739D01*
X34547739Y-26864033D01*
X34547735Y-26864032D01*
X34474677Y-26849500D01*
X34474674Y-26849500D01*
X33525326Y-26849500D01*
X33525323Y-26849500D01*
X33452264Y-26864032D01*
X33452260Y-26864033D01*
X33369399Y-26919399D01*
X33314033Y-27002260D01*
X33314032Y-27002264D01*
X33299500Y-27075321D01*
X33299500Y-28168000D01*
X33296949Y-28176685D01*
X33298238Y-28185647D01*
X33287259Y-28209687D01*
X33279815Y-28235039D01*
X33272974Y-28240966D01*
X33269213Y-28249203D01*
X33246978Y-28263492D01*
X33227011Y-28280794D01*
X33216496Y-28283081D01*
X33210435Y-28286977D01*
X33175500Y-28292000D01*
X33157247Y-28292000D01*
X33090208Y-28272315D01*
X33044453Y-28219511D01*
X33033247Y-28168000D01*
X33033247Y-26324500D01*
X33052932Y-26257461D01*
X33105736Y-26211706D01*
X33157247Y-26200500D01*
X33374676Y-26200500D01*
X33374677Y-26200499D01*
X33447740Y-26185966D01*
X33482600Y-26162674D01*
X33531110Y-26130261D01*
X33597787Y-26109383D01*
X33665167Y-26127868D01*
X33668890Y-26130261D01*
X33752256Y-26185964D01*
X33752258Y-26185964D01*
X33752260Y-26185966D01*
X33752262Y-26185966D01*
X33752264Y-26185967D01*
X33825321Y-26200499D01*
X33825324Y-26200500D01*
X34440882Y-26200500D01*
X34507921Y-26220185D01*
X34540149Y-26250190D01*
X34587094Y-26312902D01*
X34704038Y-26400445D01*
X34704038Y-26400446D01*
X34840902Y-26451493D01*
X34901418Y-26457999D01*
X34901420Y-26458000D01*
X34996000Y-26458000D01*
X34996000Y-23842000D01*
X34901418Y-23842000D01*
X34840902Y-23848506D01*
X34704038Y-23899553D01*
X34704038Y-23899554D01*
X34587094Y-23987097D01*
X34540149Y-24049810D01*
X34484216Y-24091682D01*
X34440882Y-24099500D01*
X33825323Y-24099500D01*
X33752264Y-24114032D01*
X33752260Y-24114033D01*
X33668890Y-24169739D01*
X33602212Y-24190616D01*
X33534832Y-24172131D01*
X33531110Y-24169739D01*
X33447739Y-24114033D01*
X33447735Y-24114032D01*
X33374677Y-24099500D01*
X33374674Y-24099500D01*
X32759118Y-24099500D01*
X32692079Y-24079815D01*
X32659851Y-24049810D01*
X32612905Y-23987097D01*
X32495961Y-23899554D01*
X32488177Y-23895303D01*
X32489521Y-23892841D01*
X32445060Y-23859554D01*
X32420647Y-23794088D01*
X32435504Y-23725816D01*
X32447072Y-23708332D01*
X32451266Y-23703028D01*
X32542747Y-23554715D01*
X32542752Y-23554704D01*
X32597568Y-23389280D01*
X32607999Y-23287183D01*
X32608000Y-23287170D01*
X32608000Y-23254000D01*
X31699000Y-23254000D01*
X31631961Y-23234315D01*
X31586206Y-23181511D01*
X31575000Y-23130000D01*
X31575000Y-23000000D01*
X31445000Y-23000000D01*
X31377961Y-22980315D01*
X31332206Y-22927511D01*
X31321000Y-22876000D01*
X31321000Y-22746000D01*
X31829000Y-22746000D01*
X32608000Y-22746000D01*
X32608000Y-22712829D01*
X32607999Y-22712816D01*
X32597568Y-22610719D01*
X32542752Y-22445295D01*
X32542747Y-22445284D01*
X32451265Y-22296970D01*
X32451262Y-22296966D01*
X32328033Y-22173737D01*
X32328029Y-22173734D01*
X32179715Y-22082252D01*
X32179704Y-22082247D01*
X32014280Y-22027431D01*
X31912183Y-22017000D01*
X31829000Y-22017000D01*
X31829000Y-22746000D01*
X31321000Y-22746000D01*
X31321000Y-22017000D01*
X31237816Y-22017000D01*
X31135719Y-22027431D01*
X30970295Y-22082247D01*
X30970284Y-22082252D01*
X30821970Y-22173734D01*
X30821966Y-22173737D01*
X30698736Y-22296967D01*
X30645570Y-22383163D01*
X30634710Y-22392930D01*
X30627712Y-22405747D01*
X30609258Y-22415823D01*
X30593622Y-22429887D01*
X30579205Y-22432232D01*
X30566389Y-22439231D01*
X30545415Y-22437730D01*
X30524659Y-22441108D01*
X30510010Y-22435198D01*
X30496697Y-22434246D01*
X30465721Y-22417331D01*
X30353996Y-22333693D01*
X30312125Y-22277759D01*
X30307141Y-22208068D01*
X30340627Y-22146745D01*
X30353997Y-22135160D01*
X30386116Y-22111116D01*
X30470212Y-21998778D01*
X30519251Y-21867299D01*
X30520803Y-21852863D01*
X30525499Y-21809190D01*
X30525500Y-21809173D01*
X30525500Y-21140826D01*
X30525499Y-21140809D01*
X30519251Y-21082700D01*
X30494008Y-21015022D01*
X30470212Y-20951222D01*
X30386116Y-20838884D01*
X30310070Y-20781956D01*
X30273780Y-20754789D01*
X30273778Y-20754788D01*
X30170268Y-20716181D01*
X30114337Y-20674310D01*
X30089920Y-20608846D01*
X30104772Y-20540573D01*
X30154177Y-20491168D01*
X30170268Y-20483819D01*
X30273778Y-20445212D01*
X30386116Y-20361116D01*
X30470212Y-20248778D01*
X30519251Y-20117299D01*
X30524412Y-20069297D01*
X30525499Y-20059190D01*
X30525500Y-20059173D01*
X30525500Y-19390826D01*
X30525499Y-19390809D01*
X30519251Y-19332700D01*
X30504665Y-19293594D01*
X30470212Y-19201222D01*
X30386116Y-19088884D01*
X30353995Y-19064838D01*
X30338161Y-19043686D01*
X30319475Y-19025000D01*
X30317550Y-19016151D01*
X30312125Y-19008904D01*
X30310240Y-18982548D01*
X30304623Y-18956727D01*
X30307786Y-18948243D01*
X30307141Y-18939212D01*
X30319805Y-18916018D01*
X30329039Y-18891263D01*
X30338478Y-18881823D01*
X30340627Y-18877889D01*
X30353996Y-18866306D01*
X30381121Y-18846000D01*
X30461116Y-18786116D01*
X30461117Y-18786114D01*
X30465721Y-18782668D01*
X30531185Y-18758250D01*
X30599458Y-18773101D01*
X30645570Y-18816837D01*
X30698734Y-18903029D01*
X30698737Y-18903033D01*
X30821966Y-19026262D01*
X30821970Y-19026265D01*
X30970284Y-19117747D01*
X30970295Y-19117752D01*
X31135719Y-19172568D01*
X31237816Y-19182999D01*
X31237829Y-19183000D01*
X31321000Y-19183000D01*
X31829000Y-19183000D01*
X31912171Y-19183000D01*
X31912183Y-19182999D01*
X32014280Y-19172568D01*
X32179704Y-19117752D01*
X32179715Y-19117747D01*
X32328029Y-19026265D01*
X32328033Y-19026262D01*
X32451262Y-18903033D01*
X32451265Y-18903029D01*
X32506909Y-18812816D01*
X40392000Y-18812816D01*
X40392000Y-18846000D01*
X41171000Y-18846000D01*
X41171000Y-18117000D01*
X41087816Y-18117000D01*
X40985719Y-18127431D01*
X40820295Y-18182247D01*
X40820284Y-18182252D01*
X40671970Y-18273734D01*
X40671966Y-18273737D01*
X40548737Y-18396966D01*
X40548734Y-18396970D01*
X40457252Y-18545284D01*
X40457247Y-18545295D01*
X40402431Y-18710719D01*
X40392000Y-18812816D01*
X32506909Y-18812816D01*
X32542746Y-18754716D01*
X32542752Y-18754702D01*
X32597568Y-18589280D01*
X32607999Y-18487183D01*
X32608000Y-18487170D01*
X32608000Y-18454000D01*
X31829000Y-18454000D01*
X31829000Y-19183000D01*
X31321000Y-19183000D01*
X31321000Y-17946000D01*
X31829000Y-17946000D01*
X32608000Y-17946000D01*
X32608000Y-17912829D01*
X32607999Y-17912816D01*
X32597568Y-17810719D01*
X32542752Y-17645295D01*
X32542747Y-17645284D01*
X32451265Y-17496970D01*
X32451262Y-17496966D01*
X32328033Y-17373737D01*
X32328029Y-17373734D01*
X32179715Y-17282252D01*
X32179704Y-17282247D01*
X32014280Y-17227431D01*
X31912183Y-17217000D01*
X31829000Y-17217000D01*
X31829000Y-17946000D01*
X31321000Y-17946000D01*
X31321000Y-17217000D01*
X31237816Y-17217000D01*
X31135719Y-17227431D01*
X30970295Y-17282247D01*
X30970284Y-17282252D01*
X30821970Y-17373734D01*
X30821966Y-17373737D01*
X30698736Y-17496967D01*
X30645570Y-17583163D01*
X30593622Y-17629887D01*
X30524659Y-17641108D01*
X30465721Y-17617332D01*
X30461117Y-17613885D01*
X30461116Y-17613884D01*
X30348778Y-17529788D01*
X30348775Y-17529787D01*
X30281165Y-17504569D01*
X30263440Y-17491300D01*
X30243297Y-17482101D01*
X30236014Y-17470768D01*
X30225232Y-17462697D01*
X30217494Y-17441951D01*
X30205523Y-17423323D01*
X30202371Y-17401403D01*
X30200816Y-17397233D01*
X30200500Y-17388388D01*
X30200500Y-17349500D01*
X30220185Y-17282461D01*
X30272989Y-17236706D01*
X30318679Y-17226766D01*
X30318614Y-17226097D01*
X30324354Y-17225531D01*
X30324500Y-17225500D01*
X30324676Y-17225500D01*
X30324677Y-17225499D01*
X30397740Y-17210966D01*
X30480601Y-17155601D01*
X30535966Y-17072740D01*
X30550500Y-16999674D01*
X30550500Y-16892038D01*
X47167500Y-16892038D01*
X47167500Y-17143962D01*
X47188733Y-17278021D01*
X47206910Y-17392785D01*
X47284760Y-17632383D01*
X47399132Y-17856848D01*
X47547201Y-18060649D01*
X47547205Y-18060654D01*
X47725345Y-18238794D01*
X47725350Y-18238798D01*
X47773436Y-18273734D01*
X47929155Y-18386870D01*
X48060905Y-18454000D01*
X48153616Y-18501239D01*
X48153618Y-18501239D01*
X48153621Y-18501241D01*
X48393215Y-18579090D01*
X48642038Y-18618500D01*
X48642039Y-18618500D01*
X48893961Y-18618500D01*
X48893962Y-18618500D01*
X49142785Y-18579090D01*
X49382379Y-18501241D01*
X49606845Y-18386870D01*
X49810656Y-18238793D01*
X49988793Y-18060656D01*
X50136870Y-17856845D01*
X50251241Y-17632379D01*
X50329090Y-17392785D01*
X50368500Y-17143962D01*
X50368500Y-16892038D01*
X50329090Y-16643215D01*
X50251241Y-16403621D01*
X50251239Y-16403618D01*
X50251239Y-16403616D01*
X50183647Y-16270961D01*
X50136870Y-16179155D01*
X50060166Y-16073581D01*
X49988798Y-15975350D01*
X49988794Y-15975345D01*
X49810654Y-15797205D01*
X49810649Y-15797201D01*
X49606848Y-15649132D01*
X49606847Y-15649131D01*
X49606845Y-15649130D01*
X49514369Y-15602011D01*
X49382383Y-15534760D01*
X49142785Y-15456910D01*
X48893962Y-15417500D01*
X48642038Y-15417500D01*
X48517626Y-15437205D01*
X48393214Y-15456910D01*
X48153616Y-15534760D01*
X47929151Y-15649132D01*
X47725350Y-15797201D01*
X47725345Y-15797205D01*
X47547205Y-15975345D01*
X47547201Y-15975350D01*
X47399132Y-16179151D01*
X47284760Y-16403616D01*
X47206910Y-16643214D01*
X47192280Y-16735586D01*
X47167500Y-16892038D01*
X30550500Y-16892038D01*
X30550500Y-16654820D01*
X30570185Y-16587781D01*
X30622989Y-16542026D01*
X30687762Y-16531531D01*
X30701417Y-16532999D01*
X30701420Y-16533000D01*
X31021000Y-16533000D01*
X31529000Y-16533000D01*
X31848580Y-16533000D01*
X31848581Y-16532999D01*
X31909097Y-16526493D01*
X32045961Y-16475446D01*
X32045961Y-16475445D01*
X32162903Y-16387903D01*
X32250445Y-16270961D01*
X32250446Y-16270961D01*
X32301493Y-16134097D01*
X32307999Y-16073581D01*
X32308000Y-16073580D01*
X32308000Y-15179000D01*
X31529000Y-15179000D01*
X31529000Y-16533000D01*
X31021000Y-16533000D01*
X31021000Y-15179000D01*
X30242000Y-15179000D01*
X30242000Y-15550500D01*
X30222315Y-15617539D01*
X30169511Y-15663294D01*
X30118000Y-15674500D01*
X29482000Y-15674500D01*
X29414961Y-15654815D01*
X29369206Y-15602011D01*
X29358000Y-15550500D01*
X29358000Y-15179000D01*
X28579000Y-15179000D01*
X28579000Y-16533000D01*
X28898580Y-16533000D01*
X28898582Y-16532999D01*
X28912238Y-16531531D01*
X28980998Y-16543933D01*
X29032138Y-16591541D01*
X29049500Y-16654820D01*
X29049500Y-16999678D01*
X29064032Y-17072735D01*
X29064033Y-17072739D01*
X29080340Y-17097144D01*
X29119399Y-17155601D01*
X29202260Y-17210966D01*
X29202264Y-17210967D01*
X29275321Y-17225499D01*
X29275324Y-17225500D01*
X29275326Y-17225500D01*
X29275500Y-17225500D01*
X29275589Y-17225526D01*
X29281386Y-17226097D01*
X29281277Y-17227196D01*
X29284185Y-17228050D01*
X29293147Y-17226762D01*
X29317187Y-17237740D01*
X29342539Y-17245185D01*
X29348466Y-17252025D01*
X29356703Y-17255787D01*
X29370992Y-17278021D01*
X29388294Y-17297989D01*
X29390581Y-17308503D01*
X29394477Y-17314565D01*
X29399500Y-17349500D01*
X29399500Y-17407037D01*
X29379815Y-17474076D01*
X29327011Y-17519831D01*
X29318837Y-17523217D01*
X29301222Y-17529787D01*
X29188884Y-17613884D01*
X29104789Y-17726219D01*
X29055748Y-17857700D01*
X29049500Y-17915809D01*
X29049500Y-18484190D01*
X29055748Y-18542299D01*
X29094854Y-18647144D01*
X29104788Y-18673778D01*
X29188884Y-18786116D01*
X29218480Y-18808271D01*
X29271003Y-18847591D01*
X29312874Y-18903524D01*
X29317858Y-18973216D01*
X29284372Y-19034539D01*
X29271004Y-19046123D01*
X29213885Y-19088883D01*
X29129789Y-19201219D01*
X29080748Y-19332700D01*
X29074500Y-19390809D01*
X29074500Y-20059190D01*
X29080748Y-20117299D01*
X29106162Y-20185435D01*
X29128085Y-20244213D01*
X29129789Y-20248780D01*
X29148153Y-20273311D01*
X29213884Y-20361116D01*
X29326222Y-20445212D01*
X29326221Y-20445212D01*
X29429729Y-20483819D01*
X29485663Y-20525690D01*
X29510079Y-20591155D01*
X29495227Y-20659428D01*
X29445821Y-20708833D01*
X29429729Y-20716181D01*
X29326222Y-20754787D01*
X29213884Y-20838884D01*
X29129789Y-20951219D01*
X29080748Y-21082700D01*
X29074500Y-21140809D01*
X29074500Y-21809190D01*
X29080748Y-21867299D01*
X29104135Y-21930000D01*
X29129788Y-21998778D01*
X29213884Y-22111116D01*
X29232452Y-22125016D01*
X29271003Y-22153876D01*
X29312874Y-22209810D01*
X29317858Y-22279501D01*
X29284372Y-22340824D01*
X29271004Y-22352408D01*
X29188884Y-22413883D01*
X29104789Y-22526219D01*
X29055748Y-22657700D01*
X29049500Y-22715809D01*
X29049500Y-23284190D01*
X29055748Y-23342299D01*
X29104789Y-23473780D01*
X29124043Y-23499500D01*
X29188884Y-23586116D01*
X29252995Y-23634109D01*
X29301222Y-23670212D01*
X29301226Y-23670214D01*
X29343832Y-23686105D01*
X29361557Y-23699373D01*
X29381703Y-23708574D01*
X29388985Y-23719906D01*
X29399766Y-23727976D01*
X29407504Y-23748721D01*
X29419477Y-23767352D01*
X29422628Y-23789269D01*
X29424184Y-23793440D01*
X29424500Y-23802287D01*
X29424500Y-23822914D01*
X29404815Y-23889953D01*
X29352011Y-23935708D01*
X29282853Y-23945652D01*
X29226191Y-23922182D01*
X29195965Y-23899555D01*
X29195961Y-23899553D01*
X29059097Y-23848506D01*
X28998581Y-23842000D01*
X28904000Y-23842000D01*
X28904000Y-25026000D01*
X28884315Y-25093039D01*
X28831511Y-25138794D01*
X28780000Y-25150000D01*
X28650000Y-25150000D01*
X28650000Y-25280000D01*
X28630315Y-25347039D01*
X28577511Y-25392794D01*
X28526000Y-25404000D01*
X27842000Y-25404000D01*
X27842000Y-25998581D01*
X27848506Y-26059097D01*
X27875946Y-26132666D01*
X27880930Y-26202358D01*
X27847445Y-26263681D01*
X27786122Y-26297166D01*
X27786076Y-26297170D01*
X27783247Y-26300000D01*
X27783247Y-28550000D01*
X29125608Y-28550000D01*
X29192647Y-28569685D01*
X29238402Y-28622489D01*
X29248898Y-28687254D01*
X29242000Y-28751416D01*
X29242000Y-29138130D01*
X29222315Y-29205169D01*
X29169511Y-29250924D01*
X29100353Y-29260868D01*
X29074670Y-29254313D01*
X29059100Y-29248506D01*
X28998581Y-29242000D01*
X28654000Y-29242000D01*
X28654000Y-29946000D01*
X29112000Y-29946000D01*
X29121976Y-29936023D01*
X29131685Y-29902961D01*
X29184489Y-29857206D01*
X29236000Y-29846000D01*
X37976000Y-29846000D01*
X38043039Y-29865685D01*
X38088794Y-29918489D01*
X38100000Y-29970000D01*
X38100000Y-30100000D01*
X38230000Y-30100000D01*
X38297039Y-30119685D01*
X38342794Y-30172489D01*
X38354000Y-30224000D01*
X38354000Y-35776000D01*
X38334315Y-35843039D01*
X38281511Y-35888794D01*
X38230000Y-35900000D01*
X38100000Y-35900000D01*
X38100000Y-36030000D01*
X38080315Y-36097039D01*
X38027511Y-36142794D01*
X37976000Y-36154000D01*
X29231000Y-36154000D01*
X29163961Y-36134315D01*
X29118206Y-36081511D01*
X29113672Y-36060672D01*
X29107000Y-36054000D01*
X27342000Y-36054000D01*
X27308522Y-36087478D01*
X27307350Y-36088117D01*
X27306687Y-36089275D01*
X27276781Y-36104809D01*
X27247199Y-36120963D01*
X27245868Y-36120867D01*
X27244684Y-36121483D01*
X27211136Y-36118384D01*
X27177507Y-36115979D01*
X27176005Y-36115138D01*
X27175110Y-36115056D01*
X27170835Y-36112245D01*
X27144490Y-36097504D01*
X27138524Y-36092842D01*
X27065212Y-36019530D01*
X26986691Y-35974196D01*
X26979855Y-35968854D01*
X26964352Y-35947224D01*
X26945990Y-35927967D01*
X26941653Y-35915555D01*
X26939152Y-35912065D01*
X26939029Y-35909655D01*
X26935966Y-35902259D01*
X26880261Y-35818890D01*
X26859383Y-35752213D01*
X26877868Y-35684833D01*
X26880261Y-35681110D01*
X26935964Y-35597743D01*
X26935964Y-35597742D01*
X26935966Y-35597740D01*
X26950500Y-35524674D01*
X26950500Y-34898581D01*
X27342000Y-34898581D01*
X27348506Y-34959099D01*
X27384897Y-35056667D01*
X27389881Y-35126358D01*
X27384897Y-35143333D01*
X27348506Y-35240900D01*
X27342000Y-35301418D01*
X27342000Y-35546000D01*
X28146000Y-35546000D01*
X28146000Y-34654000D01*
X27342000Y-34654000D01*
X27342000Y-34898581D01*
X26950500Y-34898581D01*
X26950500Y-34875326D01*
X26950500Y-34875323D01*
X26950499Y-34875321D01*
X26935967Y-34802264D01*
X26935966Y-34802262D01*
X26935966Y-34802260D01*
X26935964Y-34802258D01*
X26935964Y-34802256D01*
X26880261Y-34718890D01*
X26874288Y-34699815D01*
X26863781Y-34682806D01*
X26864060Y-34667151D01*
X26859383Y-34652213D01*
X26864671Y-34632936D01*
X26865028Y-34612948D01*
X26877046Y-34587826D01*
X26877868Y-34584833D01*
X26880260Y-34581110D01*
X26880599Y-34580602D01*
X26880601Y-34580601D01*
X26935966Y-34497740D01*
X26950500Y-34424674D01*
X26950500Y-33775326D01*
X26950500Y-33775323D01*
X26950499Y-33775321D01*
X26935967Y-33702264D01*
X26935966Y-33702262D01*
X26935966Y-33702260D01*
X26935964Y-33702258D01*
X26935964Y-33702256D01*
X26880261Y-33618890D01*
X26859383Y-33552213D01*
X26877868Y-33484833D01*
X26880261Y-33481110D01*
X26935964Y-33397743D01*
X26935964Y-33397742D01*
X26935966Y-33397740D01*
X26950500Y-33324674D01*
X26950500Y-32709118D01*
X26970185Y-32642079D01*
X27000190Y-32609851D01*
X27062902Y-32562905D01*
X27150445Y-32445961D01*
X27150446Y-32445961D01*
X27201493Y-32309097D01*
X27207999Y-32248581D01*
X27208000Y-32248580D01*
X27208000Y-32154000D01*
X24592000Y-32154000D01*
X24592000Y-32248581D01*
X24598506Y-32309097D01*
X24649553Y-32445961D01*
X24737097Y-32562905D01*
X24799810Y-32609851D01*
X24841682Y-32665784D01*
X24849500Y-32709118D01*
X24849500Y-33324678D01*
X24864032Y-33397735D01*
X24864033Y-33397739D01*
X24919739Y-33481110D01*
X24940616Y-33547788D01*
X24922131Y-33615168D01*
X24919739Y-33618890D01*
X24864033Y-33702260D01*
X24864032Y-33702264D01*
X24849500Y-33775321D01*
X24849500Y-34068101D01*
X24829815Y-34135140D01*
X24813181Y-34155782D01*
X23829526Y-35139436D01*
X23780091Y-35225059D01*
X23780091Y-35225060D01*
X23780090Y-35225062D01*
X23754500Y-35320565D01*
X23754500Y-35320567D01*
X23754500Y-38336287D01*
X23734815Y-38403326D01*
X23730000Y-38408505D01*
X23730000Y-40607100D01*
X23710315Y-40674139D01*
X23697428Y-40690131D01*
X23695172Y-40693289D01*
X23640135Y-40805871D01*
X23640134Y-40805873D01*
X23640134Y-40805875D01*
X23629500Y-40878864D01*
X23629500Y-40878869D01*
X23629500Y-41422927D01*
X23609815Y-41489966D01*
X23557011Y-41535721D01*
X23487853Y-41545665D01*
X23424297Y-41516640D01*
X23399962Y-41488024D01*
X23388637Y-41469664D01*
X23388634Y-41469660D01*
X23263340Y-41344366D01*
X23112527Y-41251343D01*
X23112522Y-41251341D01*
X23057365Y-41233064D01*
X23051060Y-41228698D01*
X23043485Y-41227515D01*
X23022734Y-41209087D01*
X22999920Y-41193291D01*
X22996976Y-41186212D01*
X22991243Y-41181120D01*
X22983749Y-41154396D01*
X22973097Y-41128775D01*
X22973974Y-41119537D01*
X22972378Y-41113845D01*
X22976618Y-41091695D01*
X22977827Y-41078974D01*
X22979552Y-41073353D01*
X22980221Y-41071923D01*
X23000348Y-41005598D01*
X23000379Y-41005498D01*
X23000382Y-41005492D01*
X23000506Y-41005094D01*
X23001381Y-40999375D01*
X23022616Y-40860585D01*
X23023691Y-40741447D01*
X23043978Y-40674592D01*
X23097193Y-40629315D01*
X23166438Y-40619995D01*
X23182280Y-40623492D01*
X23230000Y-40637355D01*
X23230000Y-38416642D01*
X23229998Y-38416641D01*
X23204275Y-38424115D01*
X23134406Y-38423915D01*
X23075736Y-38385972D01*
X23046893Y-38322334D01*
X23045686Y-38303919D01*
X23045957Y-38273886D01*
X23057531Y-36991268D01*
X23048132Y-36888729D01*
X23043336Y-36864034D01*
X23038702Y-36840174D01*
X23038696Y-36840148D01*
X23009031Y-36741557D01*
X23002308Y-36725326D01*
X22992851Y-36702498D01*
X22985795Y-36679236D01*
X22975382Y-36626881D01*
X22973000Y-36602692D01*
X22973000Y-36549302D01*
X22975382Y-36525112D01*
X22977586Y-36514034D01*
X22985794Y-36472761D01*
X22992851Y-36449501D01*
X23000679Y-36430601D01*
X23016586Y-36392200D01*
X23045349Y-36298148D01*
X23054783Y-36251815D01*
X23065086Y-36153996D01*
X23068747Y-35748346D01*
X23059348Y-35645806D01*
X23049914Y-35597234D01*
X23020245Y-35498630D01*
X23020242Y-35498622D01*
X23020242Y-35498621D01*
X22992852Y-35432498D01*
X22985798Y-35409247D01*
X22975381Y-35356878D01*
X22973000Y-35332696D01*
X22973000Y-35279301D01*
X22975381Y-35255120D01*
X22985798Y-35202750D01*
X22992852Y-35179499D01*
X22997247Y-35168890D01*
X23028300Y-35093923D01*
X23057065Y-34999864D01*
X23066499Y-34953530D01*
X23076802Y-34855712D01*
X23109626Y-31218147D01*
X23110254Y-31148581D01*
X24592000Y-31148581D01*
X24598506Y-31209099D01*
X24634897Y-31306667D01*
X24639881Y-31376358D01*
X24634897Y-31393333D01*
X24598506Y-31490900D01*
X24592000Y-31551418D01*
X24592000Y-31646000D01*
X25646000Y-31646000D01*
X25646000Y-31054000D01*
X24592000Y-31054000D01*
X24592000Y-31148581D01*
X23110254Y-31148581D01*
X23111581Y-31001519D01*
X23115778Y-30536381D01*
X23136067Y-30469522D01*
X23189281Y-30424245D01*
X23239773Y-30413500D01*
X24468000Y-30413500D01*
X24535039Y-30433185D01*
X24580794Y-30485989D01*
X24592000Y-30537500D01*
X24592000Y-30546000D01*
X25776000Y-30546000D01*
X25843039Y-30565685D01*
X25888794Y-30618489D01*
X25900000Y-30670000D01*
X25900000Y-30800000D01*
X26030000Y-30800000D01*
X26097039Y-30819685D01*
X26142794Y-30872489D01*
X26154000Y-30924000D01*
X26154000Y-31646000D01*
X27208000Y-31646000D01*
X27208000Y-31551420D01*
X27207999Y-31551418D01*
X27201493Y-31490902D01*
X27165102Y-31393334D01*
X27160118Y-31323643D01*
X27165102Y-31306666D01*
X27201493Y-31209097D01*
X27207999Y-31148581D01*
X27208000Y-31148580D01*
X27208000Y-31012636D01*
X27214412Y-30990797D01*
X27216270Y-30968110D01*
X27224068Y-30957912D01*
X27227685Y-30945597D01*
X27244884Y-30930693D01*
X27258714Y-30912610D01*
X27270788Y-30908247D01*
X27280489Y-30899842D01*
X27303018Y-30896602D01*
X27324426Y-30888868D01*
X27336939Y-30891725D01*
X27349647Y-30889898D01*
X27370354Y-30899354D01*
X27392543Y-30904421D01*
X27404640Y-30915012D01*
X27413203Y-30918923D01*
X27420578Y-30925861D01*
X27564078Y-31072343D01*
X27576213Y-31095121D01*
X27591682Y-31115784D01*
X27593965Y-31128440D01*
X27596931Y-31134007D01*
X27596318Y-31141485D01*
X27599500Y-31159118D01*
X27599500Y-32074678D01*
X27614032Y-32147735D01*
X27614033Y-32147739D01*
X27669739Y-32231110D01*
X27690616Y-32297788D01*
X27672131Y-32365168D01*
X27669739Y-32368890D01*
X27614033Y-32452260D01*
X27614032Y-32452264D01*
X27599500Y-32525321D01*
X27599500Y-33440881D01*
X27579815Y-33507920D01*
X27549811Y-33540148D01*
X27487096Y-33587096D01*
X27399554Y-33704038D01*
X27399553Y-33704038D01*
X27348506Y-33840902D01*
X27342000Y-33901418D01*
X27342000Y-34146000D01*
X28276000Y-34146000D01*
X28343039Y-34165685D01*
X28388794Y-34218489D01*
X28400000Y-34270000D01*
X28400000Y-34400000D01*
X28530000Y-34400000D01*
X28597039Y-34419685D01*
X28642794Y-34472489D01*
X28654000Y-34524000D01*
X28654000Y-35546000D01*
X29464000Y-35546000D01*
X29531039Y-35565685D01*
X29576794Y-35618489D01*
X29581327Y-35639327D01*
X29588000Y-35646000D01*
X31046000Y-35646000D01*
X31554000Y-35646000D01*
X34446000Y-35646000D01*
X34954000Y-35646000D01*
X37846000Y-35646000D01*
X37846000Y-33254000D01*
X34954000Y-33254000D01*
X34954000Y-35646000D01*
X34446000Y-35646000D01*
X34446000Y-33254000D01*
X31554000Y-33254000D01*
X31554000Y-35646000D01*
X31046000Y-35646000D01*
X31046000Y-32746000D01*
X31554000Y-32746000D01*
X34446000Y-32746000D01*
X34954000Y-32746000D01*
X37846000Y-32746000D01*
X37846000Y-30354000D01*
X34954000Y-30354000D01*
X34954000Y-32746000D01*
X34446000Y-32746000D01*
X34446000Y-30354000D01*
X31554000Y-30354000D01*
X31554000Y-32746000D01*
X31046000Y-32746000D01*
X31046000Y-30354000D01*
X29588000Y-30354000D01*
X29578023Y-30363976D01*
X29568315Y-30397039D01*
X29515511Y-30442794D01*
X29464000Y-30454000D01*
X28524000Y-30454000D01*
X28456961Y-30434315D01*
X28411206Y-30381511D01*
X28400000Y-30330000D01*
X28400000Y-30200000D01*
X28270000Y-30200000D01*
X28202961Y-30180315D01*
X28157206Y-30127511D01*
X28146000Y-30076000D01*
X28146000Y-29242000D01*
X27801418Y-29242000D01*
X27740902Y-29248506D01*
X27604038Y-29299553D01*
X27604038Y-29299554D01*
X27511811Y-29368595D01*
X27446347Y-29393012D01*
X27378074Y-29378160D01*
X27328668Y-29328755D01*
X27313500Y-29269328D01*
X27313500Y-28235692D01*
X27313111Y-28215740D01*
X27312777Y-28207177D01*
X27312734Y-28206068D01*
X27311568Y-28186132D01*
X27279579Y-28043518D01*
X27254740Y-27978213D01*
X27254735Y-27978204D01*
X27254734Y-27978201D01*
X27183869Y-27850392D01*
X27183232Y-27849553D01*
X26225353Y-26587052D01*
X25591839Y-25752069D01*
X25556871Y-25713326D01*
X25533302Y-25687212D01*
X25533300Y-25687210D01*
X25502596Y-25658525D01*
X25502567Y-25658500D01*
X25433906Y-25604523D01*
X25433904Y-25604522D01*
X25301564Y-25542498D01*
X25301561Y-25542497D01*
X25234720Y-25522152D01*
X25234715Y-25522151D01*
X25202619Y-25517212D01*
X25139353Y-25487563D01*
X25102160Y-25428415D01*
X25102773Y-25366241D01*
X25101152Y-25365894D01*
X25102569Y-25359272D01*
X25112999Y-25257185D01*
X25113000Y-25257170D01*
X25113000Y-25174000D01*
X21369000Y-25174000D01*
X21369000Y-25257188D01*
X21375976Y-25325470D01*
X21363206Y-25394163D01*
X21315325Y-25445047D01*
X21251395Y-25462065D01*
X19192183Y-25441758D01*
X19192182Y-25441758D01*
X19192181Y-25441758D01*
X19171930Y-25443779D01*
X19080636Y-25452894D01*
X19027998Y-25464052D01*
X19027991Y-25464054D01*
X18921542Y-25499121D01*
X18921538Y-25499123D01*
X18921536Y-25499123D01*
X18921536Y-25499124D01*
X18900415Y-25512674D01*
X18798510Y-25578050D01*
X18745679Y-25623754D01*
X18717159Y-25656615D01*
X18658350Y-25694342D01*
X18588480Y-25694285D01*
X18529733Y-25656462D01*
X18517973Y-25640432D01*
X18460135Y-25546661D01*
X18334840Y-25421366D01*
X18184027Y-25328343D01*
X18184022Y-25328341D01*
X18015825Y-25272606D01*
X17912015Y-25262000D01*
X17703000Y-25262000D01*
X17703000Y-27672000D01*
X17705181Y-27674181D01*
X17738666Y-27735504D01*
X17741500Y-27761862D01*
X17741500Y-30618000D01*
X17950503Y-30618000D01*
X17950515Y-30617999D01*
X18054325Y-30607393D01*
X18222522Y-30551658D01*
X18222533Y-30551653D01*
X18355690Y-30469521D01*
X18423082Y-30451080D01*
X18489746Y-30472002D01*
X18534516Y-30525644D01*
X18544787Y-30575159D01*
X18536597Y-40772610D01*
X18546944Y-40875586D01*
X18556875Y-40924300D01*
X18556878Y-40924313D01*
X18587655Y-41023102D01*
X18617303Y-41071923D01*
X18663519Y-41148028D01*
X18707915Y-41201979D01*
X18707917Y-41201981D01*
X18815904Y-41300473D01*
X18815905Y-41300473D01*
X18815906Y-41300474D01*
X18851305Y-41317742D01*
X18947266Y-41364552D01*
X19013783Y-41385936D01*
X19013785Y-41385937D01*
X19157878Y-41410411D01*
X19228937Y-41412219D01*
X19235435Y-41413076D01*
X19261629Y-41424669D01*
X19288898Y-41433436D01*
X19293172Y-41438630D01*
X19299326Y-41441354D01*
X19315094Y-41465268D01*
X19333295Y-41487386D01*
X19334082Y-41494068D01*
X19337787Y-41499686D01*
X19338122Y-41528330D01*
X19341476Y-41556775D01*
X19338601Y-41569226D01*
X19338605Y-41569551D01*
X19338480Y-41569750D01*
X19338204Y-41570947D01*
X19319300Y-41635324D01*
X19298500Y-41780001D01*
X19298500Y-43304500D01*
X19278815Y-43371539D01*
X19226011Y-43417294D01*
X19174500Y-43428500D01*
X18982252Y-43428500D01*
X18915213Y-43408815D01*
X18869458Y-43356011D01*
X18859514Y-43286853D01*
X18871767Y-43248205D01*
X18919557Y-43154412D01*
X18985246Y-42952243D01*
X19018500Y-42742287D01*
X19018500Y-42529713D01*
X18985246Y-42319757D01*
X18919557Y-42117588D01*
X18823051Y-41928184D01*
X18823049Y-41928181D01*
X18823048Y-41928179D01*
X18698109Y-41756213D01*
X18547786Y-41605890D01*
X18375820Y-41480951D01*
X18186414Y-41384444D01*
X18186413Y-41384443D01*
X18186412Y-41384443D01*
X17984243Y-41318754D01*
X17984241Y-41318753D01*
X17984240Y-41318753D01*
X17822957Y-41293208D01*
X17774287Y-41285500D01*
X16261713Y-41285500D01*
X16213042Y-41293208D01*
X16051760Y-41318753D01*
X15849585Y-41384444D01*
X15660179Y-41480951D01*
X15488213Y-41605890D01*
X15337890Y-41756213D01*
X15212951Y-41928179D01*
X15116444Y-42117585D01*
X15050753Y-42319760D01*
X15017500Y-42529713D01*
X15017500Y-42742286D01*
X15050319Y-42949500D01*
X15050754Y-42952243D01*
X15116156Y-43153530D01*
X15116444Y-43154414D01*
X15212951Y-43343820D01*
X15337890Y-43515786D01*
X15461572Y-43639468D01*
X15495057Y-43700791D01*
X15490073Y-43770483D01*
X15455096Y-43820860D01*
X15431415Y-43841380D01*
X15335705Y-43951833D01*
X15335701Y-43951839D01*
X15274987Y-44084781D01*
X15255300Y-44151826D01*
X15254956Y-44154222D01*
X15234500Y-44296498D01*
X15234500Y-45342000D01*
X15234501Y-45342009D01*
X15246235Y-45451151D01*
X15246237Y-45451163D01*
X15257443Y-45502673D01*
X15292106Y-45606820D01*
X15292109Y-45606826D01*
X15371128Y-45729781D01*
X15371134Y-45729788D01*
X15416879Y-45782581D01*
X15416882Y-45782584D01*
X15416884Y-45782586D01*
X15428457Y-45792614D01*
X15527335Y-45878294D01*
X15527337Y-45878295D01*
X15527339Y-45878297D01*
X15660287Y-45939014D01*
X15660296Y-45939016D01*
X15663091Y-45940059D01*
X15663898Y-45940663D01*
X15664316Y-45940854D01*
X15664274Y-45940944D01*
X15719029Y-45981924D01*
X15743454Y-46047385D01*
X15728610Y-46115660D01*
X15722873Y-46125136D01*
X15631374Y-46262074D01*
X15631364Y-46262092D01*
X15555950Y-46444160D01*
X15555947Y-46444170D01*
X15517500Y-46637456D01*
X15517500Y-46637459D01*
X15517500Y-46834541D01*
X15517500Y-46834543D01*
X15517499Y-46834543D01*
X15555947Y-47027829D01*
X15555950Y-47027839D01*
X15631364Y-47209907D01*
X15631371Y-47209920D01*
X15740860Y-47373781D01*
X15740863Y-47373785D01*
X15880214Y-47513136D01*
X15880218Y-47513139D01*
X15895571Y-47523398D01*
X15940376Y-47577011D01*
X15949083Y-47646336D01*
X15918928Y-47709363D01*
X15859485Y-47746082D01*
X15826680Y-47750500D01*
X15617997Y-47750500D01*
X15563687Y-47756338D01*
X15512181Y-47767543D01*
X15512172Y-47767546D01*
X15485807Y-47774779D01*
X15485796Y-47774783D01*
X15399181Y-47824105D01*
X15399173Y-47824111D01*
X15346371Y-47869863D01*
X15314743Y-47902640D01*
X15268534Y-47990977D01*
X15268533Y-47990977D01*
X15248851Y-48058009D01*
X15248848Y-48058021D01*
X15238500Y-48129998D01*
X15238500Y-49152002D01*
X15244338Y-49206312D01*
X15255543Y-49257818D01*
X15255546Y-49257827D01*
X15262779Y-49284192D01*
X15262783Y-49284203D01*
X15312105Y-49370818D01*
X15312110Y-49370825D01*
X15312112Y-49370828D01*
X15338580Y-49401374D01*
X15357863Y-49423628D01*
X15357866Y-49423631D01*
X15357867Y-49423632D01*
X15390641Y-49455257D01*
X15478976Y-49501465D01*
X15478977Y-49501465D01*
X15478977Y-49501466D01*
X15541975Y-49519964D01*
X15600753Y-49557739D01*
X15629778Y-49621294D01*
X15619834Y-49690453D01*
X15579925Y-49739259D01*
X15488214Y-49805890D01*
X15488209Y-49805894D01*
X15337890Y-49956213D01*
X15212951Y-50128179D01*
X15116444Y-50317585D01*
X15116443Y-50317587D01*
X15116443Y-50317588D01*
X15099968Y-50368294D01*
X15050753Y-50519760D01*
X15017500Y-50729713D01*
X15017500Y-50942286D01*
X15050193Y-51148706D01*
X15050754Y-51152243D01*
X15107267Y-51326172D01*
X15116444Y-51354414D01*
X15212951Y-51543820D01*
X15337890Y-51715786D01*
X15488213Y-51866109D01*
X15660179Y-51991048D01*
X15660181Y-51991049D01*
X15660184Y-51991051D01*
X15849588Y-52087557D01*
X16051757Y-52153246D01*
X16261713Y-52186500D01*
X16261714Y-52186500D01*
X17774286Y-52186500D01*
X17774287Y-52186500D01*
X17984243Y-52153246D01*
X18186412Y-52087557D01*
X18375816Y-51991051D01*
X18445401Y-51940495D01*
X18547786Y-51866109D01*
X18547788Y-51866106D01*
X18547792Y-51866104D01*
X18698104Y-51715792D01*
X18698106Y-51715788D01*
X18698109Y-51715786D01*
X18823048Y-51543820D01*
X18823047Y-51543820D01*
X18823051Y-51543816D01*
X18919557Y-51354412D01*
X18985246Y-51152243D01*
X19018500Y-50942287D01*
X19018500Y-50729713D01*
X19010097Y-50676660D01*
X19019051Y-50607369D01*
X19064047Y-50553917D01*
X19130799Y-50533277D01*
X19198112Y-50552001D01*
X19220251Y-50569583D01*
X19341015Y-50690347D01*
X19361365Y-50708626D01*
X19361371Y-50708631D01*
X19361379Y-50708638D01*
X19382000Y-50725255D01*
X19382002Y-50725256D01*
X19382007Y-50725260D01*
X19470338Y-50771465D01*
X19537377Y-50791150D01*
X19537381Y-50791150D01*
X19537383Y-50791151D01*
X19549014Y-50792823D01*
X19609362Y-50801500D01*
X19609363Y-50801500D01*
X22990000Y-50801500D01*
X23044313Y-50795661D01*
X23095824Y-50784455D01*
X23122198Y-50777219D01*
X23181140Y-50743655D01*
X23249137Y-50727587D01*
X23315027Y-50750832D01*
X23357890Y-50806009D01*
X23366500Y-50851409D01*
X23366500Y-51788164D01*
X23346815Y-51855203D01*
X23294011Y-51900958D01*
X23224853Y-51910902D01*
X23161297Y-51881877D01*
X23154819Y-51875845D01*
X23138340Y-51859366D01*
X22987527Y-51766343D01*
X22987522Y-51766341D01*
X22819325Y-51710606D01*
X22715515Y-51700000D01*
X21844000Y-51700000D01*
X21844000Y-54016000D01*
X22715503Y-54016000D01*
X22715515Y-54015999D01*
X22819325Y-54005393D01*
X22987522Y-53949658D01*
X22987527Y-53949656D01*
X23138340Y-53856633D01*
X23154819Y-53840155D01*
X23216142Y-53806670D01*
X23285834Y-53811654D01*
X23341767Y-53853526D01*
X23366184Y-53918990D01*
X23366500Y-53927836D01*
X23366500Y-54232002D01*
X23372338Y-54286312D01*
X23381187Y-54326986D01*
X23383545Y-54337824D01*
X23390781Y-54364198D01*
X23392706Y-54371214D01*
X23391459Y-54441072D01*
X23354327Y-54497733D01*
X23307413Y-54538383D01*
X23211705Y-54648835D01*
X23211701Y-54648841D01*
X23150987Y-54781783D01*
X23135725Y-54833761D01*
X23131301Y-54848826D01*
X23131300Y-54848830D01*
X23110500Y-54993500D01*
X23110500Y-57676000D01*
X23110501Y-57676009D01*
X23122235Y-57785151D01*
X23122237Y-57785163D01*
X23133443Y-57836673D01*
X23168106Y-57940820D01*
X23168109Y-57940826D01*
X23247128Y-58063781D01*
X23247134Y-58063788D01*
X23292879Y-58116581D01*
X23292882Y-58116584D01*
X23292884Y-58116586D01*
X23309657Y-58131120D01*
X23403335Y-58212294D01*
X23403337Y-58212295D01*
X23403339Y-58212297D01*
X23536287Y-58273014D01*
X23603326Y-58292699D01*
X23603330Y-58292700D01*
X23748000Y-58313500D01*
X23748003Y-58313500D01*
X27236853Y-58313500D01*
X27236865Y-58313500D01*
X27287205Y-58311027D01*
X27311396Y-58308644D01*
X27361236Y-58301250D01*
X27461113Y-58281382D01*
X27485304Y-58279000D01*
X27538695Y-58279000D01*
X27562886Y-58281383D01*
X27662734Y-58301244D01*
X27662745Y-58301245D01*
X27662766Y-58301250D01*
X27712597Y-58308643D01*
X27712599Y-58308643D01*
X27712604Y-58308644D01*
X27720190Y-58309391D01*
X27736770Y-58311025D01*
X27736780Y-58311025D01*
X27736795Y-58311027D01*
X27787135Y-58313500D01*
X27787147Y-58313500D01*
X29875990Y-58313500D01*
X29876000Y-58313500D01*
X29985157Y-58301764D01*
X30036668Y-58290558D01*
X30071440Y-58278984D01*
X30140820Y-58255893D01*
X30140824Y-58255890D01*
X30140827Y-58255890D01*
X30263782Y-58176871D01*
X30316586Y-58131116D01*
X30412297Y-58020661D01*
X30473014Y-57887713D01*
X30492699Y-57820674D01*
X30492700Y-57820670D01*
X30513500Y-57676000D01*
X30513500Y-57646394D01*
X30533185Y-57579355D01*
X30585989Y-57533600D01*
X30655147Y-57523656D01*
X30698692Y-57539370D01*
X30698871Y-57539020D01*
X30701662Y-57540442D01*
X30702296Y-57540671D01*
X30703206Y-57541229D01*
X30703212Y-57541232D01*
X30857555Y-57619873D01*
X31022299Y-57673402D01*
X31193389Y-57700500D01*
X31193390Y-57700500D01*
X31366610Y-57700500D01*
X31366611Y-57700500D01*
X31537701Y-57673402D01*
X31702445Y-57619873D01*
X31856788Y-57541232D01*
X31996928Y-57439414D01*
X32119414Y-57316928D01*
X32221232Y-57176788D01*
X32299873Y-57022445D01*
X32353402Y-56857701D01*
X32380500Y-56686611D01*
X32380500Y-56513389D01*
X32353402Y-56342299D01*
X32299873Y-56177555D01*
X32221232Y-56023212D01*
X32119414Y-55883072D01*
X31996928Y-55760586D01*
X31996927Y-55760585D01*
X31951613Y-55727662D01*
X31908948Y-55672331D01*
X31900500Y-55627345D01*
X31900500Y-54952146D01*
X31920185Y-54885107D01*
X31972989Y-54839352D01*
X32042147Y-54829408D01*
X32061390Y-54833761D01*
X32215745Y-54881859D01*
X32215757Y-54881862D01*
X32245999Y-54884609D01*
X32246000Y-54884609D01*
X32246000Y-53724000D01*
X32265685Y-53656961D01*
X32318489Y-53611206D01*
X32370000Y-53600000D01*
X32630000Y-53600000D01*
X32697039Y-53619685D01*
X32742794Y-53672489D01*
X32754000Y-53724000D01*
X32754000Y-54884609D01*
X32784242Y-54881862D01*
X32784254Y-54881859D01*
X32938610Y-54833761D01*
X33008470Y-54832609D01*
X33067862Y-54869410D01*
X33097930Y-54932479D01*
X33099500Y-54952146D01*
X33099500Y-55712796D01*
X33079815Y-55779835D01*
X33063181Y-55800477D01*
X32980588Y-55883069D01*
X32980588Y-55883070D01*
X32980586Y-55883072D01*
X32969906Y-55897772D01*
X32878768Y-56023211D01*
X32800128Y-56177552D01*
X32746597Y-56342302D01*
X32719500Y-56513389D01*
X32719500Y-56686610D01*
X32746011Y-56854000D01*
X32746598Y-56857701D01*
X32795657Y-57008689D01*
X32800128Y-57022447D01*
X32839643Y-57100000D01*
X32878768Y-57176788D01*
X32980586Y-57316928D01*
X33103072Y-57439414D01*
X33243212Y-57541232D01*
X33397555Y-57619873D01*
X33562299Y-57673402D01*
X33733389Y-57700500D01*
X33733390Y-57700500D01*
X33906610Y-57700500D01*
X33906611Y-57700500D01*
X34077701Y-57673402D01*
X34242445Y-57619873D01*
X34396788Y-57541232D01*
X34536928Y-57439414D01*
X34659414Y-57316928D01*
X34761232Y-57176788D01*
X34767514Y-57164457D01*
X34815488Y-57113661D01*
X34883309Y-57096865D01*
X34949444Y-57119401D01*
X34992896Y-57174116D01*
X35002000Y-57220751D01*
X35002000Y-57498581D01*
X35008506Y-57559097D01*
X35059553Y-57695961D01*
X35147096Y-57812903D01*
X35264038Y-57900445D01*
X35264038Y-57900446D01*
X35400902Y-57951493D01*
X35461418Y-57957999D01*
X35461420Y-57958000D01*
X36106000Y-57958000D01*
X36106000Y-57030702D01*
X36167007Y-57065925D01*
X36294174Y-57100000D01*
X36425826Y-57100000D01*
X36552993Y-57065925D01*
X36614000Y-57030702D01*
X36614000Y-57958000D01*
X37258580Y-57958000D01*
X37258581Y-57957999D01*
X37319097Y-57951493D01*
X37455961Y-57900446D01*
X37455961Y-57900445D01*
X37572903Y-57812903D01*
X37660445Y-57695961D01*
X37660446Y-57695961D01*
X37711493Y-57559097D01*
X37717999Y-57498581D01*
X37718000Y-57498580D01*
X37718000Y-56854000D01*
X36790703Y-56854000D01*
X36825925Y-56792993D01*
X36860000Y-56665826D01*
X36860000Y-56534174D01*
X36825925Y-56407007D01*
X36790703Y-56346000D01*
X37718000Y-56346000D01*
X37718000Y-55701420D01*
X37717999Y-55701418D01*
X37711493Y-55640900D01*
X37673300Y-55538499D01*
X37660446Y-55504039D01*
X37660445Y-55504038D01*
X37657451Y-55500038D01*
X47167500Y-55500038D01*
X47167500Y-55751962D01*
X47188266Y-55883070D01*
X47206910Y-56000785D01*
X47284760Y-56240383D01*
X47363413Y-56394747D01*
X47385882Y-56438845D01*
X47399132Y-56464848D01*
X47547201Y-56668649D01*
X47547205Y-56668654D01*
X47725345Y-56846794D01*
X47725350Y-56846798D01*
X47893365Y-56968867D01*
X47929155Y-56994870D01*
X48072184Y-57067747D01*
X48153616Y-57109239D01*
X48153618Y-57109239D01*
X48153621Y-57109241D01*
X48393215Y-57187090D01*
X48642038Y-57226500D01*
X48642039Y-57226500D01*
X48893961Y-57226500D01*
X48893962Y-57226500D01*
X49142785Y-57187090D01*
X49382379Y-57109241D01*
X49606845Y-56994870D01*
X49810656Y-56846793D01*
X49988793Y-56668656D01*
X50136870Y-56464845D01*
X50251241Y-56240379D01*
X50329090Y-56000785D01*
X50368500Y-55751962D01*
X50368500Y-55500038D01*
X50329090Y-55251215D01*
X50251241Y-55011621D01*
X50251239Y-55011618D01*
X50251239Y-55011616D01*
X50186525Y-54884609D01*
X50136870Y-54787155D01*
X50045177Y-54660950D01*
X49988798Y-54583350D01*
X49988794Y-54583345D01*
X49810654Y-54405205D01*
X49810649Y-54405201D01*
X49606848Y-54257132D01*
X49606847Y-54257131D01*
X49606845Y-54257130D01*
X49522219Y-54214011D01*
X49382383Y-54142760D01*
X49142785Y-54064910D01*
X48893962Y-54025500D01*
X48642038Y-54025500D01*
X48517626Y-54045205D01*
X48393214Y-54064910D01*
X48153616Y-54142760D01*
X47929151Y-54257132D01*
X47725350Y-54405201D01*
X47725345Y-54405205D01*
X47547205Y-54583345D01*
X47547201Y-54583350D01*
X47399132Y-54787151D01*
X47284760Y-55011616D01*
X47206910Y-55251214D01*
X47172363Y-55469332D01*
X47167500Y-55500038D01*
X37657451Y-55500038D01*
X37572903Y-55387096D01*
X37455961Y-55299554D01*
X37455961Y-55299553D01*
X37319097Y-55248506D01*
X37258581Y-55242000D01*
X36614000Y-55242000D01*
X36614000Y-56169297D01*
X36552993Y-56134075D01*
X36425826Y-56100000D01*
X36294174Y-56100000D01*
X36167007Y-56134075D01*
X36106000Y-56169297D01*
X36106000Y-55242000D01*
X35461418Y-55242000D01*
X35400902Y-55248506D01*
X35264038Y-55299553D01*
X35264038Y-55299554D01*
X35147096Y-55387096D01*
X35059554Y-55504038D01*
X35059553Y-55504038D01*
X35008506Y-55640902D01*
X35002000Y-55701418D01*
X35002000Y-55979248D01*
X34982315Y-56046287D01*
X34929511Y-56092042D01*
X34860353Y-56101986D01*
X34796797Y-56072961D01*
X34767516Y-56035544D01*
X34761233Y-56023214D01*
X34761231Y-56023211D01*
X34659414Y-55883072D01*
X34536928Y-55760586D01*
X34396788Y-55658768D01*
X34242445Y-55580127D01*
X34077701Y-55526598D01*
X34077699Y-55526597D01*
X34077698Y-55526597D01*
X33905102Y-55499261D01*
X33841967Y-55469332D01*
X33805036Y-55410020D01*
X33800500Y-55376788D01*
X33800500Y-54660950D01*
X33820185Y-54593911D01*
X33851615Y-54560631D01*
X33858271Y-54555793D01*
X33858281Y-54555789D01*
X33950789Y-54463281D01*
X34010182Y-54346715D01*
X34011593Y-54337810D01*
X34019719Y-54286500D01*
X34025500Y-54250003D01*
X34025499Y-52979825D01*
X34045184Y-52912787D01*
X34097987Y-52867032D01*
X34117399Y-52860053D01*
X34171288Y-52845614D01*
X34178433Y-52841489D01*
X34251212Y-52799470D01*
X34382106Y-52668575D01*
X34443425Y-52635093D01*
X34513117Y-52640077D01*
X34569051Y-52681948D01*
X34584345Y-52708807D01*
X34617611Y-52789120D01*
X34617618Y-52789133D01*
X34688803Y-52895668D01*
X34688806Y-52895672D01*
X34779407Y-52986273D01*
X34779411Y-52986276D01*
X34885946Y-53057461D01*
X34885952Y-53057464D01*
X34885953Y-53057465D01*
X35004336Y-53106501D01*
X35004340Y-53106501D01*
X35004341Y-53106502D01*
X35130008Y-53131500D01*
X35130011Y-53131500D01*
X35258151Y-53131500D01*
X35356179Y-53112000D01*
X35383824Y-53106501D01*
X35502207Y-53057465D01*
X35608749Y-52986276D01*
X35699356Y-52895669D01*
X35699357Y-52895668D01*
X35705410Y-52886609D01*
X35759022Y-52841804D01*
X35808512Y-52831500D01*
X36961142Y-52831500D01*
X36961144Y-52831500D01*
X37050288Y-52807614D01*
X37064394Y-52799470D01*
X37130212Y-52761470D01*
X37606470Y-52285212D01*
X37652614Y-52205288D01*
X37676500Y-52116144D01*
X37676500Y-52023856D01*
X37676500Y-51536876D01*
X37688118Y-51484471D01*
X37706392Y-51445282D01*
X37720259Y-51415545D01*
X37726500Y-51368139D01*
X37726499Y-50804498D01*
X37746183Y-50737460D01*
X37798987Y-50691705D01*
X37850499Y-50680499D01*
X38414133Y-50680499D01*
X38414138Y-50680499D01*
X38461545Y-50674259D01*
X38530471Y-50642117D01*
X38541474Y-50639678D01*
X38547941Y-50635523D01*
X38582876Y-50630500D01*
X38804737Y-50630500D01*
X38871776Y-50650185D01*
X38917531Y-50702989D01*
X38920918Y-50711165D01*
X38934932Y-50748738D01*
X38941288Y-50765778D01*
X39025384Y-50878116D01*
X39111104Y-50942286D01*
X39130150Y-50956544D01*
X39137722Y-50962212D01*
X39230094Y-50996665D01*
X39269200Y-51011251D01*
X39327309Y-51017499D01*
X39327326Y-51017500D01*
X39920674Y-51017500D01*
X39920690Y-51017499D01*
X39978799Y-51011251D01*
X40110278Y-50962212D01*
X40222616Y-50878116D01*
X40306712Y-50765778D01*
X40355751Y-50634299D01*
X40357894Y-50614364D01*
X40361999Y-50576190D01*
X40362000Y-50576173D01*
X40362000Y-50301044D01*
X40368238Y-50279798D01*
X40369818Y-50257710D01*
X40377890Y-50246926D01*
X40381685Y-50234005D01*
X40398418Y-50219505D01*
X40411690Y-50201777D01*
X40424310Y-50197069D01*
X40434489Y-50188250D01*
X40456406Y-50185098D01*
X40477154Y-50177360D01*
X40490314Y-50180222D01*
X40503647Y-50178306D01*
X40523790Y-50187505D01*
X40545427Y-50192212D01*
X40563152Y-50205480D01*
X40567203Y-50207331D01*
X40573681Y-50213363D01*
X40674681Y-50314363D01*
X40708166Y-50375686D01*
X40711000Y-50402044D01*
X40711000Y-50576190D01*
X40717248Y-50634299D01*
X40752156Y-50727888D01*
X40760713Y-50750832D01*
X40766289Y-50765780D01*
X40795274Y-50804499D01*
X40850384Y-50878116D01*
X40936104Y-50942286D01*
X40955150Y-50956544D01*
X40962722Y-50962212D01*
X41055094Y-50996665D01*
X41094200Y-51011251D01*
X41152309Y-51017499D01*
X41152326Y-51017500D01*
X41745674Y-51017500D01*
X41745690Y-51017499D01*
X41803799Y-51011251D01*
X41935278Y-50962212D01*
X42047616Y-50878116D01*
X42131712Y-50765778D01*
X42180751Y-50634299D01*
X42182894Y-50614364D01*
X42186999Y-50576190D01*
X42187000Y-50576173D01*
X42187000Y-50007826D01*
X42186999Y-50007809D01*
X42180751Y-49949700D01*
X42159655Y-49893140D01*
X42131712Y-49818222D01*
X42129048Y-49814664D01*
X42114482Y-49795206D01*
X42047616Y-49705884D01*
X41952971Y-49635033D01*
X41935280Y-49621789D01*
X41935278Y-49621788D01*
X41907593Y-49611462D01*
X41803799Y-49572748D01*
X41745690Y-49566500D01*
X41745674Y-49566500D01*
X41175500Y-49566500D01*
X41108461Y-49546815D01*
X41062706Y-49494011D01*
X41051500Y-49442500D01*
X41051500Y-43859494D01*
X41051500Y-43859492D01*
X41027614Y-43770348D01*
X41020810Y-43758563D01*
X40981470Y-43690424D01*
X40444576Y-43153530D01*
X40444575Y-43153529D01*
X40444572Y-43153527D01*
X40364654Y-43107387D01*
X40364647Y-43107384D01*
X40350038Y-43103469D01*
X40350038Y-43103470D01*
X40312772Y-43093485D01*
X40275508Y-43083500D01*
X40275507Y-43083500D01*
X40089226Y-43083500D01*
X40022187Y-43063815D01*
X39976432Y-43011011D01*
X39966488Y-42941853D01*
X39974665Y-42912048D01*
X39995499Y-42861748D01*
X39995501Y-42861744D01*
X40005819Y-42809873D01*
X40020500Y-42736071D01*
X40020500Y-42607928D01*
X39995502Y-42482261D01*
X39995501Y-42482260D01*
X39995501Y-42482256D01*
X39946465Y-42363873D01*
X39946464Y-42363872D01*
X39946461Y-42363866D01*
X39875276Y-42257331D01*
X39875273Y-42257327D01*
X39784669Y-42166723D01*
X39726119Y-42127602D01*
X39681314Y-42073990D01*
X39672607Y-42004665D01*
X39702761Y-41941638D01*
X39762204Y-41904918D01*
X39795010Y-41900500D01*
X39974676Y-41900500D01*
X39974677Y-41900499D01*
X40047740Y-41885966D01*
X40130601Y-41830601D01*
X40130600Y-41830601D01*
X40131110Y-41830261D01*
X40197787Y-41809383D01*
X40265167Y-41827868D01*
X40268890Y-41830261D01*
X40352256Y-41885964D01*
X40352258Y-41885964D01*
X40352260Y-41885966D01*
X40352262Y-41885966D01*
X40352264Y-41885967D01*
X40425321Y-41900499D01*
X40425324Y-41900500D01*
X40425326Y-41900500D01*
X41074676Y-41900500D01*
X41074677Y-41900499D01*
X41147740Y-41885966D01*
X41230601Y-41830601D01*
X41285966Y-41747740D01*
X41300500Y-41674674D01*
X41300500Y-40493544D01*
X41306738Y-40472298D01*
X41308318Y-40450210D01*
X41316390Y-40439426D01*
X41320185Y-40426505D01*
X41336918Y-40412005D01*
X41350190Y-40394277D01*
X41362810Y-40389569D01*
X41372989Y-40380750D01*
X41394906Y-40377598D01*
X41415654Y-40369860D01*
X41428814Y-40372722D01*
X41442147Y-40370806D01*
X41462290Y-40380005D01*
X41483927Y-40384712D01*
X41501652Y-40397980D01*
X41505703Y-40399831D01*
X41512181Y-40405863D01*
X41523181Y-40416863D01*
X41556666Y-40478186D01*
X41559500Y-40504544D01*
X41559500Y-43956143D01*
X41574007Y-44010287D01*
X41583385Y-44045285D01*
X41583387Y-44045290D01*
X41629527Y-44125208D01*
X41629529Y-44125211D01*
X41629530Y-44125212D01*
X41874528Y-44370210D01*
X42112459Y-44608140D01*
X42112462Y-44608144D01*
X42675905Y-45171587D01*
X42709390Y-45232910D01*
X42704406Y-45302602D01*
X42662534Y-45358535D01*
X42647570Y-45368059D01*
X42540356Y-45439698D01*
X42540352Y-45439701D01*
X42449751Y-45530302D01*
X42449748Y-45530306D01*
X42378563Y-45636841D01*
X42378558Y-45636850D01*
X42329524Y-45755230D01*
X42329522Y-45755236D01*
X42304525Y-45880903D01*
X42304525Y-45880906D01*
X42304525Y-46009044D01*
X42304525Y-46009046D01*
X42304524Y-46009046D01*
X42329522Y-46134713D01*
X42329524Y-46134719D01*
X42378558Y-46253099D01*
X42378563Y-46253108D01*
X42449748Y-46359643D01*
X42449751Y-46359647D01*
X42540352Y-46450248D01*
X42540356Y-46450251D01*
X42646891Y-46521436D01*
X42646900Y-46521441D01*
X42659020Y-46526461D01*
X42765281Y-46570476D01*
X42765285Y-46570476D01*
X42765286Y-46570477D01*
X42890953Y-46595475D01*
X42890956Y-46595475D01*
X43019094Y-46595475D01*
X43029775Y-46593350D01*
X43099365Y-46599573D01*
X43141653Y-46627285D01*
X43530982Y-47016614D01*
X43564467Y-47077937D01*
X43559483Y-47147629D01*
X43517611Y-47203562D01*
X43512192Y-47207397D01*
X43419399Y-47269398D01*
X43364033Y-47352260D01*
X43364032Y-47352264D01*
X43349500Y-47425321D01*
X43349500Y-47508192D01*
X43329815Y-47575231D01*
X43277011Y-47620986D01*
X43207853Y-47630930D01*
X43144297Y-47601905D01*
X43137819Y-47595873D01*
X43086672Y-47544726D01*
X43086668Y-47544723D01*
X42980133Y-47473538D01*
X42980124Y-47473533D01*
X42861744Y-47424499D01*
X42861738Y-47424497D01*
X42736071Y-47399500D01*
X42736069Y-47399500D01*
X42607931Y-47399500D01*
X42607929Y-47399500D01*
X42482261Y-47424497D01*
X42482255Y-47424499D01*
X42363875Y-47473533D01*
X42363866Y-47473538D01*
X42257331Y-47544723D01*
X42257327Y-47544726D01*
X42166726Y-47635327D01*
X42166723Y-47635331D01*
X42095538Y-47741866D01*
X42095533Y-47741875D01*
X42046499Y-47860255D01*
X42046497Y-47860261D01*
X42021500Y-47985928D01*
X42021500Y-47985931D01*
X42021500Y-48114069D01*
X42021500Y-48114071D01*
X42021499Y-48114071D01*
X42046497Y-48239738D01*
X42046499Y-48239744D01*
X42095533Y-48358124D01*
X42095538Y-48358133D01*
X42166723Y-48464668D01*
X42166726Y-48464672D01*
X42257328Y-48555274D01*
X42257331Y-48555276D01*
X42295100Y-48580512D01*
X42339905Y-48634124D01*
X42344227Y-48646490D01*
X42345386Y-48649289D01*
X42391527Y-48729208D01*
X42391531Y-48729213D01*
X43413181Y-49750863D01*
X43427884Y-49777790D01*
X43444477Y-49803609D01*
X43445368Y-49809809D01*
X43446666Y-49812186D01*
X43449500Y-49838544D01*
X43449500Y-49847935D01*
X43429815Y-49914974D01*
X43425261Y-49920624D01*
X43364034Y-50012260D01*
X43364032Y-50012264D01*
X43349500Y-50085321D01*
X43349500Y-51634678D01*
X43364032Y-51707735D01*
X43364033Y-51707739D01*
X43382405Y-51735235D01*
X43419399Y-51790601D01*
X43494177Y-51840565D01*
X43502260Y-51845966D01*
X43502264Y-51845967D01*
X43575321Y-51860499D01*
X43575324Y-51860500D01*
X43740881Y-51860500D01*
X43807920Y-51880185D01*
X43840148Y-51910189D01*
X43887096Y-51972903D01*
X44004038Y-52060445D01*
X44004038Y-52060446D01*
X44140902Y-52111493D01*
X44201418Y-52117999D01*
X44201420Y-52118000D01*
X44250000Y-52118000D01*
X44250000Y-51645841D01*
X44251490Y-51640767D01*
X44250500Y-51640767D01*
X44250500Y-50079235D01*
X44251104Y-50079235D01*
X44250000Y-50074158D01*
X44250000Y-49602000D01*
X44247295Y-49602000D01*
X44180256Y-49582315D01*
X44135014Y-49530621D01*
X44130358Y-49520688D01*
X44126614Y-49506712D01*
X44114367Y-49485500D01*
X44080470Y-49426788D01*
X44046465Y-49392783D01*
X44012980Y-49331460D01*
X44017964Y-49261768D01*
X44059836Y-49205835D01*
X44086698Y-49190539D01*
X44097733Y-49185967D01*
X44097740Y-49185966D01*
X44180601Y-49130601D01*
X44194166Y-49110299D01*
X44203193Y-49096790D01*
X44256805Y-49051984D01*
X44306295Y-49041680D01*
X44364069Y-49041680D01*
X44463002Y-49022000D01*
X44489742Y-49016681D01*
X44515980Y-49005812D01*
X44585445Y-48998343D01*
X44647925Y-49029616D01*
X44666534Y-49051483D01*
X44719397Y-49130599D01*
X44719398Y-49130599D01*
X44719399Y-49130601D01*
X44773676Y-49166867D01*
X44802260Y-49185966D01*
X44802264Y-49185967D01*
X44875321Y-49200499D01*
X44875324Y-49200500D01*
X44875326Y-49200500D01*
X45126500Y-49200500D01*
X45193539Y-49220185D01*
X45239294Y-49272989D01*
X45250500Y-49324500D01*
X45250500Y-49691926D01*
X45230815Y-49758965D01*
X45178011Y-49804720D01*
X45108853Y-49814664D01*
X45045297Y-49785639D01*
X45027235Y-49766239D01*
X45012905Y-49747097D01*
X44895961Y-49659554D01*
X44895961Y-49659553D01*
X44759097Y-49608506D01*
X44698581Y-49602000D01*
X44650000Y-49602000D01*
X44650000Y-50074158D01*
X44649500Y-50084336D01*
X44649500Y-51635673D01*
X44650000Y-51645841D01*
X44650000Y-52118000D01*
X44698580Y-52118000D01*
X44698581Y-52117999D01*
X44759097Y-52111493D01*
X44895961Y-52060446D01*
X44895961Y-52060445D01*
X45012903Y-51972903D01*
X45059852Y-51910189D01*
X45115786Y-51868318D01*
X45159119Y-51860500D01*
X45324676Y-51860500D01*
X45324677Y-51860499D01*
X45397740Y-51845966D01*
X45480601Y-51790601D01*
X45535966Y-51707740D01*
X45550500Y-51634674D01*
X45550500Y-50956544D01*
X45559144Y-50927103D01*
X45565668Y-50897117D01*
X45569422Y-50892101D01*
X45570185Y-50889505D01*
X45586819Y-50868863D01*
X45737819Y-50717863D01*
X45799142Y-50684378D01*
X45868834Y-50689362D01*
X45924767Y-50731234D01*
X45949184Y-50796698D01*
X45949500Y-50805544D01*
X45949500Y-51660636D01*
X45960134Y-51733625D01*
X45960134Y-51733626D01*
X45960135Y-51733628D01*
X46015172Y-51846210D01*
X46103789Y-51934827D01*
X46187445Y-51975723D01*
X46216375Y-51989866D01*
X46289364Y-52000500D01*
X46289370Y-52000500D01*
X46610630Y-52000500D01*
X46610636Y-52000500D01*
X46683625Y-51989866D01*
X46796211Y-51934826D01*
X46856988Y-51874048D01*
X46918309Y-51840565D01*
X46988001Y-51845549D01*
X47043935Y-51887420D01*
X47051400Y-51898610D01*
X47120854Y-52016050D01*
X47120861Y-52016059D01*
X47233940Y-52129138D01*
X47233949Y-52129145D01*
X47371606Y-52210555D01*
X47500000Y-52247856D01*
X47500000Y-51261500D01*
X47519685Y-51194461D01*
X47572489Y-51148706D01*
X47624000Y-51137500D01*
X47876000Y-51137500D01*
X47943039Y-51157185D01*
X47988794Y-51209989D01*
X48000000Y-51261500D01*
X48000000Y-52247855D01*
X48128393Y-52210555D01*
X48266050Y-52129145D01*
X48266059Y-52129138D01*
X48379138Y-52016059D01*
X48379145Y-52016050D01*
X48460556Y-51878391D01*
X48460556Y-51878390D01*
X48471069Y-51842205D01*
X48508674Y-51783318D01*
X48572146Y-51754110D01*
X48641333Y-51763855D01*
X48683069Y-51797388D01*
X48683613Y-51796845D01*
X48688602Y-51801834D01*
X48689411Y-51802484D01*
X48689884Y-51803116D01*
X48730398Y-51833445D01*
X48790438Y-51878391D01*
X48802222Y-51887212D01*
X48894594Y-51921665D01*
X48933700Y-51936251D01*
X48991809Y-51942499D01*
X48991826Y-51942500D01*
X49560174Y-51942500D01*
X49560190Y-51942499D01*
X49618299Y-51936251D01*
X49622117Y-51934827D01*
X49749778Y-51887212D01*
X49862116Y-51803116D01*
X49946212Y-51690778D01*
X49953971Y-51669973D01*
X49957444Y-51660665D01*
X49970712Y-51642940D01*
X49979912Y-51622797D01*
X49991244Y-51615514D01*
X49999316Y-51604732D01*
X50020061Y-51596994D01*
X50038690Y-51585023D01*
X50060611Y-51581871D01*
X50064781Y-51580316D01*
X50073625Y-51580000D01*
X50256375Y-51580000D01*
X50323414Y-51599685D01*
X50369169Y-51652489D01*
X50372556Y-51660665D01*
X50377971Y-51675183D01*
X50383788Y-51690778D01*
X50467884Y-51803116D01*
X50544538Y-51860499D01*
X50568438Y-51878391D01*
X50580222Y-51887212D01*
X50672594Y-51921665D01*
X50711700Y-51936251D01*
X50769809Y-51942499D01*
X50769826Y-51942500D01*
X51338174Y-51942500D01*
X51338190Y-51942499D01*
X51396299Y-51936251D01*
X51400117Y-51934827D01*
X51527778Y-51887212D01*
X51565762Y-51858777D01*
X51631224Y-51834360D01*
X51699497Y-51849211D01*
X51748903Y-51898615D01*
X51764072Y-51957992D01*
X51765492Y-55353940D01*
X51765492Y-55353946D01*
X51765497Y-55367489D01*
X51765367Y-55373211D01*
X51749056Y-55729143D01*
X51748003Y-55740551D01*
X51699309Y-56090605D01*
X51697208Y-56101868D01*
X51616412Y-56445937D01*
X51613281Y-56456957D01*
X51501074Y-56792107D01*
X51496939Y-56802791D01*
X51354279Y-57126156D01*
X51349175Y-57136413D01*
X51177287Y-57445216D01*
X51171259Y-57454958D01*
X50971591Y-57746599D01*
X50964689Y-57755744D01*
X50738967Y-58027700D01*
X50731250Y-58036168D01*
X50481387Y-58286135D01*
X50472923Y-58293855D01*
X50201050Y-58519701D01*
X50191916Y-58526600D01*
X49900369Y-58726383D01*
X49890635Y-58732412D01*
X49581886Y-58904438D01*
X49571632Y-58909546D01*
X49248333Y-59052340D01*
X49237650Y-59056480D01*
X48902548Y-59168827D01*
X48891529Y-59171963D01*
X48547484Y-59252904D01*
X48536223Y-59255009D01*
X48186196Y-59303848D01*
X48174788Y-59304906D01*
X47818897Y-59321364D01*
X47813029Y-59321496D01*
X17336511Y-59287113D01*
X17336504Y-59287113D01*
X17316429Y-59287089D01*
X17316408Y-59287073D01*
X17302735Y-59287073D01*
X17302722Y-59287069D01*
X17297155Y-59286941D01*
X16941310Y-59270489D01*
X16929906Y-59269432D01*
X16579957Y-59220616D01*
X16568698Y-59218511D01*
X16224754Y-59137616D01*
X16213738Y-59134482D01*
X15975575Y-59054658D01*
X15878709Y-59022191D01*
X15868030Y-59018054D01*
X15544809Y-58875337D01*
X15534556Y-58870232D01*
X15225866Y-58698292D01*
X15216128Y-58692262D01*
X14924633Y-58492582D01*
X14915493Y-58485680D01*
X14881061Y-58457088D01*
X14643664Y-58259954D01*
X14635199Y-58252238D01*
X14385349Y-58002386D01*
X14377633Y-57993922D01*
X14289441Y-57887716D01*
X14151902Y-57722083D01*
X14145002Y-57712946D01*
X13945314Y-57421435D01*
X13939289Y-57411703D01*
X13901632Y-57344095D01*
X13767353Y-57103016D01*
X13762257Y-57092781D01*
X13642165Y-56820793D01*
X13619533Y-56769535D01*
X13615396Y-56758856D01*
X13591182Y-56686610D01*
X13503104Y-56423817D01*
X13499979Y-56412832D01*
X13419079Y-56068860D01*
X13416981Y-56057636D01*
X13368163Y-55707659D01*
X13367107Y-55696261D01*
X13366842Y-55690526D01*
X13356835Y-55474038D01*
X14699500Y-55474038D01*
X14699500Y-55725962D01*
X14724384Y-55883070D01*
X14738910Y-55974785D01*
X14816760Y-56214383D01*
X14859848Y-56298947D01*
X14920714Y-56418403D01*
X14931132Y-56438848D01*
X15079201Y-56642649D01*
X15079205Y-56642654D01*
X15257345Y-56820794D01*
X15257350Y-56820798D01*
X15435117Y-56949952D01*
X15461155Y-56968870D01*
X15566302Y-57022445D01*
X15685616Y-57083239D01*
X15685618Y-57083239D01*
X15685621Y-57083241D01*
X15925215Y-57161090D01*
X16174038Y-57200500D01*
X16174039Y-57200500D01*
X16425961Y-57200500D01*
X16425962Y-57200500D01*
X16674785Y-57161090D01*
X16914379Y-57083241D01*
X17138845Y-56968870D01*
X17342656Y-56820793D01*
X17520793Y-56642656D01*
X17668870Y-56438845D01*
X17783241Y-56214379D01*
X17861090Y-55974785D01*
X17900500Y-55725962D01*
X17900500Y-55474038D01*
X17861090Y-55225215D01*
X17783241Y-54985621D01*
X17783239Y-54985618D01*
X17783239Y-54985616D01*
X17741747Y-54904184D01*
X17668870Y-54761155D01*
X17596067Y-54660950D01*
X17520798Y-54557350D01*
X17520794Y-54557345D01*
X17342654Y-54379205D01*
X17342649Y-54379201D01*
X17138848Y-54231132D01*
X17138847Y-54231131D01*
X17138845Y-54231130D01*
X17068747Y-54195413D01*
X16914383Y-54116760D01*
X16674785Y-54038910D01*
X16530138Y-54016000D01*
X16425962Y-53999500D01*
X16174038Y-53999500D01*
X16069868Y-54015999D01*
X15925214Y-54038910D01*
X15685616Y-54116760D01*
X15461151Y-54231132D01*
X15257350Y-54379201D01*
X15257345Y-54379205D01*
X15079205Y-54557345D01*
X15079201Y-54557350D01*
X14931132Y-54761151D01*
X14816760Y-54985616D01*
X14738910Y-55225214D01*
X14701776Y-55459665D01*
X14699500Y-55474038D01*
X13356835Y-55474038D01*
X13350631Y-55339838D01*
X13350500Y-55334125D01*
X13350500Y-53308515D01*
X19757000Y-53308515D01*
X19767606Y-53412325D01*
X19823341Y-53580522D01*
X19823343Y-53580527D01*
X19916366Y-53731340D01*
X20041659Y-53856633D01*
X20192472Y-53949656D01*
X20192477Y-53949658D01*
X20360674Y-54005393D01*
X20464484Y-54015999D01*
X20464497Y-54016000D01*
X21336000Y-54016000D01*
X21336000Y-53112000D01*
X19757000Y-53112000D01*
X19757000Y-53308515D01*
X13350500Y-53308515D01*
X13350500Y-52407484D01*
X19757000Y-52407484D01*
X19757000Y-52604000D01*
X21336000Y-52604000D01*
X21336000Y-51700000D01*
X20464484Y-51700000D01*
X20360674Y-51710606D01*
X20192477Y-51766341D01*
X20192472Y-51766343D01*
X20041659Y-51859366D01*
X19916366Y-51984659D01*
X19823343Y-52135472D01*
X19823341Y-52135477D01*
X19767606Y-52303674D01*
X19757000Y-52407484D01*
X13350500Y-52407484D01*
X13350500Y-40139524D01*
X13370185Y-40072485D01*
X13422989Y-40026730D01*
X13492147Y-40016786D01*
X13539598Y-40033986D01*
X13631470Y-40090655D01*
X13631477Y-40090658D01*
X13799675Y-40146393D01*
X13903490Y-40156999D01*
X14572499Y-40156999D01*
X15080500Y-40156999D01*
X15749500Y-40156999D01*
X15749516Y-40156998D01*
X15853323Y-40146394D01*
X15853326Y-40146393D01*
X16021522Y-40090658D01*
X16021533Y-40090653D01*
X16172335Y-39997636D01*
X16172339Y-39997633D01*
X16297633Y-39872339D01*
X16297636Y-39872335D01*
X16390653Y-39721533D01*
X16390658Y-39721522D01*
X16446393Y-39553324D01*
X16456999Y-39449516D01*
X16457000Y-39449501D01*
X16457000Y-38608000D01*
X15080500Y-38608000D01*
X15080500Y-40156999D01*
X14572499Y-40156999D01*
X14572500Y-40156998D01*
X14572500Y-38100000D01*
X15080500Y-38100000D01*
X16456999Y-38100000D01*
X16456999Y-37258500D01*
X16456998Y-37258483D01*
X16446394Y-37154676D01*
X16446393Y-37154673D01*
X16390658Y-36986477D01*
X16390653Y-36986466D01*
X16297636Y-36835664D01*
X16297633Y-36835660D01*
X16172339Y-36710366D01*
X16172335Y-36710363D01*
X16021533Y-36617346D01*
X16021522Y-36617341D01*
X15853324Y-36561606D01*
X15749516Y-36551000D01*
X15080500Y-36551000D01*
X15080500Y-38100000D01*
X14572500Y-38100000D01*
X14572500Y-36551000D01*
X13903500Y-36551000D01*
X13903482Y-36551001D01*
X13799676Y-36561605D01*
X13799673Y-36561606D01*
X13631477Y-36617341D01*
X13631466Y-36617346D01*
X13539597Y-36674013D01*
X13472205Y-36692454D01*
X13405541Y-36671532D01*
X13360772Y-36617890D01*
X13350500Y-36568475D01*
X13350500Y-34817861D01*
X13370185Y-34750822D01*
X13422989Y-34705067D01*
X13492147Y-34695123D01*
X13539598Y-34712323D01*
X13611470Y-34756655D01*
X13611477Y-34756658D01*
X13779675Y-34812393D01*
X13883490Y-34822999D01*
X14552499Y-34822999D01*
X15060500Y-34822999D01*
X15729500Y-34822999D01*
X15729516Y-34822998D01*
X15833323Y-34812394D01*
X15833326Y-34812393D01*
X16001522Y-34756658D01*
X16001533Y-34756653D01*
X16152335Y-34663636D01*
X16152339Y-34663633D01*
X16277633Y-34538339D01*
X16277636Y-34538335D01*
X16370653Y-34387533D01*
X16370658Y-34387522D01*
X16426393Y-34219324D01*
X16436999Y-34115516D01*
X16437000Y-34115501D01*
X16437000Y-33274000D01*
X15060500Y-33274000D01*
X15060500Y-34822999D01*
X14552499Y-34822999D01*
X14552500Y-34822998D01*
X14552500Y-32766000D01*
X15060500Y-32766000D01*
X16436999Y-32766000D01*
X16436999Y-31924500D01*
X16436998Y-31924483D01*
X16426394Y-31820676D01*
X16426393Y-31820673D01*
X16370658Y-31652477D01*
X16370653Y-31652466D01*
X16277636Y-31501664D01*
X16277633Y-31501660D01*
X16152339Y-31376366D01*
X16152335Y-31376363D01*
X16001533Y-31283346D01*
X16001522Y-31283341D01*
X15833324Y-31227606D01*
X15729516Y-31217000D01*
X15060500Y-31217000D01*
X15060500Y-32766000D01*
X14552500Y-32766000D01*
X14552500Y-31217000D01*
X13883500Y-31217000D01*
X13883482Y-31217001D01*
X13779676Y-31227605D01*
X13779673Y-31227606D01*
X13611477Y-31283341D01*
X13611472Y-31283343D01*
X13539597Y-31327677D01*
X13472204Y-31346117D01*
X13405541Y-31325194D01*
X13360771Y-31271552D01*
X13350500Y-31222138D01*
X13350500Y-29910515D01*
X16317000Y-29910515D01*
X16327606Y-30014325D01*
X16383341Y-30182522D01*
X16383343Y-30182527D01*
X16476366Y-30333340D01*
X16601659Y-30458633D01*
X16752472Y-30551656D01*
X16752477Y-30551658D01*
X16920674Y-30607393D01*
X17024484Y-30617999D01*
X17024497Y-30618000D01*
X17233500Y-30618000D01*
X17233500Y-29464000D01*
X16317000Y-29464000D01*
X16317000Y-29910515D01*
X13350500Y-29910515D01*
X13350500Y-27370515D01*
X16278500Y-27370515D01*
X16289106Y-27474325D01*
X16344841Y-27642522D01*
X16344843Y-27642527D01*
X16437866Y-27793340D01*
X16516094Y-27871568D01*
X16549579Y-27932891D01*
X16544595Y-28002583D01*
X16516096Y-28046928D01*
X16476366Y-28086659D01*
X16383343Y-28237472D01*
X16383341Y-28237477D01*
X16327606Y-28405674D01*
X16317000Y-28509484D01*
X16317000Y-28956000D01*
X17233500Y-28956000D01*
X17233500Y-28208000D01*
X17231319Y-28205819D01*
X17197834Y-28144496D01*
X17195000Y-28118138D01*
X17195000Y-26924000D01*
X16278500Y-26924000D01*
X16278500Y-27370515D01*
X13350500Y-27370515D01*
X13350500Y-25969484D01*
X16278500Y-25969484D01*
X16278500Y-26416000D01*
X17195000Y-26416000D01*
X17195000Y-25262000D01*
X16985984Y-25262000D01*
X16882174Y-25272606D01*
X16713977Y-25328341D01*
X16713972Y-25328343D01*
X16563159Y-25421366D01*
X16437866Y-25546659D01*
X16344843Y-25697472D01*
X16344841Y-25697477D01*
X16289106Y-25865674D01*
X16278500Y-25969484D01*
X13350500Y-25969484D01*
X13350500Y-24582816D01*
X21369000Y-24582816D01*
X21369000Y-24666000D01*
X22098000Y-24666000D01*
X22606000Y-24666000D01*
X23876000Y-24666000D01*
X24384000Y-24666000D01*
X25113000Y-24666000D01*
X25113000Y-24582829D01*
X25112999Y-24582816D01*
X25102568Y-24480719D01*
X25054975Y-24337093D01*
X25054974Y-24337091D01*
X25047753Y-24315297D01*
X25047747Y-24315284D01*
X25039194Y-24301418D01*
X27842000Y-24301418D01*
X27842000Y-24896000D01*
X28396000Y-24896000D01*
X28396000Y-23842000D01*
X28301418Y-23842000D01*
X28240902Y-23848506D01*
X28104038Y-23899553D01*
X28104038Y-23899554D01*
X27987096Y-23987096D01*
X27899554Y-24104038D01*
X27899553Y-24104038D01*
X27848506Y-24240902D01*
X27842000Y-24301418D01*
X25039194Y-24301418D01*
X24956265Y-24166970D01*
X24956262Y-24166966D01*
X24833033Y-24043737D01*
X24833029Y-24043734D01*
X24684715Y-23952252D01*
X24684704Y-23952247D01*
X24519280Y-23897431D01*
X24417183Y-23887000D01*
X24384000Y-23887000D01*
X24384000Y-24666000D01*
X23876000Y-24666000D01*
X23876000Y-23887000D01*
X23842816Y-23887000D01*
X23740719Y-23897431D01*
X23575295Y-23952247D01*
X23575284Y-23952252D01*
X23426970Y-24043734D01*
X23328681Y-24142023D01*
X23267358Y-24175507D01*
X23197666Y-24170523D01*
X23153319Y-24142023D01*
X23055029Y-24043734D01*
X22906715Y-23952252D01*
X22906704Y-23952247D01*
X22741280Y-23897431D01*
X22639183Y-23887000D01*
X22606000Y-23887000D01*
X22606000Y-24666000D01*
X22098000Y-24666000D01*
X22098000Y-23887000D01*
X22064816Y-23887000D01*
X21962719Y-23897431D01*
X21797295Y-23952247D01*
X21797284Y-23952252D01*
X21648970Y-24043734D01*
X21648966Y-24043737D01*
X21525737Y-24166966D01*
X21525734Y-24166970D01*
X21434252Y-24315284D01*
X21434247Y-24315295D01*
X21379431Y-24480719D01*
X21369000Y-24582816D01*
X13350500Y-24582816D01*
X13350500Y-17102871D01*
X13350632Y-17097145D01*
X13351760Y-17072739D01*
X13360114Y-16892038D01*
X14699500Y-16892038D01*
X14699500Y-17143962D01*
X14720733Y-17278021D01*
X14738910Y-17392785D01*
X14816760Y-17632383D01*
X14931132Y-17856848D01*
X15079201Y-18060649D01*
X15079205Y-18060654D01*
X15257345Y-18238794D01*
X15257350Y-18238798D01*
X15305436Y-18273734D01*
X15461155Y-18386870D01*
X15592905Y-18454000D01*
X15685616Y-18501239D01*
X15685618Y-18501239D01*
X15685621Y-18501241D01*
X15925215Y-18579090D01*
X16174038Y-18618500D01*
X16174039Y-18618500D01*
X16425961Y-18618500D01*
X16425962Y-18618500D01*
X16674785Y-18579090D01*
X16914379Y-18501241D01*
X17138845Y-18386870D01*
X17342656Y-18238793D01*
X17520793Y-18060656D01*
X17668870Y-17856845D01*
X17783241Y-17632379D01*
X17861090Y-17392785D01*
X17900500Y-17143962D01*
X17900500Y-16892038D01*
X17861090Y-16643215D01*
X17783241Y-16403621D01*
X17783239Y-16403618D01*
X17783239Y-16403616D01*
X17715647Y-16270961D01*
X17668870Y-16179155D01*
X17592166Y-16073581D01*
X27292000Y-16073581D01*
X27298506Y-16134097D01*
X27349553Y-16270961D01*
X27437096Y-16387903D01*
X27554038Y-16475445D01*
X27554038Y-16475446D01*
X27690902Y-16526493D01*
X27751418Y-16532999D01*
X27751420Y-16533000D01*
X28071000Y-16533000D01*
X28071000Y-15179000D01*
X27292000Y-15179000D01*
X27292000Y-16073581D01*
X17592166Y-16073581D01*
X17520798Y-15975350D01*
X17520794Y-15975345D01*
X17342654Y-15797205D01*
X17342649Y-15797201D01*
X17138848Y-15649132D01*
X17138847Y-15649131D01*
X17138845Y-15649130D01*
X17046369Y-15602011D01*
X16914383Y-15534760D01*
X16674785Y-15456910D01*
X16425962Y-15417500D01*
X16174038Y-15417500D01*
X16049626Y-15437205D01*
X15925214Y-15456910D01*
X15685616Y-15534760D01*
X15461151Y-15649132D01*
X15257350Y-15797201D01*
X15257345Y-15797205D01*
X15079205Y-15975345D01*
X15079201Y-15975350D01*
X14931132Y-16179151D01*
X14816760Y-16403616D01*
X14738910Y-16643214D01*
X14724280Y-16735586D01*
X14699500Y-16892038D01*
X13360114Y-16892038D01*
X13367083Y-16741300D01*
X13368140Y-16729905D01*
X13387441Y-16591541D01*
X13416958Y-16379944D01*
X13419058Y-16368708D01*
X13499961Y-16024732D01*
X13503084Y-16013753D01*
X13615387Y-15678685D01*
X13619510Y-15668046D01*
X13762245Y-15344781D01*
X13767328Y-15334572D01*
X13939278Y-15025862D01*
X13945304Y-15016130D01*
X14087555Y-14808470D01*
X14144999Y-14724612D01*
X14151881Y-14715498D01*
X14377636Y-14443630D01*
X14385332Y-14435190D01*
X14635190Y-14185332D01*
X14643630Y-14177636D01*
X14915498Y-13951881D01*
X14924612Y-13944999D01*
X15216136Y-13745300D01*
X15225862Y-13739278D01*
X15534572Y-13567328D01*
X15544781Y-13562245D01*
X15868046Y-13419510D01*
X15878685Y-13415387D01*
X16213753Y-13303084D01*
X16224732Y-13299961D01*
X16568708Y-13219058D01*
X16579944Y-13216958D01*
X16929914Y-13168139D01*
X16941300Y-13167083D01*
X17297145Y-13150632D01*
X17302872Y-13150500D01*
X17316408Y-13150500D01*
X27480778Y-13150500D01*
X27547817Y-13170185D01*
G37*
%TD.AperFunction*%
%TA.AperFunction,Conductor*%
G36*
X30917539Y-52889185D02*
G01*
X30963294Y-52941989D01*
X30974500Y-52993500D01*
X30974500Y-54250007D01*
X30989817Y-54346713D01*
X30989817Y-54346714D01*
X30989818Y-54346715D01*
X31049211Y-54463281D01*
X31141719Y-54555789D01*
X31141724Y-54555791D01*
X31148385Y-54560631D01*
X31191051Y-54615961D01*
X31199500Y-54660950D01*
X31199500Y-55392626D01*
X31179815Y-55459665D01*
X31127011Y-55505420D01*
X31094898Y-55515099D01*
X31022302Y-55526597D01*
X30857552Y-55580128D01*
X30703206Y-55658770D01*
X30702281Y-55659338D01*
X30701881Y-55659445D01*
X30698871Y-55660980D01*
X30698548Y-55660347D01*
X30634834Y-55677576D01*
X30568233Y-55656455D01*
X30523624Y-55602679D01*
X30513500Y-55553605D01*
X30513500Y-54924010D01*
X30513500Y-54924000D01*
X30501764Y-54814843D01*
X30490558Y-54763332D01*
X30489832Y-54761151D01*
X30455893Y-54659179D01*
X30455890Y-54659173D01*
X30376871Y-54536218D01*
X30376865Y-54536211D01*
X30331120Y-54483418D01*
X30331117Y-54483415D01*
X30220664Y-54387705D01*
X30220658Y-54387701D01*
X30087716Y-54326987D01*
X30020671Y-54307300D01*
X29972446Y-54300366D01*
X29876000Y-54286500D01*
X29875998Y-54286500D01*
X27557500Y-54286500D01*
X27490461Y-54266815D01*
X27444706Y-54214011D01*
X27433500Y-54162500D01*
X27433500Y-52993500D01*
X27453185Y-52926461D01*
X27505989Y-52880706D01*
X27557500Y-52869500D01*
X30433856Y-52869500D01*
X30850500Y-52869500D01*
X30917539Y-52889185D01*
G37*
%TD.AperFunction*%
%TA.AperFunction,Conductor*%
G36*
X29843976Y-44068919D02*
G01*
X29884055Y-44095737D01*
X30093181Y-44304863D01*
X30126666Y-44366186D01*
X30129500Y-44392544D01*
X30129500Y-46170644D01*
X30152941Y-46258127D01*
X30153386Y-46259788D01*
X30179095Y-46304318D01*
X30199529Y-46339711D01*
X30825181Y-46965363D01*
X30858666Y-47026686D01*
X30861500Y-47053044D01*
X30861500Y-47528190D01*
X30867748Y-47586299D01*
X30897889Y-47667109D01*
X30916788Y-47717778D01*
X30919048Y-47720797D01*
X30939804Y-47748524D01*
X30964220Y-47813989D01*
X30949368Y-47882262D01*
X30905635Y-47928371D01*
X30883970Y-47941734D01*
X30883966Y-47941737D01*
X30760737Y-48064966D01*
X30760734Y-48064970D01*
X30669252Y-48213284D01*
X30669247Y-48213295D01*
X30614431Y-48378719D01*
X30604000Y-48480816D01*
X30604000Y-48514000D01*
X31525500Y-48514000D01*
X31592539Y-48533685D01*
X31638294Y-48586489D01*
X31649500Y-48638000D01*
X31649500Y-48898000D01*
X31629815Y-48965039D01*
X31577011Y-49010794D01*
X31525500Y-49022000D01*
X30604000Y-49022000D01*
X30604000Y-49055183D01*
X30614431Y-49157280D01*
X30669247Y-49322704D01*
X30669252Y-49322715D01*
X30760734Y-49471029D01*
X30760737Y-49471033D01*
X30883966Y-49594262D01*
X30883970Y-49594265D01*
X31032284Y-49685747D01*
X31032295Y-49685752D01*
X31124116Y-49716179D01*
X31181561Y-49755952D01*
X31208384Y-49820468D01*
X31196069Y-49889244D01*
X31148526Y-49940443D01*
X31141797Y-49944154D01*
X31141713Y-49944215D01*
X31049215Y-50036713D01*
X31049210Y-50036720D01*
X30989816Y-50153288D01*
X30974500Y-50249996D01*
X30974500Y-51550007D01*
X30989817Y-51646713D01*
X30989817Y-51646714D01*
X31004323Y-51675183D01*
X31049211Y-51763281D01*
X31049213Y-51763283D01*
X31049215Y-51763286D01*
X31141713Y-51855784D01*
X31141716Y-51855786D01*
X31141719Y-51855789D01*
X31258285Y-51915182D01*
X31258286Y-51915182D01*
X31258288Y-51915183D01*
X31258287Y-51915183D01*
X31301499Y-51922027D01*
X31364634Y-51951956D01*
X31401566Y-52011267D01*
X31400568Y-52081130D01*
X31361959Y-52139363D01*
X31297995Y-52167477D01*
X31282102Y-52168500D01*
X27557500Y-52168500D01*
X27490461Y-52148815D01*
X27444706Y-52096011D01*
X27433500Y-52044500D01*
X27433500Y-51432000D01*
X27427661Y-51377687D01*
X27416455Y-51326176D01*
X27409219Y-51299802D01*
X27409216Y-51299796D01*
X27359894Y-51213181D01*
X27359890Y-51213176D01*
X27359888Y-51213172D01*
X27314133Y-51160368D01*
X27281359Y-51128743D01*
X27193024Y-51082535D01*
X27193023Y-51082534D01*
X27193022Y-51082534D01*
X27193022Y-51082533D01*
X27125990Y-51062851D01*
X27125981Y-51062849D01*
X27103210Y-51059575D01*
X27039654Y-51030549D01*
X27001881Y-50971771D01*
X27001881Y-50901901D01*
X27015320Y-50871739D01*
X27037655Y-50835528D01*
X27037658Y-50835522D01*
X27093393Y-50667325D01*
X27103999Y-50563515D01*
X27104000Y-50563502D01*
X27104000Y-50292000D01*
X26220000Y-50292000D01*
X26152961Y-50272315D01*
X26107206Y-50219511D01*
X26096000Y-50168000D01*
X26096000Y-49908000D01*
X26115685Y-49840961D01*
X26168489Y-49795206D01*
X26220000Y-49784000D01*
X27104000Y-49784000D01*
X27104000Y-49512497D01*
X27103999Y-49512484D01*
X27093393Y-49408674D01*
X27037658Y-49240477D01*
X27037656Y-49240472D01*
X26944633Y-49089659D01*
X26819340Y-48964366D01*
X26668527Y-48871343D01*
X26668522Y-48871341D01*
X26500325Y-48815606D01*
X26396515Y-48805000D01*
X26375927Y-48805000D01*
X26349209Y-48797154D01*
X26321747Y-48792537D01*
X26316147Y-48787446D01*
X26308888Y-48785315D01*
X26290656Y-48764274D01*
X26270046Y-48745539D01*
X26265770Y-48735555D01*
X26263133Y-48732511D01*
X26256153Y-48713095D01*
X26245455Y-48673172D01*
X26239825Y-48652159D01*
X26241486Y-48582311D01*
X26280648Y-48524448D01*
X26344876Y-48496943D01*
X26402930Y-48503884D01*
X26519201Y-48547251D01*
X26545354Y-48550062D01*
X26577309Y-48553499D01*
X26577326Y-48553500D01*
X27270674Y-48553500D01*
X27270690Y-48553499D01*
X27328799Y-48547251D01*
X27341443Y-48542535D01*
X27460278Y-48498212D01*
X27572616Y-48414116D01*
X27656712Y-48301778D01*
X27670319Y-48265295D01*
X27712190Y-48209364D01*
X27777654Y-48184947D01*
X27845927Y-48199799D01*
X27895332Y-48249205D01*
X27902678Y-48265288D01*
X27913470Y-48294222D01*
X27916289Y-48301780D01*
X27943106Y-48337602D01*
X28000384Y-48414116D01*
X28068589Y-48465174D01*
X28106757Y-48493747D01*
X28112722Y-48498212D01*
X28183064Y-48524448D01*
X28244200Y-48547251D01*
X28302309Y-48553499D01*
X28302326Y-48553500D01*
X28995674Y-48553500D01*
X28995690Y-48553499D01*
X29053799Y-48547251D01*
X29066443Y-48542535D01*
X29185278Y-48498212D01*
X29297616Y-48414116D01*
X29381712Y-48301778D01*
X29430751Y-48170299D01*
X29431384Y-48164408D01*
X29436999Y-48112190D01*
X29437000Y-48112173D01*
X29437000Y-47543826D01*
X29436999Y-47543809D01*
X29430751Y-47485700D01*
X29407923Y-47424497D01*
X29381712Y-47354222D01*
X29297616Y-47241884D01*
X29185278Y-47157788D01*
X29185275Y-47157787D01*
X29148795Y-47144180D01*
X29092862Y-47102307D01*
X29068447Y-47036842D01*
X29083300Y-46968570D01*
X29132707Y-46919165D01*
X29148787Y-46911822D01*
X29185278Y-46898212D01*
X29297616Y-46814116D01*
X29381712Y-46701778D01*
X29430751Y-46570299D01*
X29433710Y-46542776D01*
X29436999Y-46512190D01*
X29437000Y-46512173D01*
X29437000Y-45943826D01*
X29436999Y-45943809D01*
X29430751Y-45885700D01*
X29414165Y-45841233D01*
X29381712Y-45754222D01*
X29319773Y-45671482D01*
X29295357Y-45606020D01*
X29310208Y-45537747D01*
X29353944Y-45491634D01*
X29414534Y-45454261D01*
X29537762Y-45331033D01*
X29537765Y-45331029D01*
X29629247Y-45182715D01*
X29629252Y-45182704D01*
X29684068Y-45017280D01*
X29694499Y-44915183D01*
X29694500Y-44915170D01*
X29694500Y-44882000D01*
X28773000Y-44882000D01*
X28705961Y-44862315D01*
X28660206Y-44809511D01*
X28649000Y-44758000D01*
X28649000Y-44498000D01*
X28668685Y-44430961D01*
X28721489Y-44385206D01*
X28773000Y-44374000D01*
X29694500Y-44374000D01*
X29694500Y-44340829D01*
X29694499Y-44340816D01*
X29684068Y-44238718D01*
X29678669Y-44222424D01*
X29676266Y-44152595D01*
X29711997Y-44092553D01*
X29774517Y-44061360D01*
X29843976Y-44068919D01*
G37*
%TD.AperFunction*%
%TA.AperFunction,Conductor*%
G36*
X36893863Y-48403410D02*
G01*
X36938380Y-48454785D01*
X36964381Y-48510542D01*
X36976000Y-48562948D01*
X36976000Y-48933155D01*
X36976001Y-48933156D01*
X37053187Y-48922995D01*
X37053192Y-48922994D01*
X37195014Y-48864251D01*
X37230505Y-48837017D01*
X37295674Y-48811822D01*
X37364119Y-48825859D01*
X37414109Y-48874673D01*
X37423960Y-48897184D01*
X37427453Y-48907969D01*
X37431741Y-48940545D01*
X37452247Y-48984522D01*
X37454602Y-48991791D01*
X37455364Y-49019383D01*
X37459509Y-49046673D01*
X37456410Y-49057226D01*
X37456532Y-49061634D01*
X37453777Y-49066191D01*
X37449018Y-49082402D01*
X37431742Y-49119451D01*
X37431740Y-49119458D01*
X37425500Y-49166859D01*
X37425500Y-49393131D01*
X37425501Y-49393138D01*
X37431741Y-49440545D01*
X37449018Y-49477596D01*
X37459509Y-49546673D01*
X37449018Y-49582402D01*
X37431742Y-49619451D01*
X37431740Y-49619458D01*
X37425500Y-49666859D01*
X37425500Y-49893131D01*
X37425501Y-49893138D01*
X37431741Y-49940545D01*
X37449018Y-49977596D01*
X37459509Y-50046673D01*
X37459157Y-50049089D01*
X37456449Y-50066467D01*
X37431741Y-50119455D01*
X37425500Y-50166861D01*
X37425500Y-50265104D01*
X37424022Y-50274590D01*
X37413060Y-50297863D01*
X37405815Y-50322539D01*
X37398421Y-50328945D01*
X37394251Y-50337800D01*
X37372446Y-50351453D01*
X37353011Y-50368294D01*
X37341579Y-50370780D01*
X37335033Y-50374880D01*
X37323368Y-50374742D01*
X37301501Y-50379500D01*
X37212868Y-50379500D01*
X37202341Y-50380885D01*
X37165455Y-50385741D01*
X37165453Y-50385742D01*
X37165451Y-50385742D01*
X37128403Y-50403018D01*
X37059325Y-50413509D01*
X37023596Y-50403018D01*
X37012296Y-50397749D01*
X36986545Y-50385741D01*
X36986541Y-50385740D01*
X36939140Y-50379500D01*
X36712868Y-50379500D01*
X36702341Y-50380885D01*
X36665455Y-50385741D01*
X36665453Y-50385742D01*
X36665451Y-50385742D01*
X36628403Y-50403018D01*
X36559325Y-50413509D01*
X36523596Y-50403018D01*
X36512296Y-50397749D01*
X36486545Y-50385741D01*
X36486541Y-50385740D01*
X36439140Y-50379500D01*
X36212868Y-50379500D01*
X36202341Y-50380885D01*
X36165455Y-50385741D01*
X36165453Y-50385742D01*
X36165451Y-50385742D01*
X36128403Y-50403018D01*
X36059325Y-50413509D01*
X36056910Y-50413157D01*
X36039533Y-50410449D01*
X35986545Y-50385741D01*
X35939139Y-50379500D01*
X35840895Y-50379500D01*
X35831409Y-50378022D01*
X35808135Y-50367060D01*
X35783460Y-50359815D01*
X35777053Y-50352421D01*
X35768199Y-50348251D01*
X35754545Y-50326446D01*
X35737705Y-50307011D01*
X35735218Y-50295579D01*
X35731119Y-50289033D01*
X35731256Y-50277367D01*
X35726499Y-50255500D01*
X35726499Y-50166867D01*
X35726499Y-50166862D01*
X35720259Y-50119455D01*
X35715462Y-50109169D01*
X35702982Y-50082404D01*
X35692490Y-50013326D01*
X35702980Y-49977599D01*
X35720259Y-49940545D01*
X35726500Y-49893139D01*
X35726499Y-49666862D01*
X35720259Y-49619455D01*
X35712120Y-49602000D01*
X35702982Y-49582404D01*
X35692490Y-49513326D01*
X35702980Y-49477599D01*
X35720259Y-49440545D01*
X35726500Y-49393139D01*
X35726499Y-49166862D01*
X35720259Y-49119455D01*
X35706365Y-49089659D01*
X35702982Y-49082404D01*
X35692490Y-49013326D01*
X35692842Y-49010908D01*
X35695548Y-48993535D01*
X35720259Y-48940545D01*
X35726500Y-48893139D01*
X35726499Y-48794896D01*
X35727978Y-48785408D01*
X35738939Y-48762134D01*
X35746185Y-48737460D01*
X35753578Y-48731053D01*
X35757749Y-48722199D01*
X35779553Y-48708546D01*
X35798989Y-48691705D01*
X35810421Y-48689217D01*
X35816968Y-48685119D01*
X35828632Y-48685256D01*
X35850500Y-48680499D01*
X35939133Y-48680499D01*
X35939138Y-48680499D01*
X35986545Y-48674259D01*
X36023595Y-48656981D01*
X36092672Y-48646490D01*
X36108452Y-48649686D01*
X36118742Y-48652476D01*
X36165455Y-48674259D01*
X36212861Y-48680500D01*
X36222089Y-48680499D01*
X36236996Y-48684542D01*
X36256619Y-48696583D01*
X36278240Y-48704496D01*
X36292775Y-48718770D01*
X36296547Y-48721085D01*
X36297818Y-48723723D01*
X36302920Y-48728733D01*
X36335199Y-48770800D01*
X36456986Y-48864251D01*
X36598807Y-48922994D01*
X36598812Y-48922995D01*
X36675998Y-48933156D01*
X36676000Y-48933155D01*
X36676000Y-48562948D01*
X36687617Y-48510545D01*
X36713618Y-48454784D01*
X36759788Y-48402348D01*
X36826981Y-48383195D01*
X36893863Y-48403410D01*
G37*
%TD.AperFunction*%
%TA.AperFunction,Conductor*%
G36*
X48466559Y-43254910D02*
G01*
X48482203Y-43254351D01*
X48499398Y-43264552D01*
X48518579Y-43270185D01*
X48528828Y-43282013D01*
X48542293Y-43290002D01*
X48551243Y-43307881D01*
X48564334Y-43322989D01*
X48566980Y-43339318D01*
X48573569Y-43352480D01*
X48574830Y-43387752D01*
X48574500Y-43390818D01*
X48574500Y-43984190D01*
X48580748Y-44042299D01*
X48629789Y-44173780D01*
X48642201Y-44190360D01*
X48713884Y-44286116D01*
X48826222Y-44370212D01*
X48886097Y-44392544D01*
X48957700Y-44419251D01*
X49015809Y-44425499D01*
X49015826Y-44425500D01*
X49303456Y-44425500D01*
X49332896Y-44434144D01*
X49362883Y-44440668D01*
X49367898Y-44444422D01*
X49370495Y-44445185D01*
X49391137Y-44461819D01*
X49492137Y-44562819D01*
X49525622Y-44624142D01*
X49520638Y-44693834D01*
X49478766Y-44749767D01*
X49413302Y-44774184D01*
X49404456Y-44774500D01*
X49015809Y-44774500D01*
X48957700Y-44780748D01*
X48867575Y-44814364D01*
X48826222Y-44829788D01*
X48826221Y-44829788D01*
X48826220Y-44829789D01*
X48803650Y-44846685D01*
X48738185Y-44871101D01*
X48669912Y-44856249D01*
X48620507Y-44806843D01*
X48605721Y-44757134D01*
X48605175Y-44750190D01*
X48560555Y-44596606D01*
X48479145Y-44458949D01*
X48479138Y-44458940D01*
X48366059Y-44345861D01*
X48366050Y-44345854D01*
X48228391Y-44264443D01*
X48228388Y-44264441D01*
X48100001Y-44227141D01*
X48100000Y-44227142D01*
X48100000Y-46447855D01*
X48228393Y-46410555D01*
X48366050Y-46329145D01*
X48366059Y-46329138D01*
X48479138Y-46216059D01*
X48479145Y-46216050D01*
X48524000Y-46140205D01*
X48575069Y-46092522D01*
X48643811Y-46080018D01*
X48700124Y-46100561D01*
X48711971Y-46108560D01*
X48713884Y-46111116D01*
X48826222Y-46195212D01*
X48857660Y-46206937D01*
X48869892Y-46215197D01*
X48883133Y-46231199D01*
X48899765Y-46243648D01*
X48904960Y-46257575D01*
X48914436Y-46269027D01*
X48916924Y-46289649D01*
X48924184Y-46309112D01*
X48924500Y-46317962D01*
X48924500Y-48565085D01*
X48904815Y-48632124D01*
X48852011Y-48677879D01*
X48843836Y-48681266D01*
X48802222Y-48696787D01*
X48802221Y-48696788D01*
X48689884Y-48780884D01*
X48605789Y-48893219D01*
X48556748Y-49024700D01*
X48550500Y-49082809D01*
X48550500Y-49676180D01*
X48550937Y-49680240D01*
X48548157Y-49695648D01*
X48550386Y-49711147D01*
X48542082Y-49729330D01*
X48538534Y-49749000D01*
X48527865Y-49760459D01*
X48521361Y-49774703D01*
X48504545Y-49785509D01*
X48490926Y-49800139D01*
X48474969Y-49804516D01*
X48462583Y-49812477D01*
X48427648Y-49817500D01*
X48237400Y-49817500D01*
X48170361Y-49797815D01*
X48149719Y-49781181D01*
X47636819Y-49268281D01*
X47603334Y-49206958D01*
X47600500Y-49180600D01*
X47600500Y-48739369D01*
X47600500Y-48739364D01*
X47589866Y-48666375D01*
X47580145Y-48646490D01*
X47534827Y-48553789D01*
X47446213Y-48465175D01*
X47445176Y-48464668D01*
X47419800Y-48452262D01*
X47368220Y-48405136D01*
X47350305Y-48337602D01*
X47371745Y-48271104D01*
X47376826Y-48264970D01*
X47376524Y-48264739D01*
X47381465Y-48258298D01*
X47381470Y-48258294D01*
X47427614Y-48178370D01*
X47429777Y-48170299D01*
X47451500Y-48089226D01*
X47451500Y-46569865D01*
X47471185Y-46502826D01*
X47523989Y-46457071D01*
X47593147Y-46447127D01*
X47599223Y-46448439D01*
X47600000Y-46447856D01*
X47600000Y-44257399D01*
X47619685Y-44190360D01*
X47632565Y-44174376D01*
X47634819Y-44171217D01*
X47634826Y-44171211D01*
X47689866Y-44058625D01*
X47700500Y-43985636D01*
X47700500Y-43509044D01*
X47720185Y-43442005D01*
X47736819Y-43421363D01*
X47871363Y-43286819D01*
X47932686Y-43253334D01*
X47959044Y-43250500D01*
X48451540Y-43250500D01*
X48466559Y-43254910D01*
G37*
%TD.AperFunction*%
%TA.AperFunction,Conductor*%
G36*
X51725311Y-46027953D02*
G01*
X51758795Y-46089276D01*
X51761629Y-46115582D01*
X51762678Y-48624860D01*
X51743021Y-48691908D01*
X51690237Y-48737685D01*
X51621082Y-48747657D01*
X51564366Y-48724178D01*
X51563758Y-48723723D01*
X51538075Y-48704496D01*
X51527780Y-48696789D01*
X51527778Y-48696788D01*
X51501144Y-48686854D01*
X51396299Y-48647748D01*
X51338190Y-48641500D01*
X51338174Y-48641500D01*
X50769826Y-48641500D01*
X50769809Y-48641500D01*
X50711700Y-48647748D01*
X50580219Y-48696789D01*
X50467884Y-48780884D01*
X50383789Y-48893219D01*
X50334748Y-49024700D01*
X50328500Y-49082809D01*
X50328500Y-49560100D01*
X50319855Y-49589540D01*
X50313332Y-49619527D01*
X50309577Y-49624542D01*
X50308815Y-49627139D01*
X50292181Y-49647781D01*
X50213181Y-49726781D01*
X50151858Y-49760266D01*
X50082166Y-49755282D01*
X50026233Y-49713410D01*
X50001816Y-49647946D01*
X50001500Y-49639100D01*
X50001500Y-49082826D01*
X50001499Y-49082809D01*
X49995251Y-49024700D01*
X49972747Y-48964366D01*
X49946212Y-48893222D01*
X49862116Y-48780884D01*
X49749778Y-48696788D01*
X49741996Y-48692539D01*
X49743536Y-48689717D01*
X49700228Y-48657293D01*
X49675815Y-48591828D01*
X49675500Y-48582989D01*
X49675500Y-46724500D01*
X49695185Y-46657461D01*
X49747989Y-46611706D01*
X49799500Y-46600500D01*
X49909960Y-46600500D01*
X50016278Y-46579351D01*
X50035633Y-46575501D01*
X50154016Y-46526465D01*
X50260558Y-46455276D01*
X50351165Y-46364669D01*
X50402269Y-46288186D01*
X50455878Y-46243382D01*
X50525203Y-46234673D01*
X50548706Y-46240896D01*
X50557700Y-46244251D01*
X50615809Y-46250499D01*
X50615826Y-46250500D01*
X51184174Y-46250500D01*
X51184190Y-46250499D01*
X51242299Y-46244251D01*
X51264174Y-46236092D01*
X51373778Y-46195212D01*
X51486116Y-46111116D01*
X51538364Y-46041321D01*
X51594296Y-45999452D01*
X51663987Y-45994468D01*
X51725311Y-46027953D01*
G37*
%TD.AperFunction*%
%TA.AperFunction,Conductor*%
G36*
X26242463Y-43864185D02*
G01*
X26288218Y-43916989D01*
X26298162Y-43986147D01*
X26274690Y-44042811D01*
X26191290Y-44154217D01*
X26142248Y-44285700D01*
X26136000Y-44343809D01*
X26136000Y-44912190D01*
X26142248Y-44970299D01*
X26191289Y-45101780D01*
X26215322Y-45133884D01*
X26275384Y-45214116D01*
X26387722Y-45298212D01*
X26424203Y-45311818D01*
X26480134Y-45353688D01*
X26504552Y-45419152D01*
X26489701Y-45487425D01*
X26440296Y-45536831D01*
X26424205Y-45544179D01*
X26387722Y-45557787D01*
X26275384Y-45641884D01*
X26191289Y-45754219D01*
X26142248Y-45885700D01*
X26136000Y-45943809D01*
X26136000Y-46512190D01*
X26142248Y-46570299D01*
X26191289Y-46701780D01*
X26219739Y-46739784D01*
X26275384Y-46814116D01*
X26387722Y-46898212D01*
X26424203Y-46911818D01*
X26480134Y-46953688D01*
X26504552Y-47019152D01*
X26489701Y-47087425D01*
X26440296Y-47136831D01*
X26424205Y-47144179D01*
X26387722Y-47157787D01*
X26318082Y-47209920D01*
X26275384Y-47241884D01*
X26275383Y-47241885D01*
X26275382Y-47241886D01*
X26211807Y-47326811D01*
X26208151Y-47329547D01*
X26206254Y-47333703D01*
X26180436Y-47350295D01*
X26155874Y-47368682D01*
X26150244Y-47369697D01*
X26147476Y-47371477D01*
X26112541Y-47376500D01*
X26062500Y-47376500D01*
X25995461Y-47356815D01*
X25949706Y-47304011D01*
X25938500Y-47252501D01*
X25938499Y-47124895D01*
X25935525Y-47102307D01*
X25932019Y-47075670D01*
X25881644Y-46967641D01*
X25797359Y-46883356D01*
X25689330Y-46832981D01*
X25689328Y-46832980D01*
X25640113Y-46826501D01*
X25640108Y-46826500D01*
X25640103Y-46826500D01*
X25640096Y-46826500D01*
X25060895Y-46826500D01*
X25011674Y-46832980D01*
X25011666Y-46832982D01*
X24903641Y-46883355D01*
X24893077Y-46893920D01*
X24831753Y-46927403D01*
X24762061Y-46922417D01*
X24706129Y-46880544D01*
X24698012Y-46868238D01*
X24695668Y-46864178D01*
X24600215Y-46739784D01*
X24475821Y-46644331D01*
X24475818Y-46644329D01*
X24330960Y-46584328D01*
X24330955Y-46584326D01*
X24214536Y-46569000D01*
X24100500Y-46569000D01*
X24100500Y-47128000D01*
X24097949Y-47136685D01*
X24099238Y-47145647D01*
X24088259Y-47169687D01*
X24080815Y-47195039D01*
X24073974Y-47200966D01*
X24070213Y-47209203D01*
X24047978Y-47223492D01*
X24028011Y-47240794D01*
X24017496Y-47243081D01*
X24011435Y-47246977D01*
X23976500Y-47252000D01*
X23874500Y-47252000D01*
X23807461Y-47232315D01*
X23761706Y-47179511D01*
X23750500Y-47128000D01*
X23750500Y-46569000D01*
X23636462Y-46569000D01*
X23520051Y-46584324D01*
X23520039Y-46584328D01*
X23375181Y-46644329D01*
X23375178Y-46644331D01*
X23250783Y-46739784D01*
X23166235Y-46849968D01*
X23109807Y-46891171D01*
X23040061Y-46895325D01*
X22993549Y-46873747D01*
X22907334Y-46809206D01*
X22907327Y-46809202D01*
X22772481Y-46758908D01*
X22772482Y-46758908D01*
X22712882Y-46752501D01*
X22712880Y-46752500D01*
X22712872Y-46752500D01*
X20467128Y-46752500D01*
X20467120Y-46752500D01*
X20467117Y-46752501D01*
X20407518Y-46758908D01*
X20272672Y-46809202D01*
X20272670Y-46809204D01*
X20157454Y-46895454D01*
X20071204Y-47010670D01*
X20071202Y-47010672D01*
X20020908Y-47145518D01*
X20014501Y-47205117D01*
X20014500Y-47205136D01*
X20014500Y-48161999D01*
X19994815Y-48229038D01*
X19942011Y-48274793D01*
X19872853Y-48284737D01*
X19816100Y-48261199D01*
X19586801Y-48089225D01*
X19236362Y-47826396D01*
X19228849Y-47820972D01*
X19227139Y-47819784D01*
X19221495Y-47815862D01*
X19221488Y-47815858D01*
X19147698Y-47780538D01*
X19147693Y-47780536D01*
X19147691Y-47780535D01*
X19080652Y-47760850D01*
X19080650Y-47760849D01*
X19080648Y-47760849D01*
X19080645Y-47760848D01*
X19008668Y-47750500D01*
X19008667Y-47750500D01*
X18209320Y-47750500D01*
X18142281Y-47730815D01*
X18096526Y-47678011D01*
X18086582Y-47608853D01*
X18115607Y-47545297D01*
X18140429Y-47523398D01*
X18146708Y-47519201D01*
X18155782Y-47513139D01*
X18295139Y-47373782D01*
X18404632Y-47209914D01*
X18409666Y-47197762D01*
X18438562Y-47128000D01*
X18480051Y-47027835D01*
X18496080Y-46947251D01*
X18518500Y-46834543D01*
X18518500Y-46637456D01*
X18480052Y-46444170D01*
X18480051Y-46444169D01*
X18480051Y-46444165D01*
X18477774Y-46438668D01*
X18404635Y-46262092D01*
X18404628Y-46262079D01*
X18344700Y-46172391D01*
X18323822Y-46105714D01*
X18342306Y-46038333D01*
X18394285Y-45991643D01*
X18447802Y-45979500D01*
X21211990Y-45979500D01*
X21212000Y-45979500D01*
X21321157Y-45967764D01*
X21372668Y-45956558D01*
X21419580Y-45940944D01*
X21476820Y-45921893D01*
X21476824Y-45921890D01*
X21476827Y-45921890D01*
X21599782Y-45842871D01*
X21652586Y-45797116D01*
X21696623Y-45746295D01*
X21755400Y-45708523D01*
X21790334Y-45703500D01*
X22712863Y-45703500D01*
X22712872Y-45703500D01*
X22772482Y-45697091D01*
X22907330Y-45646796D01*
X23022546Y-45560546D01*
X23108796Y-45445330D01*
X23159091Y-45310482D01*
X23165500Y-45250872D01*
X23165500Y-44230128D01*
X23159091Y-44170518D01*
X23108796Y-44035670D01*
X23108795Y-44035668D01*
X23104570Y-44027930D01*
X23089716Y-43959658D01*
X23114131Y-43894193D01*
X23170063Y-43852320D01*
X23213400Y-43844500D01*
X26175424Y-43844500D01*
X26242463Y-43864185D01*
G37*
%TD.AperFunction*%
%TA.AperFunction,Conductor*%
G36*
X34611580Y-43804185D02*
G01*
X34657335Y-43856989D01*
X34667279Y-43926147D01*
X34650078Y-43973599D01*
X34642251Y-43986286D01*
X34642247Y-43986295D01*
X34587431Y-44151719D01*
X34577000Y-44253816D01*
X34577000Y-44349500D01*
X38321000Y-44349500D01*
X38321000Y-44253829D01*
X38320999Y-44253816D01*
X38310568Y-44151719D01*
X38255752Y-43986295D01*
X38255748Y-43986286D01*
X38247922Y-43973599D01*
X38229480Y-43906207D01*
X38250401Y-43839543D01*
X38304042Y-43794772D01*
X38353459Y-43784500D01*
X39280774Y-43784500D01*
X39347813Y-43804185D01*
X39393568Y-43856989D01*
X39403512Y-43926147D01*
X39395335Y-43955952D01*
X39374500Y-44006251D01*
X39374497Y-44006261D01*
X39349500Y-44131928D01*
X39349500Y-44173223D01*
X39329815Y-44240262D01*
X39277011Y-44286017D01*
X39225500Y-44297223D01*
X39135929Y-44297223D01*
X39010261Y-44322220D01*
X39010255Y-44322222D01*
X38891875Y-44371256D01*
X38891866Y-44371261D01*
X38785331Y-44442446D01*
X38785327Y-44442449D01*
X38694726Y-44533050D01*
X38694723Y-44533054D01*
X38623538Y-44639589D01*
X38623533Y-44639598D01*
X38574499Y-44757978D01*
X38574498Y-44757981D01*
X38561186Y-44824901D01*
X38528800Y-44886811D01*
X38468083Y-44921384D01*
X38398314Y-44917643D01*
X38351888Y-44888388D01*
X38321000Y-44857500D01*
X34577000Y-44857500D01*
X34562168Y-44872331D01*
X34557315Y-44888861D01*
X34504511Y-44934616D01*
X34435353Y-44944560D01*
X34371797Y-44915535D01*
X34365319Y-44909503D01*
X33451997Y-43996181D01*
X33418512Y-43934858D01*
X33423496Y-43865166D01*
X33465368Y-43809233D01*
X33530832Y-43784816D01*
X33539678Y-43784500D01*
X34544541Y-43784500D01*
X34611580Y-43804185D01*
G37*
%TD.AperFunction*%
%TA.AperFunction,Conductor*%
G36*
X41953253Y-34595280D02*
G01*
X41961554Y-34595429D01*
X41993388Y-34610659D01*
X42091873Y-34676465D01*
X42210256Y-34725501D01*
X42210260Y-34725501D01*
X42210261Y-34725502D01*
X42335924Y-34750499D01*
X42335927Y-34750499D01*
X42335931Y-34750500D01*
X42335934Y-34750500D01*
X42337641Y-34750668D01*
X42338484Y-34751008D01*
X42341906Y-34751689D01*
X42341776Y-34752337D01*
X42402431Y-34776822D01*
X42442796Y-34833852D01*
X42449500Y-34874072D01*
X42449500Y-35524678D01*
X42464032Y-35597735D01*
X42464033Y-35597739D01*
X42519739Y-35681110D01*
X42540616Y-35747788D01*
X42522131Y-35815168D01*
X42519739Y-35818890D01*
X42464033Y-35902260D01*
X42464032Y-35902264D01*
X42449500Y-35975321D01*
X42449500Y-36590881D01*
X42429815Y-36657920D01*
X42399811Y-36690148D01*
X42337096Y-36737096D01*
X42249554Y-36854038D01*
X42249553Y-36854038D01*
X42198506Y-36990902D01*
X42192000Y-37051418D01*
X42192000Y-37146000D01*
X44808000Y-37146000D01*
X44808000Y-37051420D01*
X44807999Y-37051418D01*
X44801493Y-36990902D01*
X44750446Y-36854038D01*
X44662903Y-36737096D01*
X44600189Y-36690148D01*
X44597451Y-36686491D01*
X44593297Y-36684594D01*
X44576706Y-36658779D01*
X44558318Y-36634214D01*
X44557302Y-36628584D01*
X44555523Y-36625816D01*
X44550500Y-36590881D01*
X44550500Y-36345544D01*
X44570185Y-36278505D01*
X44622989Y-36232750D01*
X44692147Y-36222806D01*
X44755703Y-36251831D01*
X44762181Y-36257863D01*
X45113181Y-36608863D01*
X45146666Y-36670186D01*
X45149500Y-36696544D01*
X45149500Y-39062843D01*
X45169092Y-39135964D01*
X45173385Y-39151985D01*
X45173387Y-39151990D01*
X45195253Y-39189863D01*
X45219530Y-39231912D01*
X45372231Y-39384612D01*
X45437488Y-39449869D01*
X45439396Y-39450970D01*
X45446552Y-39458041D01*
X45459871Y-39482089D01*
X45476088Y-39504297D01*
X45477886Y-39514614D01*
X45480405Y-39519162D01*
X45479933Y-39526360D01*
X45483400Y-39546248D01*
X45483400Y-39754600D01*
X46071000Y-39754600D01*
X46138039Y-39774285D01*
X46183794Y-39827089D01*
X46195000Y-39878600D01*
X46195000Y-39958200D01*
X46274600Y-39958200D01*
X46341639Y-39977885D01*
X46387394Y-40030689D01*
X46398600Y-40082200D01*
X46398600Y-40921000D01*
X46447180Y-40921000D01*
X46447181Y-40920999D01*
X46507697Y-40914493D01*
X46644561Y-40863446D01*
X46644561Y-40863445D01*
X46761503Y-40775903D01*
X46849045Y-40658961D01*
X46849046Y-40658961D01*
X46863039Y-40621443D01*
X46904910Y-40565508D01*
X46970373Y-40541090D01*
X47038647Y-40555941D01*
X47071314Y-40585813D01*
X47072163Y-40584965D01*
X47080796Y-40593598D01*
X47080797Y-40593599D01*
X47080799Y-40593601D01*
X47125535Y-40623492D01*
X47163660Y-40648966D01*
X47163664Y-40648967D01*
X47236721Y-40663499D01*
X47236724Y-40663500D01*
X47236726Y-40663500D01*
X47693276Y-40663500D01*
X47693277Y-40663499D01*
X47766340Y-40648966D01*
X47849201Y-40593601D01*
X47904566Y-40510740D01*
X47919100Y-40437674D01*
X47919100Y-39937344D01*
X47925338Y-39916098D01*
X47926918Y-39894010D01*
X47934990Y-39883226D01*
X47938785Y-39870305D01*
X47955518Y-39855805D01*
X47968790Y-39838077D01*
X47981410Y-39833369D01*
X47991589Y-39824550D01*
X48013506Y-39821398D01*
X48034254Y-39813660D01*
X48047414Y-39816522D01*
X48060747Y-39814606D01*
X48080890Y-39823805D01*
X48102527Y-39828512D01*
X48120252Y-39841780D01*
X48124303Y-39843631D01*
X48130781Y-39849663D01*
X48244581Y-39963463D01*
X48278066Y-40024786D01*
X48280900Y-40051144D01*
X48280900Y-40437678D01*
X48295432Y-40510735D01*
X48295433Y-40510739D01*
X48295434Y-40510740D01*
X48350799Y-40593601D01*
X48395535Y-40623492D01*
X48433660Y-40648966D01*
X48433664Y-40648967D01*
X48506721Y-40663499D01*
X48506724Y-40663500D01*
X48506726Y-40663500D01*
X48857901Y-40663500D01*
X48887341Y-40672144D01*
X48917328Y-40678668D01*
X48922343Y-40682422D01*
X48924940Y-40683185D01*
X48945582Y-40699819D01*
X48988181Y-40742418D01*
X49021666Y-40803741D01*
X49024500Y-40830099D01*
X49024500Y-40843192D01*
X49017023Y-40868652D01*
X49016682Y-40873433D01*
X49014934Y-40875766D01*
X49004815Y-40910231D01*
X48988181Y-40930873D01*
X48894726Y-41024327D01*
X48894723Y-41024331D01*
X48823538Y-41130866D01*
X48823533Y-41130875D01*
X48774499Y-41249255D01*
X48774497Y-41249261D01*
X48749500Y-41374928D01*
X48749500Y-41426025D01*
X48729815Y-41493064D01*
X48677011Y-41538819D01*
X48642849Y-41548029D01*
X48642906Y-41548311D01*
X48638708Y-41549146D01*
X48637666Y-41549427D01*
X48636931Y-41549499D01*
X48511261Y-41574497D01*
X48511255Y-41574499D01*
X48392875Y-41623533D01*
X48392866Y-41623538D01*
X48286331Y-41694723D01*
X48286327Y-41694726D01*
X48285193Y-41695861D01*
X48284452Y-41696265D01*
X48281621Y-41698589D01*
X48281180Y-41698052D01*
X48223870Y-41729346D01*
X48154178Y-41724362D01*
X48117286Y-41700652D01*
X48116466Y-41701652D01*
X48111755Y-41697786D01*
X48005220Y-41626601D01*
X48005211Y-41626596D01*
X47886831Y-41577562D01*
X47886825Y-41577560D01*
X47761158Y-41552563D01*
X47761156Y-41552563D01*
X47633018Y-41552563D01*
X47633016Y-41552563D01*
X47507348Y-41577560D01*
X47507342Y-41577562D01*
X47388962Y-41626596D01*
X47388953Y-41626601D01*
X47282418Y-41697786D01*
X47282414Y-41697789D01*
X47191813Y-41788390D01*
X47191810Y-41788394D01*
X47120625Y-41894929D01*
X47120620Y-41894938D01*
X47071586Y-42013318D01*
X47071584Y-42013324D01*
X47046587Y-42138991D01*
X47046587Y-42138994D01*
X47046587Y-42267132D01*
X47046587Y-42267134D01*
X47046586Y-42267134D01*
X47071584Y-42392801D01*
X47071586Y-42392807D01*
X47088937Y-42434697D01*
X47089527Y-42436120D01*
X47096996Y-42505590D01*
X47065721Y-42568069D01*
X47005632Y-42603721D01*
X46992844Y-42606277D01*
X46966375Y-42610133D01*
X46966372Y-42610134D01*
X46853789Y-42665172D01*
X46765172Y-42753789D01*
X46710135Y-42866371D01*
X46710134Y-42866373D01*
X46710134Y-42866375D01*
X46699500Y-42939364D01*
X46699500Y-42939369D01*
X46699500Y-43925500D01*
X46679815Y-43992539D01*
X46627011Y-44038294D01*
X46575500Y-44049500D01*
X43496543Y-44049500D01*
X43429504Y-44029815D01*
X43408862Y-44013181D01*
X42804819Y-43409137D01*
X42771334Y-43347814D01*
X42768500Y-43321456D01*
X42768500Y-40461581D01*
X45483400Y-40461581D01*
X45489906Y-40522097D01*
X45540953Y-40658961D01*
X45628496Y-40775903D01*
X45745438Y-40863445D01*
X45745438Y-40863446D01*
X45882302Y-40914493D01*
X45942818Y-40920999D01*
X45942820Y-40921000D01*
X45991400Y-40921000D01*
X45991400Y-40161800D01*
X45483400Y-40161800D01*
X45483400Y-40461581D01*
X42768500Y-40461581D01*
X42768500Y-40125571D01*
X42768500Y-40085856D01*
X42744614Y-39996712D01*
X42739276Y-39987467D01*
X42730516Y-39972294D01*
X42730516Y-39972293D01*
X42698474Y-39916794D01*
X42698468Y-39916786D01*
X41701213Y-38919531D01*
X41701208Y-38919527D01*
X41621290Y-38873387D01*
X41621289Y-38873386D01*
X41621288Y-38873386D01*
X41532144Y-38849500D01*
X41532143Y-38849500D01*
X40424500Y-38849500D01*
X40357461Y-38829815D01*
X40311706Y-38777011D01*
X40300500Y-38725500D01*
X40300500Y-38024500D01*
X40320185Y-37957461D01*
X40372989Y-37911706D01*
X40424500Y-37900500D01*
X41574676Y-37900500D01*
X41574677Y-37900499D01*
X41647740Y-37885966D01*
X41730601Y-37830601D01*
X41785404Y-37748581D01*
X42192000Y-37748581D01*
X42198506Y-37809097D01*
X42249553Y-37945961D01*
X42337096Y-38062903D01*
X42454038Y-38150445D01*
X42454038Y-38150446D01*
X42590902Y-38201493D01*
X42651418Y-38207999D01*
X42651420Y-38208000D01*
X43246000Y-38208000D01*
X43754000Y-38208000D01*
X44348580Y-38208000D01*
X44348581Y-38207999D01*
X44409097Y-38201493D01*
X44545961Y-38150446D01*
X44545961Y-38150445D01*
X44662903Y-38062903D01*
X44750445Y-37945961D01*
X44750446Y-37945961D01*
X44801493Y-37809097D01*
X44807999Y-37748581D01*
X44808000Y-37748580D01*
X44808000Y-37654000D01*
X43754000Y-37654000D01*
X43754000Y-38208000D01*
X43246000Y-38208000D01*
X43246000Y-37654000D01*
X42192000Y-37654000D01*
X42192000Y-37748581D01*
X41785404Y-37748581D01*
X41785966Y-37747740D01*
X41800500Y-37674674D01*
X41800500Y-36725326D01*
X41800500Y-36725323D01*
X41800499Y-36725321D01*
X41785967Y-36652264D01*
X41785966Y-36652262D01*
X41785966Y-36652260D01*
X41785964Y-36652258D01*
X41785964Y-36652256D01*
X41730261Y-36568890D01*
X41709383Y-36502213D01*
X41727868Y-36434833D01*
X41730261Y-36431110D01*
X41785964Y-36347743D01*
X41785964Y-36347742D01*
X41785966Y-36347740D01*
X41800500Y-36274674D01*
X41800500Y-35325326D01*
X41800500Y-35325323D01*
X41800499Y-35325321D01*
X41785967Y-35252264D01*
X41785966Y-35252262D01*
X41785966Y-35252260D01*
X41785964Y-35252258D01*
X41785964Y-35252256D01*
X41730261Y-35168890D01*
X41709383Y-35102213D01*
X41727868Y-35034833D01*
X41730261Y-35031110D01*
X41785964Y-34947743D01*
X41785964Y-34947742D01*
X41785966Y-34947740D01*
X41800500Y-34874674D01*
X41800500Y-34713763D01*
X41803363Y-34704011D01*
X41802097Y-34693927D01*
X41813041Y-34671051D01*
X41820185Y-34646724D01*
X41827865Y-34640069D01*
X41832252Y-34630900D01*
X41853828Y-34617572D01*
X41872989Y-34600969D01*
X41883047Y-34599522D01*
X41891695Y-34594181D01*
X41917047Y-34594633D01*
X41942147Y-34591025D01*
X41953253Y-34595280D01*
G37*
%TD.AperFunction*%
%TA.AperFunction,Conductor*%
G36*
X24835703Y-40805216D02*
G01*
X24842178Y-40811245D01*
X26563953Y-42533021D01*
X26597437Y-42594342D01*
X26600271Y-42620700D01*
X26600271Y-42624732D01*
X26600271Y-42752870D01*
X26600271Y-42752872D01*
X26600270Y-42752872D01*
X26625268Y-42878539D01*
X26625271Y-42878549D01*
X26643289Y-42922048D01*
X26650758Y-42991517D01*
X26619482Y-43053996D01*
X26559393Y-43089648D01*
X26528728Y-43093500D01*
X23669990Y-43093500D01*
X23602951Y-43073815D01*
X23557196Y-43021011D01*
X23546632Y-42956896D01*
X23547999Y-42943512D01*
X23548000Y-42943502D01*
X23548000Y-42672000D01*
X22664000Y-42672000D01*
X22596961Y-42652315D01*
X22551206Y-42599511D01*
X22540000Y-42548000D01*
X22540000Y-42288000D01*
X22559685Y-42220961D01*
X22612489Y-42175206D01*
X22664000Y-42164000D01*
X23548000Y-42164000D01*
X23560550Y-42151450D01*
X23621873Y-42117965D01*
X23691565Y-42122949D01*
X23735912Y-42151450D01*
X23783789Y-42199327D01*
X23891572Y-42252018D01*
X23896375Y-42254366D01*
X23969364Y-42265000D01*
X23969370Y-42265000D01*
X24290630Y-42265000D01*
X24290636Y-42265000D01*
X24363625Y-42254366D01*
X24431956Y-42220961D01*
X24476210Y-42199327D01*
X24564827Y-42110710D01*
X24591759Y-42055618D01*
X24619866Y-41998125D01*
X24630500Y-41925136D01*
X24630500Y-40898929D01*
X24650185Y-40831890D01*
X24702989Y-40786135D01*
X24772147Y-40776191D01*
X24835703Y-40805216D01*
G37*
%TD.AperFunction*%
%TA.AperFunction,Conductor*%
G36*
X36547039Y-40869685D02*
G01*
X36592794Y-40922489D01*
X36604000Y-40974000D01*
X36604000Y-42158000D01*
X36698580Y-42158000D01*
X36698581Y-42157999D01*
X36759097Y-42151493D01*
X36895961Y-42100446D01*
X36895961Y-42100445D01*
X37012905Y-42012902D01*
X37059851Y-41950190D01*
X37115784Y-41908318D01*
X37159118Y-41900500D01*
X37774676Y-41900500D01*
X37774677Y-41900499D01*
X37847740Y-41885966D01*
X37930601Y-41830601D01*
X37930600Y-41830601D01*
X37931110Y-41830261D01*
X37997787Y-41809383D01*
X38065167Y-41827868D01*
X38068890Y-41830261D01*
X38152256Y-41885964D01*
X38152258Y-41885964D01*
X38152260Y-41885966D01*
X38152262Y-41885966D01*
X38152264Y-41885967D01*
X38225321Y-41900499D01*
X38225324Y-41900500D01*
X38225326Y-41900500D01*
X38874675Y-41900500D01*
X38890514Y-41897349D01*
X38945426Y-41886426D01*
X39015016Y-41892652D01*
X39070194Y-41935515D01*
X39093439Y-42001404D01*
X39077372Y-42069401D01*
X39038509Y-42111144D01*
X38955333Y-42166721D01*
X38955327Y-42166726D01*
X38864726Y-42257327D01*
X38864723Y-42257331D01*
X38793538Y-42363866D01*
X38793534Y-42363873D01*
X38789362Y-42373948D01*
X38745521Y-42428352D01*
X38679227Y-42450418D01*
X38674800Y-42450497D01*
X36050234Y-42450497D01*
X36029291Y-42444347D01*
X36007512Y-42442905D01*
X35996426Y-42434697D01*
X35983195Y-42430812D01*
X35968902Y-42414317D01*
X35951359Y-42401328D01*
X35946470Y-42388430D01*
X35937440Y-42378008D01*
X35934333Y-42356404D01*
X35926598Y-42335993D01*
X35928672Y-42317030D01*
X35927496Y-42308850D01*
X35928931Y-42300776D01*
X35930595Y-42292928D01*
X35931501Y-42290741D01*
X35938206Y-42257033D01*
X35938366Y-42256279D01*
X35954606Y-42226161D01*
X35970437Y-42195898D01*
X35971142Y-42195496D01*
X35971528Y-42194781D01*
X36001467Y-42178227D01*
X36031152Y-42161324D01*
X36032278Y-42161192D01*
X36032674Y-42160974D01*
X36033618Y-42161036D01*
X36059669Y-42158000D01*
X36096000Y-42158000D01*
X36096000Y-40974000D01*
X36115685Y-40906961D01*
X36168489Y-40861206D01*
X36220000Y-40850000D01*
X36480000Y-40850000D01*
X36547039Y-40869685D01*
G37*
%TD.AperFunction*%
%TA.AperFunction,Conductor*%
G36*
X48061516Y-34141144D02*
G01*
X48113578Y-34151500D01*
X48163200Y-34151500D01*
X48169464Y-34152138D01*
X48196221Y-34163046D01*
X48223939Y-34171185D01*
X48228173Y-34176071D01*
X48234164Y-34178514D01*
X48250777Y-34202158D01*
X48269694Y-34223989D01*
X48270614Y-34230389D01*
X48274333Y-34235682D01*
X48280900Y-34275500D01*
X48280900Y-34752878D01*
X48295432Y-34825935D01*
X48295433Y-34825939D01*
X48307497Y-34843994D01*
X48327996Y-34874674D01*
X48333103Y-34882316D01*
X48353980Y-34948993D01*
X48354000Y-34951206D01*
X48354000Y-36991800D01*
X48334315Y-37058839D01*
X48281511Y-37104594D01*
X48230000Y-37115800D01*
X47970000Y-37115800D01*
X47902961Y-37096115D01*
X47857206Y-37043311D01*
X47846000Y-36991800D01*
X47846000Y-34951206D01*
X47865685Y-34884167D01*
X47866897Y-34882316D01*
X47904566Y-34825940D01*
X47919100Y-34752874D01*
X47919100Y-34263910D01*
X47923414Y-34249217D01*
X47922782Y-34233918D01*
X47933057Y-34216375D01*
X47938785Y-34196871D01*
X47950356Y-34186844D01*
X47958097Y-34173630D01*
X47976226Y-34164427D01*
X47991589Y-34151116D01*
X48006745Y-34148936D01*
X48020400Y-34142006D01*
X48055664Y-34140548D01*
X48061516Y-34141144D01*
G37*
%TD.AperFunction*%
%TA.AperFunction,Conductor*%
G36*
X51718794Y-30445050D02*
G01*
X51752280Y-30506373D01*
X51755114Y-30532680D01*
X51755322Y-31030023D01*
X51735665Y-31097071D01*
X51682881Y-31142848D01*
X51613726Y-31152820D01*
X51566225Y-31135613D01*
X51479715Y-31082252D01*
X51479704Y-31082247D01*
X51314280Y-31027431D01*
X51212183Y-31017000D01*
X51129000Y-31017000D01*
X51129000Y-31876000D01*
X51109315Y-31943039D01*
X51056511Y-31988794D01*
X51005000Y-32000000D01*
X50745000Y-32000000D01*
X50677961Y-31980315D01*
X50632206Y-31927511D01*
X50621000Y-31876000D01*
X50621000Y-31017000D01*
X50588399Y-31017000D01*
X50567153Y-31010761D01*
X50545065Y-31009182D01*
X50534281Y-31001109D01*
X50521360Y-30997315D01*
X50506860Y-30980581D01*
X50489132Y-30967310D01*
X50484424Y-30954689D01*
X50475605Y-30944511D01*
X50472453Y-30922593D01*
X50464715Y-30901846D01*
X50467577Y-30888685D01*
X50465661Y-30875353D01*
X50474860Y-30855209D01*
X50479567Y-30833573D01*
X50492835Y-30815847D01*
X50494686Y-30811797D01*
X50500718Y-30805319D01*
X50644218Y-30661819D01*
X50705541Y-30628334D01*
X50731899Y-30625500D01*
X51209174Y-30625500D01*
X51209190Y-30625499D01*
X51267299Y-30619251D01*
X51270656Y-30617999D01*
X51398778Y-30570212D01*
X51511116Y-30486116D01*
X51531849Y-30458419D01*
X51587779Y-30416551D01*
X51657471Y-30411566D01*
X51718794Y-30445050D01*
G37*
%TD.AperFunction*%
%TA.AperFunction,Conductor*%
G36*
X31893039Y-24915685D02*
G01*
X31938794Y-24968489D01*
X31950000Y-25020000D01*
X31950000Y-25280000D01*
X31930315Y-25347039D01*
X31877511Y-25392794D01*
X31826000Y-25404000D01*
X30974000Y-25404000D01*
X30906961Y-25384315D01*
X30861206Y-25331511D01*
X30850000Y-25280000D01*
X30850000Y-25020000D01*
X30869685Y-24952961D01*
X30922489Y-24907206D01*
X30974000Y-24896000D01*
X31826000Y-24896000D01*
X31893039Y-24915685D01*
G37*
%TD.AperFunction*%
%TA.AperFunction,Conductor*%
G36*
X40318643Y-21220185D02*
G01*
X40364398Y-21272989D01*
X40374342Y-21342147D01*
X40370210Y-21358332D01*
X40370290Y-21358351D01*
X40368506Y-21365900D01*
X40362000Y-21426418D01*
X40362000Y-21546000D01*
X41526000Y-21546000D01*
X41593039Y-21565685D01*
X41638794Y-21618489D01*
X41650000Y-21670000D01*
X41650000Y-21930000D01*
X41630315Y-21997039D01*
X41577511Y-22042794D01*
X41526000Y-22054000D01*
X40362000Y-22054000D01*
X40362000Y-22087776D01*
X40342315Y-22154815D01*
X40289511Y-22200570D01*
X40220353Y-22210514D01*
X40213809Y-22209393D01*
X40164073Y-22199500D01*
X40164069Y-22199500D01*
X40035931Y-22199500D01*
X40035929Y-22199500D01*
X39910261Y-22224497D01*
X39910255Y-22224499D01*
X39791875Y-22273533D01*
X39791866Y-22273538D01*
X39685331Y-22344723D01*
X39685327Y-22344726D01*
X39594726Y-22435327D01*
X39594723Y-22435331D01*
X39523538Y-22541866D01*
X39523533Y-22541875D01*
X39474499Y-22660255D01*
X39474497Y-22660261D01*
X39449500Y-22785928D01*
X39449500Y-22785931D01*
X39449500Y-22914069D01*
X39449500Y-22914071D01*
X39449499Y-22914071D01*
X39475687Y-23045718D01*
X39474484Y-23045957D01*
X39475050Y-23109373D01*
X39437802Y-23168486D01*
X39374508Y-23198077D01*
X39355766Y-23199501D01*
X39124104Y-23199501D01*
X38997812Y-23233340D01*
X38996875Y-23233582D01*
X38996809Y-23233609D01*
X38882686Y-23299498D01*
X38882680Y-23299503D01*
X38149502Y-24032681D01*
X38149495Y-24032690D01*
X38097798Y-24122231D01*
X38088316Y-24131271D01*
X38082661Y-24143092D01*
X38063515Y-24154918D01*
X38047231Y-24170446D01*
X38034366Y-24172925D01*
X38023218Y-24179812D01*
X38000715Y-24179410D01*
X37978623Y-24183668D01*
X37964871Y-24178770D01*
X37953359Y-24178565D01*
X37921521Y-24163332D01*
X37855609Y-24119291D01*
X37810804Y-24065679D01*
X37800500Y-24016189D01*
X37800500Y-23932546D01*
X37820185Y-23865507D01*
X37836819Y-23844865D01*
X38356184Y-23325500D01*
X38880470Y-22801214D01*
X38926614Y-22721290D01*
X38942968Y-22660256D01*
X38950500Y-22632146D01*
X38950500Y-21946544D01*
X38970185Y-21879505D01*
X38986819Y-21858863D01*
X39608863Y-21236819D01*
X39670186Y-21203334D01*
X39696544Y-21200500D01*
X40251604Y-21200500D01*
X40318643Y-21220185D01*
G37*
%TD.AperFunction*%
%TA.AperFunction,Conductor*%
G36*
X21279039Y-41675685D02*
G01*
X21324794Y-41728489D01*
X21336000Y-41780000D01*
X21336000Y-45342000D01*
X21316315Y-45409039D01*
X21263511Y-45454794D01*
X21212000Y-45466000D01*
X15872000Y-45466000D01*
X15804961Y-45446315D01*
X15759206Y-45393511D01*
X15748000Y-45342000D01*
X15748000Y-44296498D01*
X15767685Y-44229459D01*
X15820489Y-44183704D01*
X15889647Y-44173760D01*
X15910307Y-44178564D01*
X15991342Y-44204894D01*
X16033019Y-44211495D01*
X16241403Y-44244500D01*
X16241408Y-44244500D01*
X17794597Y-44244500D01*
X17905108Y-44226996D01*
X18044658Y-44204894D01*
X18285450Y-44126656D01*
X18511038Y-44011713D01*
X18574394Y-43965681D01*
X18640201Y-43942202D01*
X18647280Y-43942000D01*
X19812000Y-43942000D01*
X19812000Y-41780000D01*
X19831685Y-41712961D01*
X19884489Y-41667206D01*
X19936000Y-41656000D01*
X21212000Y-41656000D01*
X21279039Y-41675685D01*
G37*
%TD.AperFunction*%
%TA.AperFunction,Conductor*%
G36*
X25085194Y-26013400D02*
G01*
X25152035Y-26033745D01*
X25182755Y-26062444D01*
X26774785Y-28160766D01*
X26799624Y-28226071D01*
X26800000Y-28235716D01*
X26800000Y-29776000D01*
X26780315Y-29843039D01*
X26727511Y-29888794D01*
X26676000Y-29900000D01*
X22608000Y-29900000D01*
X22563323Y-34851079D01*
X22553889Y-34897413D01*
X22494413Y-35040999D01*
X22494411Y-35041007D01*
X22459500Y-35216516D01*
X22459500Y-35395483D01*
X22494411Y-35570992D01*
X22494413Y-35571000D01*
X22545834Y-35695140D01*
X22555268Y-35743712D01*
X22551607Y-36149362D01*
X22542173Y-36195695D01*
X22494413Y-36310998D01*
X22494410Y-36311007D01*
X22459500Y-36486516D01*
X22459500Y-36665483D01*
X22494411Y-36840992D01*
X22494413Y-36841000D01*
X22534618Y-36938063D01*
X22544052Y-36986635D01*
X22509137Y-40855952D01*
X22488848Y-40922811D01*
X22435634Y-40968088D01*
X22381987Y-40978793D01*
X19170942Y-40897077D01*
X19104425Y-40875693D01*
X19060029Y-40821742D01*
X19050097Y-40773017D01*
X19053681Y-36310998D01*
X19061899Y-26079125D01*
X19081637Y-26012104D01*
X19134478Y-25966391D01*
X19187117Y-25955233D01*
X25085194Y-26013400D01*
G37*
%TD.AperFunction*%
%TA.AperFunction,Conductor*%
G36*
X24638676Y-48279685D02*
G01*
X24674811Y-48315217D01*
X25125174Y-48990761D01*
X25145982Y-49057460D01*
X25146000Y-49059544D01*
X25146000Y-51308000D01*
X27054000Y-51308000D01*
X27121039Y-51327685D01*
X27166794Y-51380489D01*
X27178000Y-51432000D01*
X27178000Y-54232000D01*
X27158315Y-54299039D01*
X27105511Y-54344794D01*
X27054000Y-54356000D01*
X23746000Y-54356000D01*
X23678961Y-54336315D01*
X23633206Y-54283511D01*
X23622000Y-54232000D01*
X23622000Y-48384000D01*
X23641685Y-48316961D01*
X23694489Y-48271206D01*
X23746000Y-48260000D01*
X24571637Y-48260000D01*
X24638676Y-48279685D01*
G37*
%TD.AperFunction*%
%TA.AperFunction,Conductor*%
G36*
X23065203Y-47449649D02*
G01*
X23071681Y-47455681D01*
X23114000Y-47498000D01*
X23304635Y-47498000D01*
X23327767Y-47504792D01*
X23351751Y-47507300D01*
X23363927Y-47515410D01*
X23371674Y-47517685D01*
X23382158Y-47525221D01*
X23393338Y-47534176D01*
X23394356Y-47536359D01*
X23478641Y-47620644D01*
X23532829Y-47645912D01*
X23544449Y-47655220D01*
X23556273Y-47672144D01*
X23571769Y-47685788D01*
X23575878Y-47700205D01*
X23584465Y-47712495D01*
X23585262Y-47733126D01*
X23590922Y-47752981D01*
X23586584Y-47767330D01*
X23587164Y-47782312D01*
X23576680Y-47800100D01*
X23570707Y-47819863D01*
X23559110Y-47829911D01*
X23551688Y-47842506D01*
X23534678Y-47851082D01*
X23519333Y-47864380D01*
X23478641Y-47883355D01*
X23392316Y-47969681D01*
X23330993Y-48003166D01*
X23304635Y-48006000D01*
X23113999Y-48006000D01*
X23071681Y-48048319D01*
X23010358Y-48081804D01*
X22940666Y-48076820D01*
X22884733Y-48034948D01*
X22860316Y-47969484D01*
X22860000Y-47960638D01*
X22860000Y-47543362D01*
X22879685Y-47476323D01*
X22932489Y-47430568D01*
X23001647Y-47420624D01*
X23065203Y-47449649D01*
G37*
%TD.AperFunction*%
%TA.AperFunction,Conductor*%
G36*
X19075706Y-48025685D02*
G01*
X19083062Y-48030796D01*
X20066000Y-48768000D01*
X22990000Y-48768000D01*
X23057039Y-48787685D01*
X23102794Y-48840489D01*
X23114000Y-48892000D01*
X23114000Y-50422000D01*
X23094315Y-50489039D01*
X23041511Y-50534794D01*
X22990000Y-50546000D01*
X19609362Y-50546000D01*
X19542323Y-50526315D01*
X19521681Y-50509681D01*
X18288000Y-49276000D01*
X15618000Y-49276000D01*
X15550961Y-49256315D01*
X15505206Y-49203511D01*
X15494000Y-49152000D01*
X15494000Y-48130000D01*
X15513685Y-48062961D01*
X15566489Y-48017206D01*
X15618000Y-48006000D01*
X19008667Y-48006000D01*
X19075706Y-48025685D01*
G37*
%TD.AperFunction*%
%TA.AperFunction,Conductor*%
G36*
X29943039Y-54819685D02*
G01*
X29988794Y-54872489D01*
X30000000Y-54924000D01*
X30000000Y-56123596D01*
X29993931Y-56161914D01*
X29954951Y-56281882D01*
X29921500Y-56493084D01*
X29921500Y-56706915D01*
X29954951Y-56918117D01*
X29993931Y-57038085D01*
X30000000Y-57076403D01*
X30000000Y-57676000D01*
X29980315Y-57743039D01*
X29927511Y-57788794D01*
X29876000Y-57800000D01*
X27787135Y-57800000D01*
X27762944Y-57797617D01*
X27601482Y-57765500D01*
X27601479Y-57765500D01*
X27422521Y-57765500D01*
X27422517Y-57765500D01*
X27261056Y-57797617D01*
X27236865Y-57800000D01*
X23748000Y-57800000D01*
X23680961Y-57780315D01*
X23635206Y-57727511D01*
X23624000Y-57676000D01*
X23624000Y-54993500D01*
X23643685Y-54926461D01*
X23696489Y-54880706D01*
X23748000Y-54869500D01*
X27053990Y-54869500D01*
X27054000Y-54869500D01*
X27163157Y-54857764D01*
X27214668Y-54846558D01*
X27242388Y-54837331D01*
X27326188Y-54809441D01*
X27326470Y-54810290D01*
X27371815Y-54800000D01*
X29876000Y-54800000D01*
X29943039Y-54819685D01*
G37*
%TD.AperFunction*%
M02*
